<svg width="574" height="584" viewBox="0 0 574 584" fill="none" xmlns="http://www.w3.org/2000/svg">
<path fill-rule="evenodd" clip-rule="evenodd" d="M277.756 513.194V503.679C277.756 503.53 277.624 503.398 277.442 503.398H271.246C271.064 503.398 270.931 503.53 270.931 503.679V506.73C270.931 506.879 271.064 507.011 271.246 507.011H273.681V510.824C273.681 510.824 273.135 511.006 271.611 511.006C269.821 511.006 267.337 510.36 267.337 504.873C267.337 499.386 269.954 498.69 272.389 498.69C274.276 498.69 275.19 498.983 275.788 499.175C275.857 499.197 275.922 499.218 275.984 499.237C276.166 499.287 276.315 499.104 276.315 498.955L277.011 496.005C277.011 495.922 276.978 495.855 276.911 495.772C276.68 495.623 275.222 494.811 271.611 494.811C267.436 494.794 263.162 496.552 263.162 505.072C263.162 513.592 268.049 514.885 272.174 514.885C275.586 514.885 277.657 513.41 277.657 513.41C277.74 513.377 277.756 513.261 277.756 513.194ZM337.144 507.542C337.144 513.228 335.305 514.852 332.091 514.852C329.374 514.852 327.917 513.476 327.917 513.476C327.917 513.476 327.85 514.239 327.768 514.338C327.718 514.438 327.635 514.471 327.536 514.471H325.084C324.918 514.471 324.769 514.338 324.769 514.189L324.802 495.772C324.802 495.623 324.935 495.491 325.084 495.491H328.612C328.761 495.491 328.894 495.623 328.894 495.772V502.022C328.894 502.022 330.252 501.143 332.24 501.143L332.224 501.11C334.211 501.11 337.144 501.856 337.144 507.542ZM293.609 511.481L293.609 511.481C293.421 511.505 293.172 511.537 292.914 511.537C291.622 511.537 291.174 510.94 291.174 510.161V504.972H293.808C293.957 504.972 294.073 504.84 294.073 504.657V501.839C294.073 501.69 293.941 501.558 293.808 501.558H291.174V498.06C291.174 497.927 291.092 497.845 290.942 497.845H287.364C287.215 497.845 287.132 497.927 287.132 498.06V501.657C287.132 501.657 285.327 502.105 285.211 502.121C285.078 502.154 284.995 502.27 284.995 502.403V504.657C284.995 504.84 285.128 504.972 285.277 504.972H287.116V510.41C287.116 514.454 289.932 514.869 291.854 514.869C292.732 514.869 293.792 514.587 293.957 514.504C294.057 514.471 294.106 514.355 294.106 514.239V511.752C294.106 511.588 293.994 511.479 293.865 511.456L293.867 511.455L293.87 511.455L293.873 511.454L293.875 511.454L293.858 511.437H293.825C293.833 511.437 293.84 511.442 293.847 511.446C293.852 511.45 293.858 511.454 293.865 511.456C293.808 511.456 293.719 511.467 293.609 511.481ZM330.633 504.541C331.909 504.409 333.118 504.807 333.118 507.807C333.118 510.973 332.572 511.586 330.865 511.537C329.656 511.504 328.844 510.94 328.844 510.94V505.105C328.844 505.105 329.639 504.608 330.633 504.541ZM322.682 501.558H322.698C322.881 501.558 323.013 501.69 323.013 501.839L322.98 514.222C322.98 514.371 322.881 514.504 322.698 514.504H320.479C320.363 514.504 320.247 514.438 320.214 514.355C320.164 514.255 320.081 513.609 320.081 513.609C320.081 513.609 318.209 514.885 315.907 514.885C313.107 514.885 311.07 513.974 311.07 510.327V501.856C311.07 501.707 311.202 501.574 311.351 501.574H314.896C315.045 501.574 315.178 501.707 315.178 501.856V509.73C315.178 510.973 315.542 511.537 316.785 511.537C318.027 511.537 318.938 510.89 318.938 510.89V501.873C318.938 501.69 319.038 501.558 319.22 501.558H322.682ZM283.438 501.541H279.91C279.761 501.541 279.628 501.69 279.628 501.873V514.04C279.628 514.371 279.844 514.487 280.125 514.487H283.306C283.637 514.487 283.72 514.338 283.72 514.04V501.839V501.823C283.72 501.674 283.587 501.541 283.438 501.541ZM279.413 498.226C279.413 496.949 280.423 495.938 281.699 495.938C282.941 495.938 283.952 496.949 283.952 498.226C283.952 499.502 282.941 500.513 281.699 500.513C280.423 500.513 279.413 499.502 279.413 498.226ZM309.015 495.524H305.52C305.371 495.524 305.238 495.656 305.238 495.806V502.585H299.755V495.806C299.755 495.656 299.623 495.524 299.474 495.524H295.945C295.796 495.524 295.664 495.656 295.664 495.806V514.222C295.664 514.371 295.813 514.504 295.945 514.504H299.474C299.623 514.504 299.755 514.371 299.755 514.222V506.348H305.238L305.205 514.222C305.205 514.371 305.338 514.504 305.487 514.504H309.015C309.164 514.504 309.297 514.371 309.297 514.222V495.806C309.297 495.656 309.164 495.524 309.015 495.524Z" fill="#919EAB"/>
<mask id="mask0" mask-type="alpha" maskUnits="userSpaceOnUse" x="381" y="484" width="93" height="44">
<path fill-rule="evenodd" clip-rule="evenodd" d="M381.18 484.008V527.243H473.773V484.008H381.18Z" fill="white"/>
</mask>
<g mask="url(#mask0)">
<path fill-rule="evenodd" clip-rule="evenodd" d="M408.171 519.727C407.434 519.683 407.036 520.009 406.612 520.482C404.8 522.503 402.981 524.518 401.144 526.516C401.084 526.581 401.025 526.657 400.965 526.735C400.732 527.037 400.476 527.368 400.06 527.196C399.661 527.031 399.701 526.64 399.738 526.271C399.75 526.159 399.761 526.049 399.76 525.949C399.756 525.589 399.75 525.229 399.744 524.869C399.721 523.541 399.699 522.213 399.777 520.89C399.856 519.572 399.532 518.981 398.056 518.942C396.217 518.892 394.357 518.664 392.559 518.272C386.214 516.887 382.035 513.441 381.441 506.399C381.182 503.333 380.997 500.279 381.482 497.234C382.495 490.872 386.182 487.261 392.536 486.22C401.782 484.706 411.109 484.226 420.457 484.056C430.219 483.878 439.974 484.219 449.719 484.727C454.436 484.973 459.127 485.588 463.755 486.559C469.304 487.724 473.102 491.971 473.569 497.718C473.838 501.022 473.896 504.356 473.398 507.661C472.733 512.067 470.299 515.137 466.217 516.916C462.684 518.457 458.921 518.965 455.121 519.223C446.512 519.81 437.898 520.3 428.644 520.243C422.226 520.329 415.194 520.153 408.171 519.727ZM403.968 500.428C403.987 499.255 402.654 497.898 401.516 497.927C401.249 497.933 400.988 497.962 400.89 498.246C400.743 498.67 401.052 498.771 401.367 498.821C402.421 498.989 402.974 499.607 403.079 500.651C403.108 500.935 403.289 501.164 403.564 501.132C403.946 501.087 403.98 500.749 403.968 500.428ZM401.281 495.938C403.845 496.245 405.939 498.458 405.919 500.889C405.909 500.959 405.912 501.042 405.915 501.128C405.924 501.392 405.934 501.687 405.581 501.74C405.075 501.817 405.054 501.463 405.033 501.129C405.028 501.047 405.023 500.965 405.011 500.892C404.588 498.359 403.695 497.43 401.129 496.859C401.057 496.843 400.977 496.832 400.896 496.821L400.896 496.821C400.552 496.774 400.181 496.724 400.26 496.255C400.339 495.786 400.732 495.851 401.093 495.91C401.157 495.921 401.22 495.931 401.281 495.938ZM429.339 495.963C429.24 494.823 428.596 494.168 427.498 494.047C426.465 493.934 425.535 494.903 425.542 495.963C425.548 497.056 426.426 497.923 427.511 497.856C428.684 497.784 429.208 497.056 429.339 495.963ZM400.334 493.898C400.429 493.905 400.517 493.911 400.588 493.901C404.579 494.035 408.016 497.67 407.968 501.592C407.967 501.655 407.97 501.723 407.973 501.793C407.989 502.148 408.007 502.545 407.525 502.536C407.094 502.527 407.088 502.172 407.083 501.833C407.081 501.739 407.08 501.646 407.069 501.562C406.54 497.398 404.623 495.432 400.468 494.797C400.4 494.786 400.324 494.781 400.248 494.775C399.937 494.753 399.604 494.729 399.625 494.366C399.655 493.852 400.026 493.877 400.334 493.898ZM425.639 505.004C425.639 505.407 425.641 505.809 425.643 506.211V506.211V506.211V506.212V506.212V506.212C425.647 507.135 425.652 508.057 425.633 508.979C425.609 510.139 426.132 510.91 427.288 510.95C428.449 510.99 429.043 510.248 429.046 509.09L429.047 508.423V508.423V508.423V508.423V508.423V508.423C429.053 505.893 429.059 503.363 429.04 500.834C429.033 499.781 428.568 499.052 427.402 499.041C426.184 499.029 425.651 499.724 425.644 500.876C425.638 501.745 425.639 502.613 425.639 503.481C425.64 503.989 425.64 504.496 425.639 505.004ZM456.488 505.785L456.488 505.781C456.491 505.312 456.493 504.843 456.493 504.374C456.493 503.927 456.493 503.48 456.494 503.032C456.496 502.05 456.498 501.068 456.488 500.086C456.481 499.294 456.757 498.7 457.521 498.377C458.308 498.044 459.126 498.059 459.615 498.75C460.027 499.331 460.236 499.143 460.563 498.848L460.563 498.848C460.585 498.828 460.608 498.807 460.632 498.785C461.154 498.32 461.784 498.105 462.482 498.215C463.266 498.339 463.759 498.785 463.927 499.592C464.089 500.37 463.818 501.012 463.097 501.181C460.121 501.878 459.661 503.934 459.963 506.524C460.068 507.428 460.017 508.364 459.92 509.274C459.808 510.329 459.146 510.98 458.06 510.899C457.046 510.824 456.524 510.111 456.502 509.122C456.478 508.01 456.483 506.898 456.488 505.785ZM404.767 510.813C406.061 510.826 407.577 509.586 408.015 508.355C408.386 507.314 407.742 506.825 407.102 506.339C407.014 506.272 406.926 506.205 406.841 506.136C406.414 505.795 405.964 505.482 405.513 505.17L405.513 505.17L405.513 505.17L405.513 505.17L405.512 505.169L405.512 505.168L405.512 505.168C405.415 505.101 405.318 505.034 405.222 504.967C404.134 504.207 403.138 504.148 402.326 505.371C401.87 506.058 401.232 506.088 400.564 505.786C398.724 504.956 397.303 503.677 396.471 501.817C396.103 500.994 396.107 500.255 396.969 499.673C397.425 499.365 397.885 499.001 397.848 498.328C397.8 497.451 395.659 494.518 394.813 494.209C394.463 494.081 394.115 494.09 393.759 494.209C391.776 494.872 390.955 496.494 391.741 498.415C394.088 504.145 398.217 508.134 403.901 510.57C404.137 510.671 404.392 510.728 404.584 510.77L404.584 510.77L404.584 510.77L404.584 510.77L404.584 510.77C404.655 510.786 404.718 510.8 404.767 510.813ZM451.518 505.716C451.249 505.715 450.98 505.714 450.711 505.714C450.427 505.715 450.143 505.716 449.858 505.717H449.858C449.117 505.721 448.375 505.725 447.634 505.711C446.82 505.696 446.801 506.059 447.112 506.657C447.736 507.855 449.628 508.416 451.203 507.814C451.71 507.62 452.192 507.359 452.672 507.099L452.855 507C453.657 506.568 454.344 506.662 454.862 507.429C455.453 508.306 455.062 509.025 454.332 509.538C452.041 511.145 449.516 511.616 446.912 510.51C444.38 509.433 443.304 507.29 443.273 504.623C443.234 501.18 445.571 498.412 448.719 498.101C451.892 497.786 454.698 499.96 455.336 503.227C455.692 505.054 455.184 505.688 453.326 505.712C452.724 505.72 452.121 505.718 451.518 505.716H451.518ZM416.549 501.886L416.547 501.88L416.547 501.88C415.717 499.651 414.948 497.586 414.161 495.529C413.767 494.501 413.132 493.668 411.851 494.121C410.583 494.569 410.332 495.534 410.797 496.72C412.471 500.993 414.147 505.265 415.838 509.532C416.156 510.333 416.671 510.956 417.648 510.935C418.543 510.917 419.037 510.349 419.346 509.6C419.743 508.634 420.125 507.661 420.506 506.689L420.507 506.687C420.628 506.378 420.749 506.069 420.871 505.761C421.18 504.975 421.491 504.189 421.801 503.403L421.801 503.402C422.69 501.153 423.579 498.903 424.451 496.647C424.876 495.548 424.683 494.607 423.467 494.149C422.31 493.714 421.612 494.326 421.154 495.313C421.009 495.626 420.89 495.95 420.771 496.275C420.732 496.381 420.692 496.488 420.652 496.594C419.947 498.466 419.243 500.337 418.476 502.376L417.6 504.704C417.236 503.73 416.888 502.794 416.549 501.886ZM430.576 504.185C430.576 503.579 430.575 502.974 430.575 502.368C430.574 501.693 430.575 501.017 430.576 500.341C430.578 498.973 430.579 497.604 430.569 496.236C430.56 495.005 430.977 494.029 432.341 494.04C433.633 494.051 434.037 494.994 433.983 496.169C433.975 496.346 433.978 496.523 433.98 496.7C433.981 496.779 433.982 496.857 433.982 496.935C433.983 497.871 433.983 498.333 434.205 498.496C434.421 498.656 434.847 498.53 435.691 498.281C438.104 497.569 440.41 498.464 441.581 500.684C442.932 503.245 443.084 505.855 441.571 508.43C440.029 511.051 437.186 511.788 434.585 510.205C434.567 510.194 434.549 510.183 434.531 510.172C434.152 509.94 433.97 509.828 433.63 510.272C433.102 510.963 432.35 511.096 431.565 510.723C430.766 510.344 430.567 509.629 430.571 508.807C430.579 507.267 430.577 505.726 430.576 504.185Z" fill="#919EAB"/>
</g>
<path fill-rule="evenodd" clip-rule="evenodd" d="M439.605 504.551C439.579 506.515 438.327 507.942 436.67 507.897C435.088 507.853 433.848 506.298 433.878 504.397C433.91 502.421 435.143 501.029 436.826 501.071C438.44 501.11 439.631 502.602 439.605 504.551Z" fill="#919EAB"/>
<path fill-rule="evenodd" clip-rule="evenodd" d="M448.657 503.299C448.373 503.3 448.082 503.334 447.804 503.292C447.367 503.226 446.726 503.566 446.531 503.059C446.319 502.509 446.795 502.041 447.222 501.671C448.016 500.981 448.927 500.903 449.863 501.343C450.58 501.681 451.222 502.284 451.025 503.029C450.875 503.595 450.036 503.213 449.51 503.291C449.232 503.332 448.942 503.298 448.657 503.299Z" fill="#919EAB"/>
<path fill-rule="evenodd" clip-rule="evenodd" d="M136.818 511.905C136.883 512.066 136.948 512.227 137.012 512.384C137.52 513.843 137.676 515.223 137.366 516.602C136.936 519.52 135.024 522.042 132.292 523.147C131.317 523.581 130.224 523.778 129.131 523.778C128.819 523.778 128.429 523.739 128.116 523.698C126.829 523.541 125.502 523.108 124.214 522.359C122.653 521.452 121.092 520.151 119.375 518.259C117.658 520.151 116.136 521.452 114.536 522.359C113.248 523.108 111.921 523.541 110.633 523.698C110.32 523.738 109.93 523.778 109.618 523.778C108.526 523.778 107.472 523.581 106.457 523.147C103.764 522.042 101.813 519.559 101.384 516.602C101.188 515.183 101.345 513.802 101.852 512.344C102.047 511.832 102.242 511.359 102.437 510.925C102.576 510.61 102.715 510.302 102.85 510.003L102.85 510.002L102.85 510.002C103.019 509.628 103.183 509.265 103.335 508.914L103.374 508.836C106.067 502.922 108.994 496.93 111.999 491.017L112.116 490.78C112.435 490.166 112.748 489.548 113.052 488.927C113.442 488.217 113.872 487.468 114.457 486.758C115.744 485.261 117.5 484.393 119.452 484.393C121.364 484.393 123.159 485.261 124.408 486.838C124.984 487.492 125.36 488.179 125.721 488.839L125.813 489.006C126.117 489.628 126.429 490.246 126.749 490.859L126.866 491.096C129.91 497.009 132.798 503.001 135.491 508.915L135.53 508.954C135.682 509.307 135.847 509.672 136.018 510.05L136.018 510.05C136.152 510.348 136.29 510.652 136.427 510.965C136.558 511.255 136.688 511.58 136.818 511.905ZM167.14 494.289C167.14 495.708 166.007 496.851 164.602 496.851C163.197 496.851 162.066 495.708 162.066 494.289C162.066 492.87 163.159 491.727 164.602 491.727C166.047 491.766 167.14 492.909 167.14 494.289ZM156.68 499.454V500.085C156.68 500.085 155.471 498.507 152.895 498.507C148.642 498.507 145.324 501.779 145.324 506.313C145.324 510.807 148.603 514.119 152.895 514.119C155.51 514.119 156.68 512.502 156.68 512.502V513.172C156.68 513.488 156.915 513.724 157.227 513.724H160.388V498.9H157.227C156.915 498.901 156.68 499.178 156.68 499.454ZM153.52 510.571C154.925 510.571 156.096 509.822 156.68 508.954V503.671C156.135 502.844 154.886 502.055 153.52 502.055C151.022 502.055 149.11 503.632 149.11 506.313C149.11 508.994 151.022 510.571 153.52 510.571ZM162.73 498.901H166.476V513.725H162.73V498.901ZM214.906 500.084C214.906 500.084 216.116 498.507 218.692 498.507C222.906 498.507 226.223 501.82 226.223 506.314C226.223 510.809 222.906 514.119 218.652 514.119C216.077 514.119 214.867 512.503 214.867 512.503V513.173C214.867 513.449 214.633 513.725 214.321 513.725H211.16V491.766H214.906V500.084ZM218.067 510.531C216.623 510.531 215.492 509.783 214.906 508.915V503.632C215.492 502.844 216.74 502.016 218.067 502.016C220.565 502.016 222.477 503.593 222.477 506.274C222.477 508.954 220.565 510.531 218.067 510.531ZM209.209 513.764V504.934C209.209 502.45 208.701 501.031 207.375 499.927C206.282 498.981 204.916 498.507 203.276 498.507C201.833 498.507 200.389 498.941 199.296 500.085V499.454C199.296 499.178 199.062 498.902 198.75 498.902H195.785V513.725H199.53V503.396C200.273 502.529 201.444 501.937 202.576 501.937C204.682 501.937 205.462 502.923 205.462 505.367V513.764H209.209ZM186.691 498.507C184.116 498.507 182.906 500.084 182.906 500.084V491.766H179.159V513.725H182.32C182.632 513.725 182.867 513.449 182.867 513.173V512.503C182.867 512.503 184.077 514.119 186.652 514.119C190.906 514.119 194.223 510.809 194.223 506.314C194.262 501.819 190.945 498.507 186.691 498.507ZM182.906 508.915C183.491 509.783 184.622 510.531 186.066 510.531C188.564 510.531 190.476 508.954 190.476 506.274C190.476 503.593 188.564 502.016 186.066 502.016C184.74 502.016 183.491 502.844 182.906 503.632V508.915ZM175.92 498.507C177.051 498.507 177.637 498.704 177.637 498.704V502.213C177.637 502.213 174.515 501.148 172.564 503.396V513.764H168.817V498.901H171.979C172.291 498.901 172.524 499.177 172.524 499.453V500.084C173.228 499.256 174.75 498.507 175.92 498.507ZM119.413 514.434C117.305 511.753 115.939 509.23 115.471 507.102C115.276 506.195 115.237 505.407 115.354 504.697C115.432 504.066 115.666 503.514 115.979 503.041C116.72 501.977 117.969 501.306 119.413 501.306C120.857 501.306 122.145 501.937 122.848 503.041C123.16 503.514 123.394 504.066 123.473 504.697C123.589 505.407 123.55 506.235 123.355 507.102C122.886 509.191 121.519 511.714 119.413 514.434ZM131.432 520.9C133.344 520.112 134.71 518.337 134.983 516.287C135.139 515.262 135.022 514.276 134.711 513.252C134.629 512.978 134.51 512.704 134.38 512.404C134.322 512.272 134.263 512.136 134.204 511.992C134.048 511.677 133.902 511.342 133.756 511.008C133.609 510.672 133.462 510.336 133.306 510.019V509.98C130.568 504.013 127.718 498.098 124.759 492.239L124.642 492.002C124.489 491.713 124.336 491.413 124.183 491.113C124.024 490.802 123.865 490.491 123.705 490.189C123.393 489.559 123.042 488.968 122.613 488.454C121.793 487.509 120.701 486.996 119.491 486.996C118.28 486.996 117.188 487.509 116.369 488.454C115.939 488.967 115.588 489.558 115.276 490.189C115.124 490.476 114.973 490.773 114.821 491.069C114.661 491.384 114.5 491.698 114.339 492.002L114.222 492.239C111.217 498.074 108.329 504.066 105.637 509.941L105.598 510.019C105.285 510.689 104.973 511.36 104.7 511.99C104.64 512.136 104.58 512.273 104.523 512.406C104.392 512.705 104.274 512.978 104.193 513.252C103.802 514.356 103.725 515.341 103.842 516.327C104.115 518.377 105.481 520.151 107.392 520.94C108.29 521.294 109.305 521.452 110.359 521.333C111.334 521.216 112.309 520.9 113.324 520.309C114.729 519.52 116.173 518.298 117.773 516.484C115.236 513.291 113.636 510.334 113.051 507.733C112.739 506.55 112.7 505.407 112.856 504.381C113.012 503.396 113.364 502.489 113.91 501.7C115.12 499.966 117.15 498.901 119.412 498.901C121.675 498.901 123.705 499.926 124.915 501.7C125.461 502.489 125.813 503.396 125.969 504.381C126.086 505.407 126.047 506.51 125.774 507.733C125.188 510.334 123.627 513.252 121.052 516.445C122.691 518.259 124.096 519.48 125.501 520.269C126.515 520.86 127.491 521.176 128.466 521.294C129.48 521.413 130.496 521.294 131.432 520.9Z" fill="#919EAB"/>
<path d="M224.623 571.652L228.196 567.351C228.205 567.339 228.206 567.324 228.201 567.309C228.201 567.309 228.201 567.309 228.201 567.308C228.195 567.298 228.182 567.284 228.167 567.284H225.72C225.709 567.284 225.698 567.292 225.691 567.3L223.382 570.118L221.116 567.303C221.111 567.292 221.096 567.284 221.087 567.284H218.085C218.082 567.284 218.077 567.29 218.072 567.294C218.063 567.298 218.053 567.302 218.051 567.294C218.045 567.308 218.045 567.294 218.051 567.336L221.817 571.98L218.008 576.667C217.999 576.677 217.997 576.693 218.004 576.667C218.012 576.667 218.004 576.667 218.004 576.689H218.007H220.408H220.409C220.419 576.689 220.43 576.686 220.437 576.675L223.024 573.514L225.61 576.722C225.617 576.722 225.61 576.722 225.61 576.736H228.61C228.625 576.736 228.637 576.728 228.642 576.714C228.65 576.701 228.648 576.685 228.637 576.675L224.623 571.652Z" fill="#919EAB"/>
<path fill-rule="evenodd" clip-rule="evenodd" d="M242.664 567.399C243.337 567.087 244.093 566.9 244.926 566.9H244.869C247.578 566.854 249.357 568.705 249.3 571.332V571.333C249.299 571.469 249.29 571.665 249.279 571.866C249.262 572.204 249.236 572.556 249.227 572.673C249.225 572.696 249.224 572.709 249.224 572.713H249.223V572.714C249.218 572.723 249.204 572.733 249.191 572.733H242.325C242.467 574.332 243.503 575.244 245.188 575.244C246.222 575.191 247.32 574.837 248.875 574.01C248.901 573.995 248.932 574.02 248.932 574.048L248.926 576.163C248.923 576.18 248.916 576.193 248.904 576.195C247.461 576.807 246.007 577.222 244.869 577.222C244.13 577.218 243.326 577.095 242.653 576.725C240.929 575.914 239.821 574.186 239.821 572.088C239.821 569.898 240.942 568.196 242.664 567.399ZM246.894 571.074C246.894 569.939 246.121 568.951 244.924 568.951H244.869C243.638 568.951 242.687 569.815 242.372 571.165H246.894V571.074Z" fill="#919EAB"/>
<path d="M263.234 562.274C262.391 562.274 261.706 562.97 261.706 563.825C261.706 563.825 261.706 563.825 261.706 563.826C261.706 564.443 262.076 564.937 262.691 565.215C262.874 565.338 263.061 565.338 263.307 565.333C264.15 565.333 264.834 564.657 264.834 563.825C264.761 563.028 264.076 562.288 263.215 562.274H263.234Z" fill="#919EAB"/>
<path d="M261.99 567.287C261.972 567.292 261.959 567.305 261.959 567.324V576.702C261.959 576.702 261.959 576.702 261.959 576.741H264.426C264.44 576.741 264.445 576.726 264.451 576.715C264.454 576.71 264.464 576.711 264.464 576.702V567.322C264.464 567.305 264.452 567.289 264.434 567.287H261.99V567.287Z" fill="#919EAB"/>
<path fill-rule="evenodd" clip-rule="evenodd" d="M231.746 567.284C232.487 567.029 233.193 566.902 233.892 566.902H233.911C236.25 566.854 238.023 568.211 238.677 570.234C238.849 570.77 238.96 571.347 238.96 571.974C238.96 575.115 236.771 577.145 233.389 577.145C232.896 577.145 232.395 577.145 231.788 577.022L231.789 581.699V581.7C230.935 582.306 230.07 582.573 229.343 582.681C229.326 582.684 229.307 582.688 229.29 582.692C229.273 582.695 229.256 582.699 229.241 582.701V567.324C229.241 567.304 229.255 567.285 229.276 567.285C229.278 567.285 229.278 567.284 229.278 567.284H231.746ZM231.787 575.165C232.313 575.306 232.771 575.368 233.22 575.368L233.172 575.329C233.911 575.368 234.606 575.122 235.071 574.835C235.849 574.264 236.306 573.301 236.306 572.067C236.306 570.093 235.192 568.859 233.474 568.859C232.944 568.859 232.406 568.95 231.791 569.148L231.787 575.165Z" fill="#919EAB"/>
<path fill-rule="evenodd" clip-rule="evenodd" d="M257.483 567.23V562.322H257.509V562.32C258.405 561.669 259.302 561.415 260.055 561.315V561.318V576.301V576.303C259.286 576.851 258.506 577.123 257.827 577.253H257.825L257.829 576.404C256.803 576.934 255.926 577.168 254.992 577.168C252.283 577.162 250.313 575.064 250.313 572.102V572.101V572.1C250.313 569.146 252.533 566.924 255.477 566.924C256.123 566.924 256.759 567.019 257.483 567.23ZM255.905 568.792C254.093 568.792 252.921 570.152 252.921 572.249H252.872C252.872 573.641 253.438 574.505 254.364 574.953C254.666 575.082 255.011 575.15 255.394 575.15C256.043 575.15 256.732 574.955 257.505 574.552V569.181C256.89 568.916 256.405 568.792 255.905 568.792Z" fill="#919EAB"/>
<path fill-rule="evenodd" clip-rule="evenodd" d="M275.527 567.067L275.539 567.067H275.527C275.527 567.067 275.527 567.067 275.527 567.067ZM275.527 567.067L273.536 567.071C273.475 567.071 273.428 567.12 273.428 567.178V567.179V567.52H273.377C272.452 567.114 271.659 566.925 270.884 566.925C268.11 566.925 265.933 569.232 265.933 572.183C265.933 575.145 267.903 577.12 270.735 577.12C271.507 577.12 272.503 577.067 273.429 575.997V577.202C274.085 577.063 274.862 576.783 275.6 576.251L275.602 567.125L275.604 567.124C275.648 567.1 275.649 567.1 275.527 567.067ZM271.391 568.812C269.886 568.812 268.813 569.876 268.568 571.528H268.509C268.509 571.79 268.515 572.037 268.534 572.223C268.534 574.044 269.514 575.127 271.154 575.127C271.581 575.127 272.05 575.008 272.573 574.767C272.747 574.687 272.928 574.593 273.115 574.485V569.306C272.376 568.935 271.854 568.812 271.391 568.812Z" fill="#919EAB"/>
<path d="M211.188 574.363L211.187 569.667H216.466C216.488 569.667 216.504 569.65 216.504 569.631V567.313C216.504 567.292 216.488 567.273 216.466 567.273H211.187V563.934H216.52C217.058 563.106 217.292 562.27 217.387 561.576C217.387 561.574 210.141 561.574 210.141 561.574C210.118 561.574 210.094 561.571 210.069 561.571C209.278 561.571 208.627 562.186 208.549 562.966C208.544 562.974 208.541 568.891 208.541 568.891V575.272C208.618 576.042 209.279 576.659 210.018 576.659C210.044 576.659 210.018 576.659 210.141 576.659H211.201H216.535C217.073 575.862 217.289 574.998 217.412 574.363H211.188Z" fill="#919EAB"/>
<path fill-rule="evenodd" clip-rule="evenodd" d="M202.196 575.841C202.196 575.123 202.735 574.647 203.366 574.647H203.376C203.991 574.628 204.531 575.122 204.468 575.886C204.468 576.603 203.927 577.075 203.304 577.075C202.689 577.075 202.196 576.582 202.196 575.841ZM202.368 575.84C202.368 576.43 202.75 576.912 203.366 576.912H203.376C203.868 576.973 204.357 576.479 204.351 575.84C204.351 575.26 203.921 574.766 203.366 574.766C202.806 574.766 202.368 575.206 202.368 575.84Z" fill="#919EAB"/>
<path fill-rule="evenodd" clip-rule="evenodd" d="M203.405 575.133C203.744 575.133 203.919 575.255 203.919 575.539H203.868C203.868 575.739 203.763 575.862 203.55 575.925L203.944 576.545H203.683L203.319 575.942H203.102V576.545H202.871V575.133H203.405ZM203.086 575.307V575.741V575.786H203.403C203.587 575.786 203.749 575.768 203.749 575.554C203.749 575.307 203.527 575.307 203.379 575.307H203.086Z" fill="#919EAB"/>
<path d="M195.326 563.893L194.874 562.611L191.04 557.477L191.728 557.306L198.34 563.033L202.229 561.917C202.686 561.8 203.204 561.774 203.601 561.777C202.378 559.133 200.141 556.965 197.187 555.91C191.347 553.823 184.907 556.858 182.814 562.781C182.171 564.594 182.019 566.461 182.289 568.238L191.607 564.994L195.326 563.893Z" fill="#919EAB"/>
<path d="M202.668 563.461L198.769 564.577L196.168 572.945L195.493 573.166L196.043 566.773L195.736 565.446L192.084 566.492L182.427 568.713C183.193 572.415 185.874 575.624 189.691 577.049C195.532 579.147 201.95 576.076 204.027 570.225C204.923 567.703 204.865 565.073 204.044 562.729C203.667 563.028 203.129 563.275 202.637 563.461H202.668Z" fill="#919EAB"/>
<path fill-rule="evenodd" clip-rule="evenodd" d="M324.075 556.414C324.075 557.584 323.108 558.558 321.947 558.558C320.786 558.558 319.818 557.584 319.818 556.414C319.818 555.245 320.786 554.27 321.947 554.27C323.108 554.27 324.075 555.245 324.075 556.414ZM321.947 560.312C320.689 560.312 319.721 561.287 319.721 562.554C319.721 563.821 320.689 564.795 321.947 564.795C323.204 564.795 324.172 563.821 324.172 562.554C324.172 561.287 323.204 560.312 321.947 560.312ZM319.624 568.694C319.624 567.427 320.689 566.355 321.947 566.355C323.204 566.355 324.269 567.427 324.269 568.694C324.269 569.96 323.204 571.032 321.947 571.032C320.689 571.032 319.624 569.96 319.624 568.694ZM321.947 572.494C320.689 572.494 319.721 573.469 319.721 574.736C319.721 576.003 320.689 576.977 321.947 576.977C323.204 576.977 324.172 576.003 324.172 574.736C324.172 573.566 323.204 572.494 321.947 572.494ZM319.818 580.875C319.818 579.706 320.786 578.731 321.947 578.731C323.108 578.731 324.075 579.706 324.075 580.875C324.075 582.045 323.108 583.019 321.947 583.019C320.786 583.019 319.818 582.045 319.818 580.875ZM327.849 560.02C326.494 560.02 325.333 561.19 325.333 562.554C325.333 563.918 326.494 565.088 327.849 565.088C329.203 565.088 330.364 563.918 330.364 562.554C330.364 561.19 329.203 560.02 327.849 560.02ZM325.236 568.694C325.236 567.232 326.397 566.062 327.849 566.062C329.3 566.062 330.461 567.232 330.461 568.694C330.461 570.155 329.3 571.325 327.849 571.325C326.397 571.325 325.236 570.155 325.236 568.694ZM327.849 572.202C326.494 572.202 325.333 573.371 325.333 574.736C325.333 576.1 326.494 577.27 327.849 577.27C329.203 577.27 330.364 576.1 330.364 574.736C330.364 573.371 329.203 572.202 327.849 572.202ZM331.042 568.694C331.042 567.037 332.396 565.77 333.944 565.77C335.493 565.77 336.75 567.037 336.847 568.694C336.847 570.35 335.589 571.617 333.944 571.617C332.3 571.617 331.042 570.253 331.042 568.694ZM315.948 560.605C314.883 560.605 314.013 561.482 314.013 562.554C314.013 563.626 314.883 564.503 315.948 564.503C317.012 564.503 317.883 563.626 317.883 562.554C317.883 561.482 317.012 560.605 315.948 560.605ZM313.916 568.694C313.916 567.524 314.787 566.647 315.948 566.647C317.109 566.647 317.98 567.524 317.98 568.694C317.98 569.863 317.109 570.74 315.948 570.74C314.787 570.74 313.916 569.863 313.916 568.694ZM315.948 572.787C314.883 572.787 314.013 573.664 314.013 574.736C314.013 575.808 314.883 576.685 315.948 576.685C317.012 576.685 317.883 575.808 317.883 574.736C317.883 573.664 317.012 572.787 315.948 572.787ZM308.207 568.694C308.207 567.719 308.981 566.939 309.949 566.939C310.916 566.939 311.69 567.719 311.69 568.694C311.69 569.668 310.916 570.448 309.949 570.448C308.981 570.448 308.207 569.668 308.207 568.694Z" fill="#919EAB"/>
<path fill-rule="evenodd" clip-rule="evenodd" d="M391.515 566.744C390.064 565.185 388.032 564.308 385.903 564.308C383.871 564.308 381.839 565.185 380.581 566.452V556.707C380.581 556.512 380.388 556.317 380.194 556.317H378.356C378.162 556.317 377.969 556.512 377.969 556.707V572.787C377.969 578.731 381.936 581.363 385.806 581.363C389.676 581.363 393.644 578.731 393.644 572.787C393.74 570.448 392.966 568.304 391.515 566.744ZM347.2 580.486V567.427H345.265C345.072 567.427 344.878 567.232 344.878 567.037V565.185C344.878 564.99 345.072 564.795 345.265 564.795H347.2V561.287C347.2 558.656 349.329 556.414 352.038 556.414H354.07C354.263 556.414 354.457 556.609 354.457 556.804V558.656C354.457 558.851 354.263 559.046 354.07 559.046H351.941C350.78 559.046 349.813 560.02 349.813 561.384V564.795H354.07C354.263 564.795 354.457 564.99 354.457 565.185V567.037C354.457 567.232 354.263 567.427 354.07 567.427H349.813V580.486C349.813 580.681 349.619 580.875 349.426 580.875H347.587C347.394 580.875 347.2 580.681 347.2 580.486ZM359.682 558.461C358.714 558.461 357.94 559.24 357.94 560.215C357.94 561.19 358.714 561.969 359.682 561.969C360.649 561.969 361.423 561.19 361.423 560.215C361.423 559.24 360.649 558.461 359.682 558.461ZM358.714 564.893C358.521 564.893 358.327 565.088 358.327 565.283V580.583C358.327 580.778 358.521 580.973 358.714 580.973H360.553C360.746 580.973 360.94 580.778 360.94 580.583V565.283C360.94 565.088 360.746 564.893 360.553 564.893H358.714ZM397.32 565.283C397.32 565.088 397.514 564.893 397.707 564.893H399.546C399.739 564.893 399.933 565.088 399.933 565.283V580.583C399.933 580.778 399.739 580.973 399.546 580.973H397.707C397.514 580.973 397.32 580.778 397.32 580.583V565.283ZM398.578 558.461C397.611 558.461 396.836 559.24 396.836 560.215C396.836 561.19 397.611 561.969 398.578 561.969C399.546 561.969 400.32 561.19 400.32 560.215C400.32 559.24 399.546 558.461 398.578 558.461ZM417.059 579.219C417.059 579.252 417.059 579.285 417.055 579.318C417.047 579.261 417.026 579.219 416.962 579.219C416.865 579.121 416.768 579.121 416.672 579.121H416.285V579.608V579.706H416.672L417.155 580.291H416.962L416.575 579.803H416.285V580.291H416.091V578.926H416.768C416.865 578.926 416.962 579.024 416.962 579.024C417.059 579.024 417.059 579.121 417.059 579.121V579.219ZM416.672 579.706C416.785 579.706 416.865 579.673 416.912 579.625L416.672 579.706ZM416.912 579.625L416.962 579.608C417.059 579.608 417.059 579.511 417.059 579.414C417.059 579.38 417.059 579.347 417.055 579.318C417.047 579.382 417.026 579.447 416.962 579.511C416.962 579.551 416.945 579.592 416.912 579.625ZM415.317 579.608C415.317 578.926 415.898 578.342 416.575 578.342C417.252 578.342 417.833 578.926 417.833 579.608C417.833 580.291 417.252 580.875 416.575 580.875C415.898 580.875 415.317 580.291 415.317 579.608ZM416.575 580.778C415.898 580.778 415.414 580.291 415.414 579.608C415.414 578.926 415.898 578.439 416.575 578.439C417.252 578.439 417.736 578.926 417.736 579.608C417.736 580.291 417.155 580.778 416.575 580.778ZM374.195 567.037C374.195 567.232 374.002 567.427 373.808 567.427V567.329H369.938V575.905C369.938 577.27 370.809 578.147 372.067 578.147H373.712C373.905 578.147 374.099 578.342 374.099 578.536V580.388C374.099 580.583 373.905 580.778 373.712 580.778H371.776C369.164 580.778 367.326 579.024 367.326 576.295V567.427H365.391C365.197 567.427 365.003 567.232 365.003 567.037V565.185C365.003 564.99 365.197 564.795 365.391 564.795H367.326V558.948C367.326 558.753 367.519 558.558 367.713 558.558H369.551C369.745 558.558 369.938 558.753 369.938 558.948V564.795H373.808C374.002 564.795 374.195 564.99 374.195 565.185V567.037ZM412.318 567.427C412.511 567.427 412.705 567.232 412.705 567.037V565.185C412.705 564.99 412.511 564.795 412.318 564.795H408.447V558.948C408.447 558.753 408.254 558.558 408.06 558.558H406.222C406.028 558.558 405.835 558.753 405.835 558.948V564.795H403.9C403.706 564.795 403.513 564.99 403.513 565.185V567.037C403.513 567.232 403.706 567.427 403.9 567.427H405.835V576.295C405.835 579.024 407.673 580.778 410.286 580.778H412.221C412.414 580.778 412.608 580.583 412.608 580.388V578.536C412.608 578.342 412.414 578.147 412.221 578.147H410.479C409.221 578.147 408.351 577.27 408.351 575.905V567.329H412.318V567.427ZM380.581 572.884C380.581 575.808 382.033 578.926 385.903 578.926C389.773 578.926 391.128 575.808 391.225 572.884C391.225 569.376 389.096 566.939 385.903 566.939C382.71 566.939 380.581 569.278 380.581 572.884Z" fill="#919EAB"/>
<path d="M247.83 446.255H251.353V455H253.213V446.255H256.736V444.497H247.83V446.255ZM257.952 447.134V455H259.754V451.162C259.754 449.543 260.567 448.796 261.893 448.796C262.134 448.796 262.369 448.818 262.625 448.855L262.676 447.119C262.449 447.075 262.244 447.053 262.017 447.053C261.036 447.053 260.171 447.412 259.754 448.577V447.134H257.952ZM270.931 455V447.134H269.129V451.565C269.129 452.664 268.462 453.506 267.378 453.506C266.441 453.506 266.009 452.854 266.009 451.829V447.134H264.207V452.415C264.207 454.048 265.137 455.117 266.792 455.117C268.016 455.117 268.719 454.524 269.129 453.755V455H270.931ZM279.529 449.177C279.214 447.91 278.145 446.987 276.211 446.987C274.256 446.987 272.996 447.925 272.996 449.5C272.996 451.272 274.615 451.521 275.984 451.726C276.988 451.88 277.881 452.004 277.881 452.729C277.881 453.286 277.354 453.674 276.468 453.674C275.538 453.674 274.82 453.242 274.585 452.393L272.894 452.825C273.311 454.26 274.688 455.117 276.438 455.117C278.387 455.117 279.676 454.048 279.676 452.473C279.676 450.701 278.042 450.503 276.673 450.32C275.655 450.181 274.776 450.063 274.776 449.331C274.776 448.811 275.215 448.438 276.146 448.438C277.12 448.438 277.647 448.855 277.859 449.602L279.529 449.177ZM285.835 447.134H283.953V444.812L282.151 445.317V447.134H280.716V448.738H282.151V452.935C282.151 454.626 283.089 455.117 284.488 455.117C284.971 455.117 285.499 455.051 285.975 454.934L285.894 453.455C285.579 453.506 285.286 453.535 285.052 453.535C283.953 453.535 283.953 452.854 283.953 452.466V448.738H285.835V447.134ZM294.463 450.605C294.463 448.386 293.138 446.987 290.97 446.987C288.67 446.987 287.234 448.569 287.234 451.104C287.234 453.513 288.523 455.117 290.933 455.117C292.669 455.117 293.79 454.275 294.354 453.11L292.779 452.554C292.486 453.103 291.973 453.601 290.992 453.601C289.732 453.601 289.102 452.744 289.043 451.675H294.463V450.605ZM290.94 448.503C291.944 448.503 292.61 449.045 292.647 450.334H289.051C289.175 449.258 289.805 448.503 290.94 448.503ZM303.436 455V444.255H301.634V448.35C301.187 447.427 300.374 446.987 299.239 446.987C297.056 446.987 295.906 448.65 295.906 451.06C295.906 453.447 297.034 455.117 299.268 455.117C300.374 455.117 301.202 454.707 301.663 453.689V455H303.436ZM299.678 453.579C298.433 453.579 297.708 452.649 297.708 451.052C297.708 449.441 298.44 448.525 299.678 448.525C300.909 448.525 301.634 449.441 301.634 451.052C301.634 452.649 300.916 453.579 299.678 453.579ZM309.603 455H311.375V453.689C311.844 454.707 312.664 455.117 313.77 455.117C316.004 455.117 317.132 453.455 317.132 451.06C317.132 448.65 315.989 446.987 313.799 446.987C312.664 446.987 311.858 447.427 311.404 448.35V444.255H309.603V455ZM313.367 453.579C312.122 453.579 311.404 452.649 311.404 451.052C311.404 449.441 312.137 448.525 313.367 448.525C314.598 448.525 315.33 449.441 315.33 451.052C315.33 452.649 314.612 453.579 313.367 453.579ZM324.112 447.134L322.193 452.876L320.193 447.134H318.238L321.241 454.905C320.962 455.703 320.596 456.135 319.747 456.135C319.446 456.135 319.168 456.077 318.831 455.996L318.648 457.512C319.124 457.637 319.585 457.717 320.04 457.717C321.68 457.717 322.5 456.794 322.911 455.681L326.045 447.134H324.112Z" fill="#919EAB"/>
<path d="M115.312 196.459C116.381 196.459 117.248 195.592 117.248 194.523C117.248 193.454 116.381 192.587 115.312 192.587C114.243 192.587 113.377 193.454 113.377 194.523C113.377 195.592 114.243 196.459 115.312 196.459Z" fill="#BFD9FF"/>
<path d="M321.403 326.062C322.472 326.062 323.339 325.196 323.339 324.126C323.339 323.057 322.472 322.191 321.403 322.191C320.334 322.191 319.467 323.057 319.467 324.126C319.467 325.196 320.334 326.062 321.403 326.062Z" fill="#BFD9FF"/>
<path d="M393.121 90.6043C394.19 90.6043 395.057 89.7376 395.057 88.6685C395.057 87.5994 394.19 86.7327 393.121 86.7327C392.052 86.7327 391.185 87.5994 391.185 88.6685C391.185 89.7376 392.052 90.6043 393.121 90.6043Z" fill="#BFD9FF"/>
<path d="M178.579 259.868C179.57 259.868 180.373 259.064 180.373 258.074C180.373 257.083 179.57 256.279 178.579 256.279C177.588 256.279 176.785 257.083 176.785 258.074C176.785 259.064 177.588 259.868 178.579 259.868Z" fill="#BFD9FF"/>
<path d="M437.409 376.676H281.46C269.987 376.676 261.771 365.581 265.171 354.58L292.791 265.533L308.136 216.006C311.96 203.683 308.136 190.368 298.504 181.775C291.469 175.449 285.379 168.036 280.61 159.821C272.725 146.364 268.24 130.642 268.24 113.928C268.24 64.0698 308.278 23.5599 357.947 22.7573C408.561 21.9547 449.873 61.9452 450.629 112.559C451.054 140.132 439.203 164.967 420.176 181.964C410.638 190.51 406.908 203.824 410.733 216.1L453.698 354.674C457.05 365.533 448.882 376.676 437.409 376.676Z" fill="#131415"/>
<path d="M325 399.968C281.002 399.968 260.896 347.947 209.041 353.013C193.488 354.539 176.123 328.821 169.031 319.145C157.226 303.039 126 309.566 126 328.14V400H325V399.968Z" fill="url(#paint0_linear)"/>
<path d="M0 399.97C35.3756 399.97 51.5408 351.418 93.2334 356.146C105.738 357.57 119.7 333.567 125.402 324.535C134.894 309.503 160 315.595 160 332.93V400H0V399.97Z" fill="url(#paint1_linear)"/>
<path d="M386 400C424.128 400 437.746 351.085 457.908 356.637C469.636 359.871 477.367 351.479 484.659 343.916C490.589 337.796 501 341.949 501 350.429V399.956L386 400Z" fill="url(#paint2_linear)"/>
<path d="M488.415 341.499C508.572 334.685 525.862 399.964 563.969 400L449 399.946L488.415 341.499Z" fill="url(#paint3_linear)"/>
<path d="M208.702 199.481L204.217 209.348C201.195 215.958 193.405 218.839 186.842 215.817C180.893 213.078 177.918 206.468 179.665 200.33L181.601 193.343" fill="#131415"/>
<path d="M181.553 193.39L197.229 137.347C198.267 133.617 200.628 130.642 203.65 128.801L204.783 128.14L264.178 91.643C272.724 86.4022 283.914 89.0462 289.202 97.592C294.443 106.138 291.799 117.328 283.253 122.616L223.857 159.112L231.412 149.858L208.749 199.528" fill="url(#paint4_linear)"/>
<path d="M411.535 134.372C409.127 122.899 397.843 115.534 386.37 117.941L363.329 122.805C362.479 122.852 361.676 122.993 360.827 123.135C359.882 123.324 358.985 123.56 358.135 123.89L221.119 152.738L220.978 152.03C213.707 116.242 178.626 93.0123 142.838 100.33C125.51 103.872 110.543 113.928 100.817 128.706C91.0437 143.484 87.5971 161.143 91.1382 178.517L99.9673 221.813C103.508 239.141 113.565 254.108 128.343 263.834C139.297 271.105 151.903 274.835 164.793 274.835C169.231 274.835 173.716 274.41 178.154 273.466C195.482 269.924 210.449 259.868 220.175 245.09C229.948 230.312 233.395 212.653 229.854 195.279L229.665 194.287L348.645 169.216L351.997 185.647C354.028 195.703 362.904 202.644 372.772 202.644C374.188 202.644 375.605 202.502 377.021 202.219C388.541 199.858 395.954 188.669 393.593 177.148L390.194 160.434L395.199 159.396C406.624 157.082 413.943 145.845 411.535 134.372ZM184.67 221.671C181.176 226.959 175.794 230.595 169.608 231.87C163.376 233.144 157.049 231.917 151.761 228.423C146.473 224.929 142.838 219.547 141.563 213.362L132.734 170.066C131.459 163.834 132.687 157.507 136.181 152.219C139.675 146.931 145.057 143.296 151.242 142.021C152.847 141.69 154.405 141.549 156.011 141.549C167.059 141.549 177.021 149.339 179.287 160.576L188.116 203.872C189.391 210.057 188.164 216.383 184.67 221.671Z" fill="#AB197D"/>
<path d="M416.681 132.72C414.273 121.246 402.989 113.881 391.516 116.289L226.266 151.086L226.124 150.378C218.853 114.589 183.773 91.3597 147.985 98.678C130.657 102.219 115.69 112.276 105.964 127.054C96.1903 141.832 92.7437 159.49 96.2848 176.865L105.114 220.16C108.655 237.488 118.712 252.455 133.49 262.181C144.443 269.452 157.05 273.182 169.939 273.182C174.377 273.182 178.863 272.757 183.301 271.813C200.628 268.272 215.595 258.215 225.322 243.437C235.095 228.659 238.542 211.001 235.001 193.626L234.812 192.635L353.792 167.564L357.144 183.994C359.174 194.051 368.051 200.991 377.918 200.991C379.335 200.991 380.751 200.85 382.168 200.567C393.688 198.206 401.101 187.016 398.74 175.496L395.34 158.782L400.345 157.743C411.771 155.477 419.089 144.24 416.681 132.72ZM189.816 220.066C186.323 225.354 180.94 228.99 174.755 230.264C168.523 231.539 162.196 230.312 156.908 226.818C151.62 223.324 147.984 217.941 146.71 211.756L137.881 168.461C136.606 162.228 137.833 155.902 141.327 150.614C144.821 145.326 150.204 141.69 156.389 140.415C157.994 140.085 159.552 139.943 161.157 139.943C172.205 139.943 182.168 147.734 184.434 158.971L193.263 202.266C194.538 208.451 193.31 214.778 189.816 220.066Z" fill="url(#paint5_linear)"/>
<mask id="mask1" mask-type="alpha" maskUnits="userSpaceOnUse" x="294" y="50" width="33" height="34">
<ellipse cx="310.189" cy="67.0444" rx="15.8874" ry="16.0529" fill="#C4C4C4"/>
</mask>
<g mask="url(#mask1)">
<ellipse cx="310.189" cy="67.0444" rx="15.8874" ry="16.0529" fill="white"/>
<path d="M322.402 64.4297L320.416 64.5951C317.371 64.8599 314.856 67.0775 314.227 70.0895L313.002 75.7494L308.402 75.0543L299.399 79.8206C297.314 80.9128 294.864 81.0783 292.68 80.2839L286.887 78.1656L297.148 57.0486C300.292 50.5944 307.971 47.7479 314.558 50.6275L317.735 52.0176C322.535 54.136 324.62 59.7296 322.402 64.4297Z" fill="#4C7DE0"/>
</g>
<path d="M312.969 62.4768L322.27 65.224C324.653 65.9191 327.169 64.8599 328.36 62.6754L329.42 60.6895C330.909 57.9423 329.684 54.5331 326.805 53.3416C325.712 52.8782 324.521 52.812 323.362 53.143L319.755 54.169L312.969 62.4768Z" fill="#4C7DE0"/>
<path d="M309.063 76.7755C308.137 76.5438 307.541 75.5839 307.773 74.6572L309.03 69.56C309.262 68.6332 310.222 68.0374 311.149 68.2691C312.075 68.5008 312.671 69.4607 312.439 70.3874L311.182 75.4846C310.983 76.4114 310.023 77.0072 309.063 76.7755Z" fill="white"/>
<path d="M309.174 155.335C313.376 137.441 300.911 135.316 308.466 124.457C316.02 113.551 314.556 95.373 300.817 92.1624C290.194 89.6601 289.58 89.0463 285.094 88.0076C270.977 84.6553 257.852 96.7422 258.702 111.237C258.702 111.237 259.079 114.542 257.993 118.555C256.907 122.568 245.576 126.204 242.696 138.527L309.174 155.335Z" fill="white"/>
<path d="M186.748 397.073L159.93 347.498C158.513 344.901 159.458 341.643 162.007 340.179L166.823 333.994L184.859 368.177L191.847 395.09C192.602 398.253 188.258 399.953 186.748 397.073Z" fill="#131415"/>
<path fill-rule="evenodd" clip-rule="evenodd" d="M242.697 138.527C242.429 139.667 242.289 140.91 242.279 142.221L223.605 252.731L166.823 333.994L184.528 367.564C189.737 363.018 194.883 357.775 199.909 352.654L199.909 352.654C202.4 350.117 204.861 347.609 207.286 345.231C214.557 338.055 221.592 330.689 228.579 323.277C229.728 322.033 230.882 320.795 232.036 319.557L232.037 319.556C234.345 317.081 236.653 314.605 238.919 312.087L244.066 306.468L249.117 300.803C255.822 293.201 262.432 285.552 268.995 277.809C270.647 275.873 271.922 273.418 272.583 270.774L273.48 267.092C275.746 257.932 277.824 248.772 279.807 239.566C280.166 237.859 280.521 236.153 280.873 234.447L288.353 254.013L292.744 265.534L293.735 268.13L295.105 271.671L296.332 275.26L298.787 282.436L332.64 376.676H370.223C369.892 374.505 369.562 372.381 369.232 370.257L369.231 370.255C368.622 366.14 367.889 362.056 367.158 357.978C366.983 357.003 366.808 356.027 366.634 355.052C364.84 344.948 362.81 334.891 360.685 324.882C356.483 304.863 351.715 284.939 346.615 265.203L344.68 257.79L343.688 254.108L342.602 250.425L340.336 243.154C340.191 242.691 340.046 242.227 339.9 241.762C339.289 239.804 338.671 237.828 338.022 235.883L335.662 228.612C335.26 227.408 334.847 226.204 334.434 225C334.021 223.796 333.608 222.592 333.207 221.388C332.063 217.958 330.848 214.553 329.63 211.137C329.137 209.756 328.644 208.374 328.155 206.988C324.661 197.403 321.025 187.913 317.154 178.518C314.265 171.592 311.299 164.691 308.068 157.893C308.699 156.69 309.17 155.467 309.458 154.249L305.888 153.409C305.431 152.49 304.969 151.575 304.5 150.661L300.572 152.157L242.697 138.527Z" fill="url(#paint6_linear)"/>
<path d="M365.076 198.348L373.764 205.288C379.429 209.821 380.326 218.083 375.841 223.749C371.733 228.895 364.557 230.123 359.033 226.912L352.092 222.899" fill="white"/>
<path d="M352.092 222.946L300.722 193.296C296.709 190.982 294.112 187.11 293.31 182.861L293.074 181.539L281.931 120.821C280.137 110.954 286.652 101.464 296.52 99.6695C306.388 97.8753 315.878 104.391 317.672 114.259L328.815 174.976L321.166 163.267L365.075 198.395" fill="url(#paint7_linear)"/>
<path d="M277.729 87.5826L283.631 80.0283L303.886 93.2011L277.729 87.5826Z" fill="white"/>
<path opacity="0.4" d="M332.687 376.676L323.338 350.661H365.359L370.222 376.676H332.687Z" fill="#871FFF"/>
<path d="M346.804 397.97H156.389V399.906H346.804V397.97Z" fill="#C2C4CC"/>
<path d="M505.569 182.056C488.065 182.056 473.127 193.106 467.252 208.654C465.476 207.95 463.543 207.558 461.518 207.558C452.87 207.558 445.86 214.617 445.86 223.324H464.583H477.176H546.555C546.555 200.532 528.205 182.056 505.569 182.056ZM566.672 158.166C565.266 158.166 563.962 158.606 562.886 159.355C560.959 155.879 557.272 153.527 553.038 153.527C548.754 153.527 545.029 155.933 543.121 159.476C540.858 152.416 534.279 147.309 526.514 147.309C516.877 147.309 509.066 155.174 509.066 164.877H541.765H543.963H560.006H564.311H573.338C573.338 161.171 570.354 158.166 566.672 158.166Z" fill="url(#paint8_linear)"/>
<path d="M223.302 12.6374H217.565C217.565 9.97112 219.713 7.80939 222.362 7.80939C222.984 7.80939 223.576 7.92934 224.122 8.14578C225.922 3.3846 230.498 0 235.861 0C241.45 0 246.184 3.67549 247.813 8.75446C249.186 6.20464 251.867 4.47305 254.951 4.47305C259.433 4.47305 263.065 8.12855 263.065 12.6381H248.42H246.838H227.16L223.302 12.6374ZM207.126 39.6651C203.809 39.6651 200.636 40.2854 197.714 41.4146C191.578 35.4491 183.225 31.7771 174.02 31.7771C155.182 31.7771 139.911 47.1443 139.911 66.1001H180.856H208.126H233.395C233.396 51.5001 221.634 39.6651 207.126 39.6651Z" fill="url(#paint9_linear)"/>
<defs>
<linearGradient id="paint0_linear" x1="225.5" y1="326.104" x2="225.5" y2="397.015" gradientUnits="userSpaceOnUse">
<stop stop-color="#FFC4AD"/>
<stop offset="0.9958" stop-color="white"/>
</linearGradient>
<linearGradient id="paint1_linear" x1="79.9999" y1="331.031" x2="79.9999" y2="397.214" gradientUnits="userSpaceOnUse">
<stop stop-color="#FFC4AD"/>
<stop offset="0.9958" stop-color="white"/>
</linearGradient>
<linearGradient id="paint2_linear" x1="443.5" y1="351.559" x2="443.5" y2="398.055" gradientUnits="userSpaceOnUse">
<stop stop-color="#C0DDFC"/>
<stop offset="0.9958" stop-color="white"/>
</linearGradient>
<linearGradient id="paint3_linear" x1="506.5" y1="351.559" x2="506.5" y2="398.055" gradientUnits="userSpaceOnUse">
<stop stop-color="#C0DDFC"/>
<stop offset="0.9958" stop-color="white"/>
</linearGradient>
<linearGradient id="paint4_linear" x1="186.91" y1="194.693" x2="287.601" y2="194.693" gradientUnits="userSpaceOnUse">
<stop stop-color="#7FC6F4"/>
<stop offset="1" stop-color="#8728FB"/>
</linearGradient>
<linearGradient id="paint5_linear" x1="110.572" y1="265.494" x2="404.608" y2="265.494" gradientUnits="userSpaceOnUse">
<stop stop-color="#D5279B"/>
<stop offset="1" stop-color="#FEA18C"/>
</linearGradient>
<linearGradient id="paint6_linear" x1="262.432" y1="153.211" x2="346.907" y2="326.142" gradientUnits="userSpaceOnUse">
<stop stop-color="#8728FB"/>
<stop offset="1" stop-color="#FFA58B"/>
</linearGradient>
<linearGradient id="paint7_linear" x1="292.413" y1="132.672" x2="361.83" y2="217.543" gradientUnits="userSpaceOnUse">
<stop stop-color="#7FC6F4"/>
<stop offset="1" stop-color="#8728FB"/>
</linearGradient>
<linearGradient id="paint8_linear" x1="452.049" y1="220" x2="568.38" y2="220" gradientUnits="userSpaceOnUse">
<stop stop-color="#D5279B"/>
<stop offset="1" stop-color="#FEA18C"/>
</linearGradient>
<linearGradient id="paint9_linear" x1="145.89" y1="63.21" x2="258.275" y2="63.21" gradientUnits="userSpaceOnUse">
<stop stop-color="#8728FB"/>
<stop offset="1" stop-color="#FFA58B"/>
</linearGradient>
</defs>
</svg>
