<?xml version="1.0" encoding="utf-8"?>
<!-- Generator: Adobe Illustrator 23.0.1, SVG Export Plug-In . SVG Version: 6.00 Build 0)  -->
<svg version="1.1" id="Ai" xmlns="http://www.w3.org/2000/svg" xmlns:xlink="http://www.w3.org/1999/xlink" x="0px" y="0px"
	 viewBox="0 0 1911 1390" style="enable-background:new 0 0 1911 1390;" xml:space="preserve">
<style type="text/css">
	.st0{fill:#747C7C;stroke:#000000;stroke-miterlimit:10;}
	.st1{fill:#F2FFFF;stroke:#000000;stroke-miterlimit:10;}
	.st2{fill:none;stroke:#000000;stroke-miterlimit:10;}
	.st3{fill:#A39393;stroke:#000000;stroke-miterlimit:10;}
	.st4{fill:#9E674C;}
	.st5{fill:#C1BDBB;}
	.st6{fill:#020407;}
	.st7{fill:#AC704D;}
	.st8{fill:#A9AF90;stroke:#000000;stroke-miterlimit:10;}
	.st9{fill:#808275;stroke:#000000;stroke-miterlimit:10;}
	.st10{opacity:0.26;}
	.st11{clip-path:url(#SVGID_2_);}
	.st12{fill:url(#SVGID_3_);}
	.st13{fill:none;stroke:#000000;stroke-width:4;stroke-miterlimit:10;}
	.st14{fill:#BC79A9;stroke:#000000;stroke-miterlimit:10;}
	.st15{fill:url(#SVGID_4_);}
	.st16{fill:#B5B753;stroke:#000000;stroke-miterlimit:10;}
	.st17{fill:none;stroke:#000000;stroke-width:2;stroke-miterlimit:10;}
	.st18{fill:#99BFA3;stroke:#000000;stroke-width:2;stroke-miterlimit:10;}
	.st19{fill:#99BFA3;stroke:#000000;stroke-width:0.5;stroke-miterlimit:10;}
	.st20{fill:none;stroke:#000000;stroke-width:0.5;stroke-miterlimit:10;}
	.st21{fill:#473556;stroke:#000000;stroke-miterlimit:10;}
	.st22{fill:none;stroke:url(#SVGID_5_);stroke-width:3;stroke-miterlimit:10;}
	.st23{fill:none;stroke:url(#SVGID_6_);stroke-width:3;stroke-miterlimit:10;}
	.st24{fill:none;stroke:url(#SVGID_7_);stroke-width:3;stroke-miterlimit:10;}
	.st25{fill:url(#SVGID_8_);}
	.st26{fill:#7326C4;stroke:#000000;stroke-miterlimit:10;}
	.st27{fill:#2D0E32;}
	.st28{fill:#A9AF90;}
	.st29{fill:#2E3249;}
	.st30{opacity:0.4;fill:#0C1439;}
	.st31{fill:#3E4166;}
	.st32{fill:#090D16;}
	.st33{fill:none;stroke:#000000;stroke-width:3;stroke-miterlimit:10;}
	.st34{fill:#0D1539;}
	.st35{fill:#DDD4D4;}
	.st36{fill:#10151C;}
	.st37{fill:#2A2233;stroke:#000000;stroke-miterlimit:10;}
	.st38{fill:#0D0D3A;stroke:#000000;stroke-miterlimit:10;}
	.st39{fill:#0C1439;}
	.st40{fill:#4F3E60;stroke:#000000;stroke-miterlimit:10;}
	.st41{fill:#468080;}
	.st42{fill:#F8A255;}
	.st43{fill:#5F75B8;}
	.st44{fill:#F3B19B;}
	.st45{fill:#82ADFF;stroke:#000000;stroke-miterlimit:10;}
	.st46{fill:#28387B;}
</style>
<ellipse class="st0" cx="619.4" cy="1277.9" rx="36.1" ry="2.9"/>
<g id="invitation">
	<path id="invitation_x5F_1_1_" class="st1" d="M666.4,568.2c0,0,33.4-78.4,34.7-88.7c0,0,81,37.3,178.7,7.7L830.7,614
		c-2.2,5.7-7.7,9.4-13.8,9.3c-43.9-0.9-100-1.1-108.1-1.1c-33.5,0-55.3-9-50.2-27C663.8,577.2,666.4,568.2,666.4,568.2z"/>
	<path class="st2" d="M698.7,486.8c0,0,38.6,66.9,69.4,61.7c0,0,43.7,7.7,110.6-61.7"/>
	
		<ellipse transform="matrix(0.1229 -0.9924 0.9924 0.1229 127.5756 1248.6591)" class="st3" cx="770.2" cy="552.2" rx="10.3" ry="19.3"/>
</g>
<path class="st4" d="M629,566.6c5-3.7,12.3-8.4,21.8-12.5c1.5-0.6,16.6-6.9,18-4.5c0.5,0.9-0.6,3.1-7.5,8.9
	c-0.4,0.1-0.6,0.2-0.6,0.1c0-0.1,49-16.1,53.6-7.4c1.3,2.5-1.4,6.2-4.7,10.7c-4.3,6-10.9,12.1-28.6,20c-7.3,3.3-17.2,7.2-29.4,10.5
	c-13.8,0.9-27.6,1.8-41.5,2.7l-2.8-15.4C614.5,575.4,621.8,571,629,566.6z"/>
<path class="st5" d="M1428.4,1264.3c0,17.7-105.3,13.1-235.2,13.1s-235.2,4.6-235.2-13.1s105.3-32.1,235.2-32.1
	S1428.4,1246.5,1428.4,1264.3z"/>
<path class="st6" d="M1304.4,1158.3l-36,9.8l9.7,52c-11.9,12.3-23,18.7-30.6,22.3c-22.4,10.4-43.5,9.2-49.9,27.7
	c-1.1,3.1,0.8,5.6,0.7,7.2c28.4-3.4,66.9-7.9,95.2-11.3c1.4-0.2,0.8,6.4,2.2,6.2c7.2-0.9,18.9-2.3,19.7-3.1c0.5-0.5,0.8-1.1,0.8-1.1
	c0,0,0.3-0.5,0.4-1.2c0.2-1-1.4-13.7-4-31.1L1304.4,1158.3z"/>
<path id="_x32__4_" class="st7" d="M1188.7,732.3c-11.8,13.3-53.2,28.9-51.1,33.4c1.2,2.6,10.3,1,11.9,4.5c0.5,1,0.4,2.9-11.3,16.1
	c-3.6,4-6.4,7-5.6,10.8c0.1,0.6,0.6,3.2,2.6,4.5c2.5,1.6,5.6,0.2,18.1-5.1c9.9-4.2,13-5.5,17.1-8.7c2-1.6,3.5-3,5-4.5
	c4.1-4,6.7-7.6,9.6-11.1c7.3-9,19-21,37.3-33.1L1188.7,732.3z"/>
<polygon class="st8" points="1464,356.4 1443.2,353.8 1454.4,324 "/>
<path class="st9" d="M1390.4,1267.7l62.9,0.2l2.8-21.7c0,0,31.4-164.1,28-243.2c-4-85.2,63-159.5,51-244.3c-0.5-6-2.1-11.1-2.7-16.2
	c-5.7-27.4-18.2-45.4-50.6-40.1c-20.2,3.3-0.3,7.6-6.5,35c-8.5,43.2-53.1,277.4-53.1,277.4l7.7,197.2l-0.8-2.1c0,0,0.7,3.1,1.5,6.1
	l1.2,22.1c-1.6,6.9-7,12.4-14,12.8C1394.5,1254.1,1391.4,1267.8,1390.4,1267.7z"/>
<g class="st10">
	<g>
		<defs>
			<ellipse id="SVGID_1_" cx="1789.4" cy="102.1" rx="99.6" ry="74.6"/>
		</defs>
		<clipPath id="SVGID_2_">
			<use xlink:href="#SVGID_1_"  style="overflow:visible;"/>
		</clipPath>
		<g class="st11">
		</g>
	</g>
</g>
<linearGradient id="SVGID_3_" gradientUnits="userSpaceOnUse" x1="23.2817" y1="1095.3057" x2="1588.2284" y2="1095.3057" gradientTransform="matrix(1 0 0 -1 0 1390)">
	<stop  offset="0" style="stop-color:#E398F4"/>
	<stop  offset="1.319421e-03" style="stop-color:#E399F4"/>
	<stop  offset="7.916365e-02" style="stop-color:#EBB5F7"/>
	<stop  offset="0.1472" style="stop-color:#EFC6F9"/>
	<stop  offset="0.1976" style="stop-color:#F1CCFA"/>
	<stop  offset="0.2465" style="stop-color:#F5DAFB"/>
	<stop  offset="0.3313" style="stop-color:#F9EBFD"/>
	<stop  offset="0.4368" style="stop-color:#FDF6FE"/>
	<stop  offset="0.5848" style="stop-color:#FEFDFF"/>
	<stop  offset="0.9958" style="stop-color:#FFFFFF"/>
</linearGradient>
<path class="st12" d="M210.2,190.5h-26.2c0-12.2,9.8-22.1,21.9-22.1c2.8,0,5.5,0.5,8,1.5c8.2-21.8,29.1-37.3,53.6-37.3
	c25.5,0,47.2,16.8,54.6,40c6.3-11.7,18.5-19.6,32.6-19.6c20.5,0,37.1,16.7,37.1,37.4h-66.9h-7.2h-89.9L210.2,190.5z M330.4,335.8
	c-15.2,0-29.7,2.8-43,8c-28-27.3-66.2-44.1-108.3-44.1c-86.1,0-155.8,70.3-155.8,157h187.1H335h115.5
	C450.4,389.9,396.7,335.8,330.4,335.8z"/>
<path class="st13" d="M728.5,1056.2c-3.6,18.4-9.1,40.4-17.5,64.5c-5.5,15.6-12.2,32.2-20.5,49.3c-22.8,47.1-49.6,82.4-71.1,106.7"
	/>
<path class="st14" d="M694.1,991.3l-0.9-4.1c-1.9-8.8,7-16.1,15.3-12.5h0l0.8-3c1.8-7.1,11-8.9,15.4-3.2l0,0l2.8-3.6
	c4.7-5.9,13.8-4.9,17.2,1.8l0,0l0,0c5.8-5.4,15.2-3,17.6,4.5l0,0.1l0,0c6.1-4,14.3-0.8,16.1,6.2l0.4,1.4l1.2,3.1
	c7.6,2.3,9.8,8.1,5.7,14.9l-0.9,1.6l2.1,2.2c6,6.3,6.2,16.2,0.3,22.6v0l0.3,1.1c2.1,8.5-1.3,17.4-8.6,22.2l0,0l0,0
	c0,8-7.8,13.6-15.4,11.1l-2-0.7l-4.6,5.5c-3.5,4.2-9.2,5.8-14.4,4.1l-7.1-2.4v0c-6.7,6.2-17.5,3.8-20.9-4.6l-1-2.5l-0.5,0.2
	c-7.9,3.1-16.4-2.7-16.4-11.1l0,0h0c-8.5,0.9-15.1-7.4-12.2-15.5l1.1-3.1l-3.3-2c-6.6-4-5.8-13.8,1.4-16.6l0,0l-0.5-1
	C678.5,1000,685,990.3,694.1,991.3L694.1,991.3z"/>
<g id="backgroud">
	
		<linearGradient id="SVGID_4_" gradientUnits="userSpaceOnUse" x1="562.0785" y1="63.8475" x2="21.58" y2="366.2304" gradientTransform="matrix(1 0 0 -1 0 1390)">
		<stop  offset="0" style="stop-color:#FFFFFF"/>
		<stop  offset="0.1396" style="stop-color:#FFFDFB"/>
		<stop  offset="0.2738" style="stop-color:#FFF8F0"/>
		<stop  offset="0.4058" style="stop-color:#FFEEDC"/>
		<stop  offset="0.5366" style="stop-color:#FFE1C1"/>
		<stop  offset="0.6664" style="stop-color:#FFD09E"/>
		<stop  offset="0.7956" style="stop-color:#FFBC73"/>
		<stop  offset="0.9218" style="stop-color:#FFA441"/>
		<stop  offset="1" style="stop-color:#FF931E"/>
	</linearGradient>
	<path class="st15" d="M5,1251.1c-4.8-24,9.7-52.8,95.8-65.1c15.6-2.2,29-12.1,35.8-26.3c12.1-25.2,38.1-63.8,88.8-78.8
		c4.4-1.3,8.5-3.3,12.4-5.8c31.9-21,80.5-210.6,180.2-61c13.5,20.3,21.7,43.7,46,44.6c27.5,1,58.1,14.4,81.9,57.3
		c8.5,15.4,86.3,171.6,77,171.8c-80.6,1.1-464.5-0.9-571,0.5C29.4,1288.4,9.4,1273.1,5,1251.1z"/>
</g>
<path class="st16" d="M778.8,1016c0,22.8-18.5,41.2-41.2,41.2s-41.2-18.5-41.2-41.2c0-6.4,1.5-12.5,4.1-17.9
	c6.7-13.8,20.8-23.4,37.2-23.4C760.3,974.7,778.8,993.2,778.8,1016z"/>
<path class="st17" d="M711,1120.7c4.7,0.7,14.2,1.6,25.3-2.1c10.3-3.5,17-9.4,20.3-12.7"/>
<path class="st18" d="M811.9,1080.4c5.6-2.8-42.8,10.3-52.6,15.1c-9.8,4.8-15.9,12.5-13.6,17.3c2.3,4.7,12.2,4.7,22-0.1
	S807.1,1082.7,811.9,1080.4z"/>
<path class="st18" d="M811.2,1080.4c5.6-2.8-44.8,2.5-54.6,7.3s-13.8,20.3-11.5,25c2.3,4.7,13.9,10.8,23.7,6
	C778.7,1113.9,806.5,1082.7,811.2,1080.4z"/>
<path class="st19" d="M779.6,1097.4"/>
<g>
	<path class="st19" d="M752.6,1110.1c0.8-1.1,2.3-3.3,2.9-6.5c0.4-2.3,0.1-4.2-0.2-5.4"/>
	<path class="st19" d="M760,1095.2c0.3,1.1,0.8,3.2,0.4,5.8c-0.4,2.8-1.7,4.8-2.4,5.8"/>
	<path class="st19" d="M764.5,1105.5c0.5-1.2,1.1-3.3,1.1-6c0-2.3-0.6-4.2-1.1-5.3"/>
	<path class="st19" d="M768.8,1102c0.8-2,1-3.5,1-4.5c0-0.2,0-0.4,0-0.5c-0.1-1.8-0.6-3.2-1-4.1"/>
	<path class="st19" d="M774.5,1099.7c0.3-0.9,0.7-2.1,0.8-3.7c0.1-2.2-0.4-4-0.8-5"/>
	<path class="st19" d="M778.8,1097.4c0.3-0.8,0.6-1.8,0.8-3.1c0.3-2.5-0.3-4.5-0.8-5.5"/>
	<path class="st19" d="M783.5,1095.8c0.3-0.9,0.7-2.3,0.6-4.1c-0.1-1.3-0.4-2.3-0.6-3"/>
</g>
<g>
	<path class="st20" d="M751.7,1117.6c0.5-0.8,1.3-2.2,1.7-4.1c0.3-1.4,0.3-2.6,0.2-3.5c0-0.1,0-0.3,0-0.4"/>
	<path class="st20" d="M759.2,1106.6c0.2,1.4,0.3,3.1-0.1,5.1c-0.4,2.3-1.2,4.1-1.8,5.3"/>
	<path class="st20" d="M764.6,1113.8c0.4-0.9,0.9-2.4,0.9-4.3c0-2.1-0.5-3.8-0.9-4.7"/>
	<path class="st20" d="M770.4,1111.8c0.5-1.3,1-3.3,0.9-5.9c-0.1-1.9-0.5-3.4-0.9-4.5"/>
	<path class="st20" d="M774.9,1109.2c0.4-0.8,1.1-2.5,1.1-4.8c0-2.3-0.7-4-1.1-4.9"/>
	<path class="st20" d="M779.2,1106.1c0.4-1,0.9-2.7,0.8-4.8c-0.1-1.7-0.4-3-0.8-3.9"/>
	<path class="st20" d="M783.7,1101.5c0.3-0.5,1.4-2.6,0.6-4.7c-0.1-0.3-0.3-0.6-0.6-0.9"/>
	<path class="st20" d="M789.5,1098.7c0.3-0.5,1.4-2.6,0.6-4.7c-0.1-0.3-0.3-0.6-0.6-0.9"/>
</g>
<path class="st19" d="M788.8,1092.9c0.3-0.7,0.6-1.8,0.7-3.3c0.1-1.7-0.4-3.1-0.7-3.9"/>
<path class="st19" d="M793.6,1090.7c0.1-0.6,0.2-1.3,0.2-2.2c0-1.1-0.1-2-0.2-2.6"/>
<path class="st19" d="M797.8,1087.7c0.1-0.2,0.3-0.5,0.4-0.9c0.3-1.3-0.2-2.4-0.4-2.7"/>
<path class="st19" d="M744.6,1113.4c3.9-1.6,49.4-21.8,61.1-30.9"/>
<path class="st17" d="M665,1212.7c-4.6-1.2-13.6-4.4-22.1-12.4c-7.9-7.4-11.7-15.6-13.3-19.9"/>
<path class="st18" d="M589.7,1134.5c-4-4.8,34.7,27,41.7,35.4c7,8.4,9.3,18,5.3,21.3c-4.1,3.4-13-0.7-20-9.1
	C609.7,1173.6,593,1138.5,589.7,1134.5z"/>
<path class="st18" d="M590.2,1134.7c-4-4.8,39.8,20.7,46.8,29.2s4.2,24.2,0.2,27.6c-4.1,3.4-17.1,4.1-24.1-4.3
	C606.1,1178.7,593.6,1138.8,590.2,1134.7z"/>
<path class="st19" d="M612.1,1163.3"/>
<g>
	<path class="st19" d="M631.4,1185.9c-0.3-1.3-0.8-4,0.1-7.1c0.6-2.3,1.6-3.9,2.4-4.9"/>
	<path class="st19" d="M630.9,1169.3c-0.8,0.9-2,2.6-2.7,5.2c-0.8,2.7-0.5,5-0.2,6.2"/>
	<path class="st19" d="M622.5,1176.8c0.1-1.3,0.3-3.5,1.5-5.9c1-2.1,2.3-3.5,3.2-4.4"/>
	<path class="st19" d="M620,1171.9c0-2.1,0.5-3.6,1-4.5c0.1-0.2,0.2-0.4,0.2-0.4c0.8-1.6,1.8-2.6,2.6-3.3"/>
	<path class="st19" d="M615.8,1167.4c0-0.9,0.2-2.2,0.8-3.7c0.8-2.1,2-3.5,2.8-4.2"/>
	<path class="st19" d="M612.8,1163.6c0-0.8,0.2-1.9,0.6-3.1c0.8-2.4,2.1-3.9,3-4.7"/>
	<path class="st19" d="M609.1,1160.2c0.1-0.9,0.3-2.4,1.1-4c0.6-1.1,1.3-1.9,1.8-2.5"/>
</g>
<g>
	<path class="st20" d="M629.2,1193.1c-0.2-1-0.3-2.6,0.1-4.5c0.3-1.4,0.9-2.5,1.3-3.3c0.1-0.1,0.1-0.2,0.2-0.3"/>
	<path class="st20" d="M626.9,1180c-0.7,1.2-1.5,2.7-2,4.6c-0.6,2.3-0.6,4.3-0.5,5.6"/>
	<path class="st20" d="M619,1184.3c0-1,0.2-2.6,0.9-4.3c0.8-2,2.1-3.2,2.8-3.9"/>
	<path class="st20" d="M614.6,1180.2c0.1-1.3,0.4-3.4,1.6-5.7c0.9-1.7,1.9-2.9,2.7-3.8"/>
	<path class="st20" d="M611.5,1176c0-0.9,0-2.8,0.9-4.8c0.9-2.1,2.3-3.4,3-4"/>
	<path class="st20" d="M608.9,1171.3c0.1-1.1,0.3-2.8,1.2-4.7c0.7-1.5,1.6-2.5,2.3-3.2"/>
	<path class="st20" d="M606.6,1165.3c-0.1-0.6-0.2-3,1.4-4.5c0.2-0.2,0.5-0.4,0.9-0.6"/>
	<path class="st20" d="M602.5,1160.3c-0.1-0.6-0.2-3,1.4-4.5c0.2-0.2,0.5-0.4,0.9-0.6"/>
</g>
<path class="st19" d="M605.5,1155.4c0-0.8,0.2-1.9,0.7-3.2c0.7-1.6,1.6-2.7,2.2-3.2"/>
<path class="st19" d="M602,1151.3c0.1-0.6,0.4-1.3,0.7-2.1c0.4-1,0.9-1.8,1.3-2.3"/>
<path class="st19" d="M599.5,1147c0-0.3,0-0.6,0-1c0.2-1.3,1.2-2.1,1.5-2.3"/>
<path class="st19" d="M637.4,1192.3c-2.9-3.1-36-40.2-43-53.3"/>
<path class="st17" d="M680.2,1187.8"/>
<path class="st21" d="M1317.8,1168"/>
<radialGradient id="SVGID_5_" cx="583.0037" cy="172.696" r="27.2334" gradientUnits="userSpaceOnUse">
	<stop  offset="0" style="stop-color:#E398F4"/>
	<stop  offset="0.9958" style="stop-color:#040505"/>
</radialGradient>
<path class="st22" d="M547.7,160.7l30.9,23.1c0,0,18-24.4,39.9-11.5"/>
<radialGradient id="SVGID_6_" cx="544.2945" cy="204.7317" r="13.5883" gradientUnits="userSpaceOnUse">
	<stop  offset="0" style="stop-color:#E398F4"/>
	<stop  offset="0.9958" style="stop-color:#040505"/>
</radialGradient>
<path class="st23" d="M527.4,198.7l14.8,11.1c0,0,8.6-11.7,19.2-5.5"/>
<radialGradient id="SVGID_7_" cx="686.2261" cy="184.4781" r="17.7242" gradientUnits="userSpaceOnUse">
	<stop  offset="0" style="stop-color:#E398F4"/>
	<stop  offset="0.9958" style="stop-color:#040505"/>
</radialGradient>
<path class="st24" d="M663.7,176.7l19.7,14.7c0,0,11.5-15.6,25.4-7.4"/>
<radialGradient id="SVGID_8_" cx="1425.0162" cy="115.4144" r="240.1947" gradientUnits="userSpaceOnUse">
	<stop  offset="0" style="stop-color:#CCE0F4"/>
	<stop  offset="0.1808" style="stop-color:#D2BDF6"/>
	<stop  offset="0.224" style="stop-color:#CED7F5"/>
	<stop  offset="0.3248" style="stop-color:#D994F9"/>
	<stop  offset="0.4926" style="stop-color:#E35BFD"/>
	<stop  offset="0.5674" style="stop-color:#E83FFF"/>
	<stop  offset="0.8652" style="stop-color:#0075BE"/>
</radialGradient>
<circle class="st25" cx="1463.4" cy="108.9" r="45.9"/>
<path id="_x32__2_" class="st8" d="M1441.6,634.8c-6.6,1.3-15.9,2.6-27,2.5c-22.1-0.1-31-5.5-37,0.1c-7.4,7-5,25.4,2.3,29
	c2.9,1.4,6.1,0.5,7.9-0.1c0,0,10.5-3.2,40.5-7.7c7.8-1.2,19.6-1.2,35.1,5.4L1441.6,634.8z"/>
<path class="st8" d="M1510.5,443.1c-9.9,6-26.9,30.8-29.8,9c-1-10.9,7-23.9,9.9-33.8c4-12.9,1-40.8,11.9-47.7
	c18.9-12.9,29.6-26.3,34.8,13.9c5.2,40.5,42.8,80.6,42.8,80.6c-10.9-9.9-22.9-18.9-35.8-26.9
	C1532.3,437.1,1521.4,438.1,1510.5,443.1z"/>
<path class="st8" d="M1439.4,1267.7l62.9,0.2l2.8-21.7c0,0,31.4-164.1,28-243.2c-4-85.2,63-159.5,51-244.3c-0.5-6-2.1-11.1-2.7-16.2
	c-5.7-27.4-18.2-45.4-50.6-40.1c-20.2,3.3-91-10.5-97.2,17c-8.5,43.2,37.6,295.5,37.6,295.5l7.7,197.2l-0.8-2.1c0,0,0.7,3.1,1.5,6.1
	l1.2,22.1c-1.6,6.9-7,12.4-14,12.8C1443.5,1254.1,1440.4,1267.8,1439.4,1267.7z"/>
<path class="st26" d="M1596.9,800.4c4.2-7.7,7.1-11.2,8.8-15.2c5.5-13.3,4.7-24.3,4.5-26.6c-0.4-4.4-1.3-8.3-4.3-16.9
	c-0.9-2.6-2-5.5-3.2-8.6c-0.1-3-1.9-7.6-6.1-14.3c-1.5-3.3-3.2-6.9-5-10.5c-0.2-0.4-0.4-0.8-0.5-1.1c-1.3-3-2.5-5.9-3.8-8.7
	c-4.3-9.9-8.4-19.9-12.1-29.8c-9-31.8-1-63.7,3-95.5c5-36.8,17.9-89.5,0-122.3c-11.9-21.9-46.7-47.7-73.6-32.8c-1,1-2,1-4,0
	c-11.9,9-25.9,36.8-35.8,48.7c-14.9,15.9-27.8,32.8-38.8,51.7c-10.9,19.9-2,30.8,3,51.7c12.9,52.7-15.1,125.7-12.9,159.1
	c0,0.6,0.2,1.2,0.3,1.7c-5.9,26.6-14.1,82.6-15.2,104.6c-2.4,47.9-8.4,37.1-4.8,78.9c0,0.1-4.7,50-4.7,50.2
	c-8.8,74.2-10,63.5-1.2,63.6c61.1,0.7,97.4-12.5,131.2-14.5c22.9-2,38.9,11.2,61.1,7.7c14.4-2.3-0.3-24.3,2.7-167.4
	C1585.7,842,1581.9,828.4,1596.9,800.4z"/>
<path class="st27" d="M1514.7,505.6c-0.8,27-2.5,74.2-3.2,93.9c-0.2,5.9-3.8,11.2-9,13.9c-7.1,3.7-13.5,6.2-18.7,8
	c-10.2,3.6-18.4,5.2-26.4,6.8c-12.9,2.5-22.9,3.5-27.4,3.9c-0.7,0.1-0.9,0.1-1.6,0.1c-22.2,2.5-32,34.9,8.3,34.9
	c41.8,0,64.9-8.6,74.9-9.8c7.7-1,32.8-1.4,38.5-8.4c6.8-8.7,20.7-100.2,24.7-141.4c4-41.2,3.7-62.7-16.9-71.2
	C1541.3,429.3,1515.8,470.8,1514.7,505.6z"/>
<path class="st28" d="M1514.6,383c-11.3-2.6-21.4,4.9-32.7,5.5c-43.1,2.6-31.7-77.5-13.3-101.3c18.4-23.8,38.5-26.2,57.3-4.1
	c14.2,16.8,8.4,41.5,8.4,67.6C1534.2,365.5,1528.9,378.9,1514.6,383L1514.6,383z"/>
<path class="st29" d="M1408,1252.3c-8.1,2.5-14.5,7.3-17.6,14.7l62.5-0.2l1.1-8.4C1438.3,1264.2,1420.2,1261.8,1408,1252.3z"/>
<path id="tettt" class="st30" d="M1272.5,111.6c-8.2-19.3-25.2-33.9-21.5-56.3c4.7-18.4,22.1-30.1,40.5-27.6
	c42.5,5.3,35.2,69.1-3.8,74.4L1272.5,111.6z"/>
<path class="st31" d="M1439.7,1267.3l62.9,0l1-12.9c-13.4,5.9-29.3,4.7-42.7-2.4C1442.6,1256.6,1439.7,1267.3,1439.7,1267.3z"/>
<path id="bag_x5F_1" class="st32" d="M1387.4,763.1c-3,0.4-5.4,2.7-5.8,5.8l-0.6,4.1l-13.9,92.1c-0.7,4.4,3,8.3,7.4,7.9l121.3-12.3
	c3.2-0.3,5.8-2.9,6.1-6.2l9.2-99l0,0c0.4-4.4-3.3-8-7.6-7.5L1387.4,763.1z"/>
<path id="bag_x5F_3" class="st33" d="M1411.7,637.3c-6.8,11.8-7.3,15.3-9.1,25.1c-2,10.8-3.4,21-4.5,30.6
	c-2.1,12.3-3.8,26.1-4.5,41.3c-0.5,10.4-0.5,20.2-0.1,29.2c35.7-4.7,71.3-9.3,107-13.9c-9-21.9-25.8-61.9-34.8-83.8"/>
<path class="st34" d="M1570.7,278.1c23.1-3.3,43-24.7,39.7-47.9c-3.3-23.1-28.6-39.2-51.7-35.9c-23.1,3.3-39.2,24.7-35.9,47.9
	C1526.1,265.4,1547.5,281.4,1570.7,278.1z"/>
<path class="st35" d="M1538.8,313.9c19.5-2.8,29.2-20.9,26.4-40.4c-2.8-19.5-20.9-33-40.4-30.2s-33,20.9-30.2,40.4
	C1497.4,303.2,1519.3,316.7,1538.8,313.9z"/>
<g>
	<path class="st34" d="M1565.7,384.4c-0.9-3.4,1-8.7,0-12.2c-3.4-11.8,2.4-10.7-1.6-20.6c0-0.1,6.3,11.6,5.1,21.5
		c-2.7,23.1,8.5-11,1-28.4c-3.6-8.3-1.6-25.5-3.6-30.5c-0.3-15.4-0.5-40.7-13.8-50c-9.4-6.3-18.8-9.5-29.2-9.3
		c-33.3-2.7-76.2,10.3-70.7,43c4.9,27.7,43,25.7,60.6,15.7l3.7,11.3c0,0,15.1-8.1,15.7,6.4c0.3,7.2-5.1,13.2-12.3,13.5
		c7.5,1.8,13.9,10.3,24.8,8.6c0,0,0.1,0,0.1,0c-23,20.3,2,0.5,2.2,1.6c0.1,0.9-11.1,13.8-10.8,14.8c3.1,9.4,0.3,12.2,12.2,14.1
		c5.6,0.9-6.6,3.9,0.3,9.6c3.4,2.8,24.7,17,33.4,19.8c0.1,0-10-10.3-9.9-10.3c3.8,0.9-10.1-11.1-6.3-10.2
		C1569.3,393.8,1566.4,387.1,1565.7,384.4z"/>
	<path class="st34" d="M1520.5,344.9C1520.5,344.9,1520.6,344.9,1520.5,344.9c-0.7-0.2-1.4-0.3-2.2-0.3
		C1518.3,344.6,1519.6,345.2,1520.5,344.9z"/>
</g>
<path class="st4" d="M1278.6,326.9c7.6,39.2,20.1,64,31.5,77.4c7.6,9.6,3.8,8.6-5.7,17.2c-9.6,8.6-29.6,9.6-42,12.4
	c-4.5,0.9-49.8,14.5-50.9,11.3c-0.1-0.3,0.2-0.6,0.3-0.8c2.6-3.3,0-9,2.4-12.3c4.8-6.7,7.7-1.9,8.6-5.2c1.4-5.1,8.3-7.9,15.1-21.2
	c0.8-1.6-0.1-10.6,0.6-12.4c5-12.7,9.8-31.8,35.4-58.8L1278.6,326.9z"/>
<path class="st36" d="M1202.3,1165.6h-29.8l-2.8,58.7c-13.1,11-24.8,16.2-32.8,19c-23.4,8-44.3,4.6-52.5,22.3
	c-1.4,2.9,0.2,5.6-0.1,7.2c28.6-0.5,67.3-0.9,95.9-1.4c1.5,0,0.1,6.5,1.6,6.4c7.2-0.1,19-0.3,19.9-1c0.5-0.4,0.9-1,0.9-1
	c0,0,0.3-0.5,0.5-1.1c0.3-1,0-13.8-0.7-31.3L1202.3,1165.6z"/>
<path class="st37" d="M1354.2,728.7c0,0-26.2,125.7-28,180.4c-1.7,54.7,4.9,100.6,4.5,157.5c-0.5,68.2-13,148.7-13,148.7h-49
	c2.7-36.1-8.4-168.6-27.9-237.9c-16.5-58.5-25.6-228.3-25.6-228.3C1221.4,625.4,1354.2,728.7,1354.2,728.7z"/>
<path class="st21" d="M1347.9,669.3c28.2,99.3-26.3,141.6-43.7,191.2c-17,51.6-36.2,102.7-60.1,151.5c-8.9,76.3-19.9,130.4-36.3,206
	c-17,9.7-48.9-2.8-48.9-2.8s14.5-225.9,15.7-230.3c1.2-4.4,23.4-282.7,23.4-282.7C1195.3,640.9,1319.7,570,1347.9,669.3z"/>
<g>
	<path id="_x32__3_" class="st7" d="M1102.5,650.7c-24.6-3.4-27.4,9.3-40.6,11.2c-5.2,0.7-10.3,1.7-16.8,2c-2.4,0.1-4.8,0.2-7.7,0
		c-6-0.3-24.3-12-22.2-22.9c1.2-6.3,18.9,8.2,24.3,6.6c8.3-2.6,29-4.7,17.7-16c-14.2-14.2,16.3-4,40.6,2.1L1102.5,650.7z"/>
</g>
<path class="st21" d="M1323.4,408.6c19.8,7.9,19.4,29.5,14.2,71c-5.3,41.5-21.8,134.1-28.7,143c-5.8,7.2-28.1,4-34,9.4
	c-8.2,7.6-17.2,10-58,15.5c0,0,0,0,0,0c-24.3,4-32.8,6.6-50.8,7.4c-15.4,0.7-23.5-0.6-41.8,1.1c-8.2,0.8-31.3,4.9-31.4-0.9
	c0-1.2-1.5-2.3-1.7-5.2c-0.3-3.9-1.3-9.2-1.1-17.2c0.2-7.6,12.5-7.4,31.3-10.6c5.8-1,13.8-2.6,29.9-5.7c10.2-2,23.9-4.8,39.2-6.7
	c0.7-0.1,0.9-0.1,1.5-0.2c4.4-0.6,14.2-1.9,26.8-4.9c7.8-1.8,15.9-3.7,26-7.7c5.1-2,11.4-4.8,18.5-8.7c5.2-2.9,8.9-8.3,9.3-14.3
	c1.3-19.9,4.5-67.4,6.2-94.6C1281.1,444.6,1307.3,402,1323.4,408.6z"/>
<path class="st38" d="M1264.5,405.8c26.6-12.2,37.8-16.8,49.8-12.6c6.1,2.2,12,6.3,17.3,13.1c19.7,25.1,35.2,53.1,26,111.1
	c-5.5,34.6-8.4,50.8-9.4,67.8c-0.6,8.8-1,20.1-0.2,35.1c0.6,9.7,1.4,15.1,6,54.9c0.7,6.2,1.3,11.2,1.8,18.3c2,25.7,0.1,34.9-6,40.8
	c-1.2,1.1-2.1,1.9-2.8,2.3c-4.4,2.7-11.7,3.2-33.5,2c-28-1.5-57.1,0-85.1-0.4c-8.1-0.4-15.9-0.3-23.7,0.6
	c-7.2,0.8-13.4-4.4-13.8-11.6c-0.6-11.7-2.9-27.4-2.9-39c-0.2-17.6-1.2-18.2-1.9-22.7c-1.5-9.6-1-17.4-0.9-20.1
	c1.7-25.4,0.1-50.8,0.8-76.2c1.6-56.1-0.7-47.1,1-59.8c3.5-27.2,7.9-61.1,33.1-82.6C1221.8,425.4,1236.1,418.9,1264.5,405.8z"/>
<path class="st7" d="M1257.9,247.3c17.5,3.1,36.8,23.7,42.4,40.3c6.2,19.4,13.2,28.8-2.1,58.8c-11.2,21.2-37.8,39.8-56.6,40
	c-29.8-0.5-38-43.2-38-43.2l-14.5-7.7c7.2-12.4,13-26.6,17-40.3c3.7-19.6,27.3-47.4,47.9-48C1254.9,247,1255.8,246.8,1257.9,247.3z"
	/>
<path class="st21" d="M1322,620.7c-0.7,2.9-2.1,5.5-3.9,7.9c-14.2,18.7-25,38.6-42.7,53.6c-3.9,3.4-17.9,17.8-30.8,34.8
	c-0.7,0.9-1.4,2-2.1,2.9c-24.6,37.2-20.7,35.8-32.4,37.8c-5.4-8.7-36.7-9.1-32.5-19.6c3-7.7,50.6-75.5,66.7-103.9
	c19.1-23.4,23.2-44.8,25.7-93.6c2.5-48.7-12.1-113,25-131.6c37.1-18.6,46.2,14.8,51.7,45.7C1355,499.5,1327.4,599.4,1322,620.7z"/>
<path class="st39" d="M1255.2,299c4,3.9,4.2,11.9,8.9,14.6c0.7-1.2,2.3-2.6,3.2-2.9c4.4-2.2,9.8-0.6,12.9,3.6
	c4.4,8.8-4.4,17.2-5.5,24.5s21.4,10.6,25.4,6.6c10.8-11.9,21.6-48.1,17.2-60.9c-3.2-12.1-10.9-22.1-21.5-28.3
	c-12.8-6.6-31.2-15.7-46.6-13.6c-8,0.1-15.4,2.1-23.8,4.3c-13.8,4.7-42.5,24.3-30.1,37c-5.9-3.4,3.4-5.9,0,0
	c-2.2,6.6,5.8,14.4,11.5,16.9c9.2,4.5,18.4,5.1,27.9,3.6c7.5-2,13.9-7.7,22.4-6L1255.2,299z"/>
<path class="st40" d="M1225.4,765.8c1.9,30.7-2.6,32.9,2.5,52.8c0.3,1,2.3,7.1-0.3,3.1c-10-15.4-25.4-17.8-7-56.9
	C1221.6,762.5,1225.2,763.2,1225.4,765.8z"/>
<path class="st41" d="M1137.1,577.2"/>
<path class="st42" d="M1344,611.4"/>
<path class="st4" d="M404.9,304.3c-8.3,42.6-21.8,69.6-34.3,84.2c-8.3,10.4-4.2,9.4,6.2,18.7c10.4,9.4,32.2,10.4,45.7,13.5
	c4.9,1,54.1,15.8,55.4,12.3c0.1-0.3-0.2-0.7-0.3-0.9c-2.8-3.5-4-8.2-6.7-11.9c-5.3-7.3-7.4-9.5-8.4-13.1c-1.5-5.5,3.5-6.7,1.6-11.2
	c-0.8-1.8-2.9-4.2-5.3-10.2c-1.8-4.6-2.9-7.7-3.7-9.6c-5.5-13.8-17.3-34.3-45.1-63.6L404.9,304.3z"/>
<path class="st43" d="M211.4,1185.5l36.2,8.4l-4.3,41.4c12.9,10,24.3,15.4,32.1,18.3c22.9,8.7,43.4,8.1,51.5,22.9
	c1.3,2.5-0.2,4.5,0.1,5.7c-28-3.2-66.1-7.4-94.2-10.6c-1.4-0.2-0.1,5.1-1.5,5c-7.1-0.8-18.7-2.1-19.5-2.8c-0.5-0.4-0.8-0.9-0.8-0.9
	s-0.3-0.4-0.5-1c-0.3-0.8,0.1-10.9,0.8-24.7L211.4,1185.5z"/>
<path class="st43" d="M558.4,1182.9l37.1-1.3l6.6,41.1c15,6.3,27.5,8.5,35.8,9.3c24.4,2.4,44-3.5,55.7,8.7c1.9,2,0.9,4.4,1.6,5.5
	c-27.9,4.2-65.8,10.1-93.7,14.3c-1.4,0.2,1.2,5-0.2,5.2c-7,1.1-18.6,2.8-19.6,2.4c-0.6-0.2-1-0.6-1-0.6c0,0-0.4-0.3-0.7-0.8
	c-0.5-0.7-2.8-10.6-5.7-24.1L558.4,1182.9z"/>
<path class="st32" d="M317.9,730.3c0,0-14.5,128.8-30.1,181.8c-15.6,53-23.9,100.8-54,149.6c-30.1,48.8-28.1,161.1-28.1,161.1
	l50.1,9.1c1-35.3,51.7-167,92.3-227.3c34.3-50.9,96.6-210.9,96.6-210.9C477.9,673.2,317.9,730.3,317.9,730.3z"/>
<path class="st34" d="M311.7,685.7c-8.3,103.9,54,135.1,81,180.8c27,47.8,56.1,94.6,89.4,138.2c23.9,73.8,52,146.5,83.1,218.2
	c18.7,6.2,54.9-8.6,54.9-8.6s-72.5-246-74.6-250.1s-79-275.4-79-275.4C457.1,627.5,320,581.8,311.7,685.7z"/>
<g>
	<path id="_x32__1_" class="st44" d="M-254.9-112.5c20-5.7,35.4,3.4,46.6,3.4c4.4,0,8.7,0.2,14.2-0.4c2-0.2,4-0.4,6.4-0.9
		c4.9-1,13.9-6.4,15.1-16.3c0.6-5.3-17.4,7.6-18.7,3c-1.1-3.7-8.3-3.5-9.4-7.1c-1-3.1-4.6-7.1-9.9-13.8c-1.8-2.2,2.7-1.7,2-2.4
		c-9.1-9.9-13.3,10.7-32.7,18.7L-254.9-112.5z"/>
</g>
<path class="st45" d="M419.4,400.5c-19.2-14.8-46.4-27.4-67.7-3.2c-21.2,24.2-38.4,51.6-32.3,110.7c3.6,35.2,5.6,51.7,5.8,68.9
	c0.1,8.9-0.1,20.3-1.8,35.4c-1.1,9.8-2.2,15.2-9,55.1c-1.1,6.2-1.9,11.3-2.8,18.3c-3.4,25.9-2,35.2,3.8,41.5c1.1,1.2,2,2,2.7,2.5
	c4.3,2.9,11.7,3.9,33.7,3.9c28.3,0,57.6,3.2,85.8,4.2c9.3,0,18.3,0.7,27.2,2.5c10.1,2.1,19.5-5.5,20.6-15.8
	c1.3-11.7,3.1-23.5,3.7-35.2c2-29.5-1-61.1,5-88.5c8-29.2,10-59.4,8.1-88.6c0-0.7-0.1-1.4-0.2-2c-3.8-28.7-12.6-55.6-26.3-80.8
	c-2.4-4.3-6.6-7.4-11.3-8.6C445.6,415.9,436.5,413.6,419.4,400.5z"/>
<path class="st7" d="M449.8,229.2c-19,1.7-41.6,21.9-49.2,39.1c-8.5,20.2-16.8,29.6-3.3,63.2c10,23.8,36.8,46.3,56.8,48.2
	c31.9,2.3,44.8-42.6,44.8-42.6l16.3-6.9c-6.5-14-11.4-29.7-14.4-44.7c-2.1-21.3-24.7-53.4-46.8-55.9
	C453,229.1,452,228.8,449.8,229.2z"/>
<path class="st46" d="M470.7,832.8c24.1-10.1,15.8-39.1-4.4-69.2c-22.3,4.5-37.1-2.7-45.3,10.7C440.5,809.4,459.8,837.5,470.7,832.8
	z"/>
<path class="st41" d="M539.3,573.1"/>
<path class="st39" d="M428.9,217.7c54.7-12.5,65.8,41.6,66.9,47.7c0.1,0.3,0.1,0.7,0.1,1.1c0,1.9-0.9,3.2-3.1,3.2
	c-47.5-2.2-53.9,4.4-50,21.3c0.2,0.8-11.4-9.7-13.3,5.1c-0.1,0.5,1.5,15.3,4.9,15.3c5.1,0-5.3-0.3-6.4,2.7
	c-3.4,9.4-6.8,17.4-9.1,19.3c-5.4,4.6-39.2,14.1-28.8-2.6c1.4-2.3,0.8-8.7-0.6-11c-7.2-11.9-9.2-34.9-6.5-46.9
	c0.1-0.6,0.2-1.1,0.2-1.7C382.3,246,404.2,223.2,428.9,217.7z"/>
<path class="st39" d="M792,287"/>
<path class="st34" d="M335.8,424.2c0,0,30.7-57.5,67.7-5.5c2.3,3.2,4,6.8,5.1,10.6c5.1,17.9,23.8,78.9,50.8,118.3
	c4.5,6.6,11.5,11.2,19.4,12.8c28.7,5.9,97.3,16.2,145.7-0.9l4,44.7c0,0-106.7,33.4-181,18.2c-5.4-1.1-10.4-3.7-14.4-7.5
	C405.9,589.3,296.9,480.4,335.8,424.2z"/>
<path class="st35" d="M1209.4,438.2c4.6-6.2,9.5-12.4,17.1-17.9c22.3-16.1,50.5-33,72.1-43.6c3.7-1.8,8.2,0.3,9.1,4.3
	c1.1,4.9,3.2,8.8,4.8,11.7c-13.5,4.8-32.5,10.4-45.5,16C1245.4,417.9,1229.1,428.7,1209.4,438.2z"/>
<path class="st40" d="M1354.2,744.2h-13.6c0,0,4.2,16.8-2.8,31.7h8.3C1346.1,775.9,1355.3,753,1354.2,744.2z"/>
<path id="bag_x5F_2" class="st46" d="M1415.7,796.8c0,0,40.7,17,67.8-9.3c0,0,12-15.4,25.6-30.9c13.5-15.4-45.2-2.9-45.2-2.9
	l-81.3,10.7C1382.6,764.4,1390.1,784.5,1415.7,796.8z"/>
</svg>
