<?xml version="1.0" encoding="utf-8"?>
<!-- Generator: Adobe Illustrator 23.0.1, SVG Export Plug-In . SVG Version: 6.00 Build 0)  -->
<svg version="1.1" id="Ai" xmlns="http://www.w3.org/2000/svg" xmlns:xlink="http://www.w3.org/1999/xlink" x="0px" y="0px"
	 viewBox="0 0 1911 1390" style="enable-background:new 0 0 1911 1390;" xml:space="preserve">
<style type="text/css">
	.st0{opacity:0.26;}
	.st1{clip-path:url(#SVGID_2_);}
	.st2{clip-path:url(#SVGID_4_);}
	.st3{clip-path:url(#SVGID_6_);}
	.st4{fill:url(#SVGID_7_);stroke:#000000;stroke-miterlimit:10;}
	.st5{fill:url(#SVGID_8_);stroke:#000000;stroke-width:2;stroke-miterlimit:10;}
	.st6{fill:#473556;stroke:#000000;stroke-miterlimit:10;}
	.st7{fill:#A9AF90;stroke:#000000;stroke-miterlimit:10;}
	.st8{fill:url(#SVGID_9_);}
	.st9{fill:none;stroke:#000000;stroke-width:4;stroke-miterlimit:10;}
	.st10{fill:#BC79A9;stroke:#000000;stroke-miterlimit:10;}
	.st11{fill:url(#SVGID_10_);}
	.st12{opacity:0.99;}
	.st13{fill:#565536;stroke:#000000;stroke-miterlimit:10;}
	.st14{fill:#474C38;stroke:#000000;stroke-miterlimit:10;}
	.st15{fill:#DB42B3;stroke:#000000;stroke-miterlimit:10;}
	.st16{fill:#282626;stroke:#000000;stroke-miterlimit:10;}
	.st17{fill:#B72525;stroke:#000000;stroke-miterlimit:10;}
	.st18{fill:none;stroke:#000000;stroke-width:3;stroke-miterlimit:10;}
	.st19{opacity:0.99;fill:url(#SVGID_11_);enable-background:new    ;}
	.st20{fill:url(#SVGID_12_);}
	.st21{fill:#F2FFFF;stroke:#000000;stroke-miterlimit:10;}
	.st22{fill:none;stroke:#000000;stroke-miterlimit:10;}
	.st23{fill:#A39393;stroke:#000000;stroke-miterlimit:10;}
	.st24{fill:#82ADFF;stroke:#191515;stroke-miterlimit:10;}
	.st25{fill:#82ADFF;stroke:#000000;stroke-miterlimit:10;}
	.st26{fill:#FFFFFF;stroke:#000000;stroke-miterlimit:10;}
	.st27{stroke:#191515;stroke-miterlimit:10;}
	.st28{fill:#9E9393;stroke:#000000;stroke-miterlimit:10;}
	.st29{fill:#C677FF;stroke:#000000;stroke-miterlimit:10;}
	.st30{fill:#131415;}
	.st31{fill:#B5B753;stroke:#000000;stroke-miterlimit:10;}
	.st32{fill:none;stroke:#000000;stroke-width:2;stroke-miterlimit:10;}
	.st33{fill:#99BFA3;stroke:#000000;stroke-width:2;stroke-miterlimit:10;}
	.st34{fill:#99BFA3;stroke:#000000;stroke-width:0.5;stroke-miterlimit:10;}
	.st35{fill:none;stroke:#000000;stroke-width:0.5;stroke-miterlimit:10;}
	.st36{fill:none;stroke:url(#SVGID_13_);stroke-width:3;stroke-miterlimit:10;}
	.st37{fill:none;stroke:url(#SVGID_14_);stroke-width:3;stroke-miterlimit:10;}
	.st38{fill:none;stroke:url(#SVGID_15_);stroke-width:3;stroke-miterlimit:10;}
	.st39{fill:url(#SVGID_16_);}
	.st40{fill:#FFFFFF;stroke:url(#SVGID_17_);stroke-miterlimit:10;}
	.st41{fill:#FFFFFF;stroke:url(#SVGID_18_);stroke-miterlimit:10;}
	.st42{fill:#FFFFFF;stroke:url(#SVGID_19_);stroke-miterlimit:10;}
	.st43{fill:#FFFFFF;stroke:url(#SVGID_20_);stroke-miterlimit:10;}
</style>
<g class="st0">
	<g>
		<g>
			<g>
				<defs>
					<ellipse id="SVGID_1_" cx="1789.4" cy="102.1" rx="99.6" ry="74.6"/>
				</defs>
				<clipPath id="SVGID_2_">
					<use xlink:href="#SVGID_1_"  style="overflow:visible;"/>
				</clipPath>
				<g class="st1">
					<g>
						<g>
							<g>
								<defs>
									<rect id="SVGID_3_" x="1684.8" y="22.4" width="209.2" height="159.2"/>
								</defs>
								<clipPath id="SVGID_4_">
									<use xlink:href="#SVGID_3_"  style="overflow:visible;"/>
								</clipPath>
								<g class="st2">
									<g>
										<g>
											<defs>
												<rect id="SVGID_5_" x="1684.8" y="22.4" width="209.2" height="159.2"/>
											</defs>
											<clipPath id="SVGID_6_">
												<use xlink:href="#SVGID_5_"  style="overflow:visible;"/>
											</clipPath>
											<g class="st3">
											</g>
										</g>
									</g>
								</g>
							</g>
						</g>
					</g>
				</g>
			</g>
		</g>
	</g>
</g>
<g id="inviter_x5F_1">
	
		<linearGradient id="SVGID_7_" gradientUnits="userSpaceOnUse" x1="991.2206" y1="1250.344" x2="1299.6742" y2="1123.1497" gradientTransform="matrix(1 0 0 -1 0 1988)">
		<stop  offset="0" style="stop-color:#CCE0F4"/>
		<stop  offset="6.790000e-02" style="stop-color:#CED7F5"/>
		<stop  offset="0.1808" style="stop-color:#D2BDF6"/>
		<stop  offset="0.3248" style="stop-color:#D994F9"/>
		<stop  offset="0.4926" style="stop-color:#E35BFD"/>
		<stop  offset="0.5674" style="stop-color:#E83FFF"/>
		<stop  offset="0.8652" style="stop-color:#0075BE"/>
		<stop  offset="0.9944" style="stop-color:#005B97"/>
	</linearGradient>
	<path class="st4" d="M1146.4,568.3c-20.4,23.8-75.6,86.7-101.8,101.1c-17.6,9.7-42.3,24.4-60.1,17.9c-16.5-6-33.5-12.2-22.3-47.4
		c1.7-5.3,6.4-12.7,10.3-16.5c11.6-11.1,35.3-35,63.9-69.3c28-33.6,26-32.5,53.6-74.7l0.1-0.1c3.5-3.9,40.2-53.1,74.6-96.8
		c0.3-0.5,0.3-1.1,0.6-1.6c3.3-5.1,20.6-30,48.3-30c-0.8,0.2,35.7-6.9,50.2-4.9c26.3,3.6,46.1,61.3,48.8,66.6
		c2.2,4.4,12.4,34.3,13,43.9c0.8,12.6,0,28.8-1.7,61.1c0,0.7-0.1,1.2-0.1,1.2c-2.3,44.9-15,126.3-23.7,187.4
		c-2.3,16.1-5,36.1-7.4,62.3c-1.5,16.4-2.4,29.9-2.9,39l0,0c0,0.4,0,0.6,0,0.6c1,10.1-24.4,93.8-24.4,93.8c-8,26.4-8.3,37.5-7,47.1
		c1.5,10.9,5.1,19.6,7.9,25.2c-10.1,63.9-14.9,116-17.4,153.3c-2.9,44-4.4,93.9-28.9,103.2c-14.5,5.5-28.6-6.5-43.4,3.9
		c-13.8,9.6-18.1,31.6-16.8,32.3c0.6,0.3,2.9-2.5,4.2-5.3c4.2-8.7-1.5-15.8,0.9-19.1c4.8-6.7,33.1,16.2,50.2,10.4
		c20.2-6.8,18.8-51.4,23.1-109.9c3.2-43,9.9-86.8,23.1-174.5c9.9-65.4,17.3-99-3.9-129.2c-10.1-14.3-23-22.9-32.8-28
		c-19.9,10.3-39.9,20.6-59.8,30.9c6.2,13.5,11.9,28.6,16.4,45.3c21,78.6,3.2,148.4-10.6,187.1c-6.3,38.5-11,51.9-14.7,51.7
		c-3.9-0.2-6.9-16-6.6-16.1c0.4-0.1,10.3,18,11.6,36.6c3,43.8-41.9,81.1-45.3,83.9c-10.7,8.7-45,32.1-33.8,24.1
		c-22.7,12.8-28.8,14-29.9,12.5c-1.4-1.9,4.9-9.5,10.6-14.5c7.7-6.8,13.3-7.8,20.3-11.6c7.4-4,14.7-12.7,28.9-29.9
		c5.3-6.4,12.3-15.2,20.3-26c14.3-68.6,14.3-122.9,11.6-160.1c-3.8-52.3-15.2-99.4,13.5-133.1c15.7-18.4,31.4-18.8,32.8-32.8
		c3-30.1-67.7-45.6-74.3-95.9c-0.8-5.8-1.5-8.8,3.2-28.6c7.4-30.7,12.2-54,15.7-73.1c11.8-64.4,1.1-83.1,19.3-102.9"/>
	
		<linearGradient id="SVGID_8_" gradientUnits="userSpaceOnUse" x1="1161.7443" y1="1449.2137" x2="1170.0278" y2="1445.7977" gradientTransform="matrix(1 0 0 -1 0 1988)">
		<stop  offset="0" style="stop-color:#CCE0F4"/>
		<stop  offset="6.790000e-02" style="stop-color:#CED7F5"/>
		<stop  offset="0.1808" style="stop-color:#D2BDF6"/>
		<stop  offset="0.3248" style="stop-color:#D994F9"/>
		<stop  offset="0.4926" style="stop-color:#E35BFD"/>
		<stop  offset="0.5674" style="stop-color:#E83FFF"/>
		<stop  offset="0.8652" style="stop-color:#0075BE"/>
		<stop  offset="0.9944" style="stop-color:#005B97"/>
	</linearGradient>
	<path class="st5" d="M1148.2,567c0.8-0.9,34.8-45.9,35.4-53c0,0-6.4,12.7-12.3,16.9c-6,4.2,6-4.2,6-4.2"/>
	<path class="st6" d="M1114.9,751.8c12.4,6.2,28.7,13.7,48.7,14.6c124.2,5.9,119.9-33.4,132.2-43.6c0.4,3.6-3,12.4-2.3,18.7
		c3.9,36.6,3.2,82.7,6.6,139.7c2.6,44,3.1,72.5,3,94.8c0,0.2,0,2,0,3.7c-0.2,32.2-0.5,87.6-9.8,145.4
		c-4.4,27.1-12.2,64.1-27.4,107.5c0,0-11.4,32.5-76.4,45.5c0,0-52,11.4-48.8-8.1c0,0-4.9,6.5,4.9-30.9c14-6.4,35.1-18.9,47.1-42.3
		c6-11.6,9.4-20.7,13.8-53.2c1.9-13.7,5.6-37.3,7.2-68.7c1.9-24.2,3-49.7,3.3-76.3c0.6-54.9-2.7-105.6-8.1-151.1l-2.8,59.1l-2,43.3
		l-3.3,35.8l-4.9,40.6l-6.5,43.9c-2.2,25.6-6.4,54.9-13.9,86.8c-6.4,27.1-14,51.3-21.9,72.5c-6,10.3-11.9,20.6-17.9,30.9
		c0,0-14.6,19.5-50.4,21.1s-45.5,0-45.5,0s-17.9-17.9,0-30.9c0,0,11.4-3.3,26-26c5-5.1,7.7-11,13.1-22.2c4.5-9.3,8.8-12.7,11.7-26.1
		c7.4-34.7,6.9-54.5,10.1-78.6c0.5-3.7,0.8-7.5,1-11.3c4.3-104.3,7.4-163.6,7.9-173.8c0.1-1,0-3.1,0-3.1
		c-0.7-9.5-4.3-61.8,0.1-107.3C1114.9,751.8,1114.9,751.8,1114.9,751.8z"/>
	
		<ellipse transform="matrix(0.7067 -0.7075 0.7075 0.7067 176.638 946.7254)" class="st7" cx="1230.2" cy="260.3" rx="67.4" ry="67.5"/>
</g>
<linearGradient id="SVGID_9_" gradientUnits="userSpaceOnUse" x1="23.3" y1="1700.1" x2="1588.2466" y2="1700.1" gradientTransform="matrix(1 0 0 -1 0 1988)">
	<stop  offset="0" style="stop-color:#E398F4"/>
	<stop  offset="1.319421e-03" style="stop-color:#E399F4"/>
	<stop  offset="7.916365e-02" style="stop-color:#EBB5F7"/>
	<stop  offset="0.1472" style="stop-color:#EFC6F9"/>
	<stop  offset="0.1976" style="stop-color:#F1CCFA"/>
	<stop  offset="0.2465" style="stop-color:#F5DAFB"/>
	<stop  offset="0.3313" style="stop-color:#F9EBFD"/>
	<stop  offset="0.4368" style="stop-color:#FDF6FE"/>
	<stop  offset="0.5848" style="stop-color:#FEFDFF"/>
	<stop  offset="0.9958" style="stop-color:#FFFFFF"/>
</linearGradient>
<path class="st8" d="M210.2,183.8H184c0-12.2,9.8-22.1,21.9-22.1c2.8,0,5.5,0.5,8,1.5c8.2-21.8,29.1-37.3,53.6-37.3
	c25.5,0,47.2,16.8,54.6,40c6.3-11.7,18.5-19.6,32.6-19.6c20.5,0,37.1,16.7,37.1,37.4h-66.9h-7.2h-89.9L210.2,183.8z M330.4,329
	c-15.2,0-29.7,2.8-43,8c-28-27.3-66.2-44.1-108.3-44.1c-86.1,0-155.8,70.3-155.8,157h187.1H335h115.5
	C450.4,383.2,396.7,329,330.4,329z"/>
<path class="st9" d="M728.5,1056.2c-3.6,18.4-9.1,40.4-17.5,64.5c-5.5,15.6-12.2,32.2-20.5,49.3c-22.8,47.1-49.6,82.4-71.1,106.7"/>
<path class="st10" d="M694.1,991.3l-0.9-4.1c-1.9-8.8,7-16.1,15.3-12.5l0,0l0.8-3c1.8-7.1,11-8.9,15.4-3.2l0,0l2.8-3.6
	c4.7-5.9,13.8-4.9,17.2,1.8l0,0l0,0c5.8-5.4,15.2-3,17.6,4.5v0.1l0,0c6.1-4,14.3-0.8,16.1,6.2l0.4,1.4l1.2,3.1
	c7.6,2.3,9.8,8.1,5.7,14.9l-0.9,1.6l2.1,2.2c6,6.3,6.2,16.2,0.3,22.6l0,0l0.3,1.1c2.1,8.5-1.3,17.4-8.6,22.2l0,0l0,0
	c0,8-7.8,13.6-15.4,11.1l-2-0.7l-4.6,5.5c-3.5,4.2-9.2,5.8-14.4,4.1l-7.1-2.4l0,0c-6.7,6.2-17.5,3.8-20.9-4.6l-1-2.5l-0.5,0.2
	c-7.9,3.1-16.4-2.7-16.4-11.1l0,0l0,0c-8.5,0.9-15.1-7.4-12.2-15.5l1.1-3.1l-3.3-2c-6.6-4-5.8-13.8,1.4-16.6l0,0l-0.5-1
	C678.5,1000,685,990.3,694.1,991.3L694.1,991.3z"/>
<linearGradient id="SVGID_10_" gradientUnits="userSpaceOnUse" x1="1654.2043" y1="979.5722" x2="1654.2043" y2="699.1788" gradientTransform="matrix(1 0 0 -1 0 1988)">
	<stop  offset="0" style="stop-color:#C0DDFC"/>
	<stop  offset="0.9958" style="stop-color:#FFFFFF"/>
</linearGradient>
<path class="st11" d="M1402.2,1300.6c137,0,132.6-207.8,251.8-235.3c47.6-11,73.5-46.2,95.5-84.4c35.9-62.3,129.9-38.9,133.8,31.1
	c0.2,3.5,0.4,7,0.9,10.5l0,0c0.3-6.6,10.1-6.7,10.4,0c3.1,65.7,6.2,136,6.1,138.3c-5.1,69.5,58.8,136.5-147.3,139.9L1402.2,1300.6z"
	/>
<g id="inviter_x5F_2" class="st12">
	<path id="pied_x5F_2" class="st13" d="M1510.6,1013.1c0,0,6.1,89.4,9.1,100c0,0,9.1,77.3,0,84.9c0,0-7.6,21.2-9.1,28.8s0-7.6,0-7.6
		s-1.5,37.9-7.6,53.1c0,0-3,37.9-12.1,19.7c0,0-7.6,0-12.1-40.9s0-4.6,0-4.6l-6.1-15.2c0,0-62.2,56.1-77.3,53.1
		c0,0-39.4,12.1-15.2-28.8c0,0,31.8-42.4,37.9-74.3c0,0,16.7-16.7,16.7-65.2s-6.1-103.1-6.1-103.1l-3-18.2l84.9,6.1L1510.6,1013.1
		L1510.6,1013.1z"/>
	<path id="pied_x5F_1" class="st14" d="M1571.2,1013.1c0,0,6.1,89.4,9.1,100c0,0,9.1,77.3,0,84.9c0,0-7.6,21.2-9.1,28.8s0-7.6,0-7.6
		s-1.5,37.9-7.6,53.1c0,0-3,37.9-12.1,19.7c0,0-7.6,0-12.1-40.9s0-4.6,0-4.6l-6.1-15.2c0,0-62.2,56.1-77.3,53.1
		c0,0-39.4,12.1-15.2-28.8c0,0,31.8-42.4,37.9-74.3c0,0,16.7-16.7,16.7-65.2s-6.1-103.1-6.1-103.1l-3-18.2l84.9,6.1L1571.2,1013.1
		L1571.2,1013.1z"/>
	<path id="corp_x5F_inv_x5F_2" class="st15" d="M1394.1,588.4l-7.7-20.5c-0.1-0.3-0.3-0.6-0.4-1c-1.7-4-14-36.6,15.5-60.7
		c0.9-0.7,1.8-1.5,2.6-2.3c6.7-6.7,38.7-39,51.3-54c7-8.4,15.4-15.6,25-20.9c3.2-1.8,6.6-3.5,10.2-5c3.4-1.4,7.2-2.1,10.9-2.3
		c10-0.3,34.1-2.4,49.9-15.4c2.8-2.3,6.3-4,9.8-3.2c8.4,1.9,30.9,38.3,36.9,74.2c0.2,1.2,0.5,2.4,0.8,3.6
		c3.5,11.8,23.3,84,7.6,143.3c-0.4,1.4-0.7,2.8-0.8,4.2c-1.4,11.7-7.6,67.5-1.8,98c0.4,2,0.6,4.1,0.5,6.2
		c-0.3,17.3-1.1,96.2,12.5,121.8c0.9,1.7,1.6,3.4,2.2,5.2c5,15.4,28.2,85,49.4,107.9c1.3,1.3,2.4,2.8,3.4,4.4
		c5.1,7.8,15.5,27.5-6.6,29.9c-3.1,0.3-6.2,1.2-9,2.5c-8.4,3.9-29.5,11.1-63.7,7c-1.1-0.1-2.2-0.3-3.3-0.6
		c-2.5-0.6-7.9-1.8-15.5-3.1c-20.4-3.5-56.7-8.1-94.4-4.2c-0.5,0-1.1,0.1-1.6,0.2c-9.5,1.4-103,14.9-117.8,1.2
		c-1.2-1.1-2.5-2-3.8-2.8c-4.1-2.5-11.7-8.7-15.2-20.2c-2.4-8-1.4-16.7,2.8-23.9c5.9-10.4,16-29.7,21.2-48.3
		c7.6-27.3-1.5-4.5-1.5-4.5s18.9-28.4,22.3-50.7c0.4-2.8,1.3-5.5,2.6-8.1c5.4-11.3,19-43.7,16.3-79.4c-0.1-1.8-0.2-3.6,0-5.4
		c1-11.4,4.7-57,0.4-83.1c-0.4-2.5-0.6-5-0.4-7.5c1-13.4,3.3-58.7-7.9-77.3C1395.8,592.2,1394.9,590.4,1394.1,588.4z"/>
	<path id="bag_x5F_1" class="st16" d="M1394.4,738.1c-3,0.4-5.4,2.7-5.9,5.7l-0.6,4.1l-13.9,91.3c-0.7,4.4,3,8.2,7.4,7.8l122.1-12.2
		c3.2-0.3,5.8-2.9,6.1-6.1l9.3-98.1l0,0c0.4-4.3-3.3-7.9-7.6-7.4L1394.4,738.1z"/>
	<path id="bag_x5F_2" class="st17" d="M1422.6,770.5c0,0,40.9,16.7,68.2-9.1c0,0,12.1-15.2,25.8-30.3c13.6-15.2-45.5-2.9-45.5-2.9
		l-81.8,10.5C1389.3,738.7,1396.9,758.4,1422.6,770.5z"/>
	<path id="bras" class="st15" d="M1483.3,476.5c0,0-13.6,87.9-19.7,90.9c0,0,0,6.1-25.8,25.8c0,0-31.8,22.7-56.1,37.9
		c0,0-22.7,22.7-22.7,37.9c-0.8,1.6-4,8.8-1.1,17.2c3.6,10.6,13.6,14.2,14.8,14.6c5.8,1.5,14.5,2.9,24.6,1.3
		c10.7-1.7,17.7-5.8,28.4-11.9c9-5.1,22.3-12.5,39.4-21.2c4.1-2.8,10.3-7.1,18.2-12.1c9.4-6.1,12.3-7.6,16.7-10.6
		c5.9-4.1,14.1-10.7,22.7-21.2c8.1-22.7,16.2-45.5,24.3-68.2"/>
	<path id="bag_x5F_3" class="st18" d="M1415.1,609.9c-2.2,8.5-4.3,17.6-6.1,27.3c-2,10.7-3.5,20.8-4.6,30.3
		c-2.1,12.2-3.8,25.9-4.6,40.9c-0.5,10.3-0.5,20-0.1,29c35.9-4.6,71.8-9.2,107.8-13.8c-9.1-21.7-18.2-43.5-27.3-65.2"/>
	
		<linearGradient id="SVGID_11_" gradientUnits="userSpaceOnUse" x1="976.998" y1="1004.84" x2="1451.4885" y2="1460.5164" gradientTransform="matrix(0.6932 -3.529446e-05 3.529403e-05 -0.6496 906.355 1977.7244)">
		<stop  offset="0" style="stop-color:#CCE0F4"/>
		<stop  offset="3.807279e-02" style="stop-color:#D2BDF6"/>
		<stop  offset="9.130000e-02" style="stop-color:#CED7F5"/>
		<stop  offset="0.3789" style="stop-color:#D994F9"/>
		<stop  offset="0.3931" style="stop-color:#E35BFD"/>
		<stop  offset="0.4436" style="stop-color:#D441F6"/>
		<stop  offset="0.4626" style="stop-color:#E83FFF"/>
		<stop  offset="0.5018" style="stop-color:#DF40FB"/>
		<stop  offset="0.5378" style="stop-color:#E63FFE"/>
		<stop  offset="0.6622" style="stop-color:#005B97"/>
		<stop  offset="0.9234" style="stop-color:#C344EE"/>
		<stop  offset="0.939" style="stop-color:#AD46E4"/>
		<stop  offset="0.9529" style="stop-color:#9149D8"/>
		<stop  offset="0.9654" style="stop-color:#714DCA"/>
		<stop  offset="0.9769" style="stop-color:#4B52B9"/>
		<stop  offset="0.9871" style="stop-color:#2257A6"/>
	</linearGradient>
	<path class="st19" d="M1421.2,1297.2c0,0-66-57.3,69.5-68.6c0,0,14.3-53.9,71.9-67.5c-0.4-6.3-0.4-22,11-33.7
		c17.9-18.5,52.3-14.5,73.1-2.3c19.2,11.3,26.3,29.2,28.6,35.9c0,0,76.7-49.5,113.9,41.5c0,0,75.5-13.5,80.4,33.6
		c0,0,63.6,20.2,0,55.1L1421.2,1297.2z"/>
</g>
<g id="backgroud">
	
		<linearGradient id="SVGID_12_" gradientUnits="userSpaceOnUse" x1="562.0689" y1="661.8303" x2="21.5704" y2="964.2133" gradientTransform="matrix(1 0 0 -1 0 1988)">
		<stop  offset="0" style="stop-color:#FFFFFF"/>
		<stop  offset="0.1396" style="stop-color:#FFFDFB"/>
		<stop  offset="0.2738" style="stop-color:#FFF8F0"/>
		<stop  offset="0.4058" style="stop-color:#FFEEDC"/>
		<stop  offset="0.5366" style="stop-color:#FFE1C1"/>
		<stop  offset="0.6664" style="stop-color:#FFD09E"/>
		<stop  offset="0.7956" style="stop-color:#FFBC73"/>
		<stop  offset="0.9218" style="stop-color:#FFA441"/>
		<stop  offset="1" style="stop-color:#FF931E"/>
	</linearGradient>
	<path class="st20" d="M5,1251.1c-4.8-24,9.7-52.8,95.8-65.1c15.6-2.2,29-12.1,35.8-26.3c12.1-25.2,38.1-63.8,88.8-78.8
		c4.4-1.3,8.5-3.3,12.4-5.8c31.9-21,80.5-210.6,180.2-61c13.5,20.3,21.7,43.7,46,44.6c27.5,1,58.1,14.4,81.9,57.3
		c8.5,15.4,86.3,171.6,77,171.8c-80.6,1.1-464.5-0.9-571,0.5C29.4,1288.4,9.4,1273.1,5,1251.1z"/>
</g>
<g id="invitation">
	<path id="invitation_x5F_1_1_" class="st21" d="M695.3,511c0,0,45-105.5,46.7-119.4c0,0,109,50.2,240.4,10.4l-66,170.6
		c-3,7.7-10.4,12.7-18.6,12.5c-59.1-1.2-134.5-1.5-145.4-1.5c-45.1,0-74.4-12.1-67.5-36.3C691.8,523.1,695.3,511,695.3,511z"/>
	<path class="st22" d="M738.7,401.5c0,0,51.9,89.9,93.4,83c0,0,58.8,10.4,148.8-83"/>
	
		<ellipse transform="matrix(0.1229 -0.9924 0.9924 0.1229 246.6381 1257.8572)" class="st23" cx="834.9" cy="489.4" rx="13.8" ry="25.9"/>
</g>
<g id="corp_x5F_inviteur">
	<path class="st24" d="M385.7,355.3c18.1-3.8,45.4-6.4,72.6,5.2c55.4,23.7,57.4,84,103.8,124.5c26.1,22.8,72.4,44.7,160.9,34.6
		c5.8-1.1,11.6,2,13.5,7.1c1.2,3.3,0,8.2-6.5,15.4c0,0-19.2,33.9-39.8,39.1c-1.7,0.4-3.4,0.7-5.2,0.7c-22.5,0-91.7,20.8-140.1,0
		c-17.6-7.5-45.3-13-75.3-32.7"/>
	<path class="st22" d="M473.1,557.5"/>
	<path class="st22" d="M473.9,557.7"/>
	<path class="st22" d="M479.1,611.3l-5.2-53.6L479.1,611.3z"/>
	<path class="st25" d="M471.3,564l7.8,43.9c0,0,12.1,64,19,86.5l7.2,36.3c0,0,0.9,4.7,1.4,7.2c7.5,37.9,17.2,87,17.3,88
		c3.5,27.7,20.8,86.5,24.2,124.5c0,0,10.4,133.2,19,148.8c0,0,12.1,121.1,50.2,138.4c0,0,43.2,57.1-6.9,55.3
		c-16.7-0.6-22.9-0.8-23.6-0.8c1.4,0.1,18.5,0.8,18.5,0.8h-22.5c0,0-88.2-19-89.9-34.6c0,0-31.1-19-34.6-143.6
		c-3.5-124.5-15.6-247.3-15.6-247.3l-31.2-37L403.1,957l-25.1,90.9l-9,84.9l-9,34.7c0,0,8.4,44.1,32.6,59.6c0,0,48.4,46.7,27.7,65.7
		c0,0,6.9,20.8-77.8,8.7c0,0-30-9.8-57.8-23.1c-23-11-36.7-35.1-34.7-60.5c1.6-19.3,5.2-47.3,12.9-87.6
		c20.8-109,43.2-249.1,43.2-249.1s6.9-34.6,6.9-60.5c0-15.7,3.1-51.5,4.9-82.8c0.2-2.8,0.6-20.3,0.6-20.3s0.3-24.6-0.3-28.3
		c-3.5-24.2-10.4-153.9-19-166c0,0-8.6-77.8,32.9-124.5c0,0,27.7-43.2,53.6-43.2c26,0,48.4,0,48.4,0h9.5"/>
	<path class="st26" d="M318.2,720.3c0,0,79.6,45,186.8,10.4C505,730.7,406.5,765.3,318.2,720.3z"/>
	<polyline class="st27" points="481.6,561.3 465.3,554.2 411.6,509.3 	"/>
	<path class="st28" d="M532.3,867.4c0,0,15.2,78.3,16.4,89.3s8,81.5,8.9,90.3s23.9,128.6,26.3,136.2c2.4,7.6,13.6,40.8,18.3,40.6
		s4.8,8.5,15.2,13.7c0,0,19.1,23.5,17.3,34.2c0,0,7.3,21.2-20.6,21.1s-29.6,0-29.6,0s-77.1-17.5-86.1-27.8s-23.3-17.4-35.2-87.3
		s-16.3-158.9-21.4-176.1c-5.1-17.2-19.7-153.2-24-159.4L405,945l-21.9,136.3l-7.8,83.5c0,0-0.6,30.1,1.4,36.7s9.8,26.7,20.6,30.5
		c0,0,11.8,9.2,16.5,20.3s10.9,22.4,10.9,22.4s1.1,22.4-8.6,25.4s-42.1,5.3-57.9,3.3s-69.6-16.1-79.9-22.9c-4.4-2.9-8.7-5.7-13-8.8
		c-12.1-8.6-18.7-23-17.5-37.7c0.6-7.4,1.6-14.8,2.5-20.2c2.2-12.7,18.5-115.2,18.5-115.2l27-154.4c0,0,16-98.8,17.5-132.8
		s5-91.1,5-91.1s77.8,43.2,186.8,12.1L532.3,867.4z"/>
	<circle class="st7" cx="428.1" cy="266.2" r="68.3"/>
</g>
<path class="st29" d="M1624.7,302.7c29.8-4.3,55.5-31.9,51.2-61.7s-36.9-50.5-66.7-46.2c-29.8,4.3-50.5,31.9-46.2,61.7
	C1567.2,286.2,1594.8,306.9,1624.7,302.7z"/>
<path class="st30" d="M1583.6,348.8c25.1-3.6,37.6-26.9,34-52.1c-3.6-25.1-26.9-42.6-52.1-39c-25.1,3.6-42.6,26.9-39,52.1
	C1530.2,335,1558.5,352.4,1583.6,348.8z"/>
<path class="st7" d="M1556.6,390.9c31.8-4.6,48.8-34,44.3-65.8c-4.6-31.8-34-53.8-65.8-49.3c-31.8,4.6-53.8,34-49.3,65.8
	C1490.4,373.4,1524.9,395.4,1556.6,390.9z"/>
<path class="st29" d="M1501.7,311.6L1501.7,311.6c2.3-3.4,7-4.3,10.4-2l10.1,6.9c13.8,9.6,29.8,22.7,36.6,38.1
	c3.6,8.2,7.5,17.2,10.7,24.4c4.1,9.5,10.1,18,17.6,25.2c63.7,61.6,91.3,40.2,62.4,35.5l19.8-2.8c4.6-0.7-13.2-14.9-14.7-19.3
	l-37.8-99.7c-0.1-0.4-0.2-0.8-0.3-1.2c-5.3-34.9-39.4-58.7-74.4-53.7l-2,0.3c-24.4,3.4-43.6,20-51.5,41.6
	C1485.4,313.2,1496.7,318.9,1501.7,311.6z"/>
<path class="st31" d="M778.8,1016c0,22.8-18.5,41.2-41.2,41.2s-41.2-18.5-41.2-41.2c0-6.4,1.5-12.5,4.1-17.9
	c6.7-13.8,20.8-23.4,37.2-23.4C760.3,974.7,778.8,993.2,778.8,1016z"/>
<path class="st32" d="M711,1120.7c4.7,0.7,14.2,1.6,25.3-2.1c10.3-3.5,17-9.4,20.3-12.7"/>
<path class="st33" d="M811.9,1080.4c5.6-2.8-42.8,10.3-52.6,15.1c-9.8,4.8-15.9,12.5-13.6,17.3c2.3,4.7,12.2,4.7,22-0.1
	S807.1,1082.7,811.9,1080.4z"/>
<path class="st33" d="M811.2,1080.4c5.6-2.8-44.8,2.5-54.6,7.3s-13.8,20.3-11.5,25s13.9,10.8,23.7,6
	C778.7,1113.9,806.5,1082.7,811.2,1080.4z"/>
<path class="st34" d="M779.6,1097.4"/>
<g>
	<path class="st34" d="M752.6,1110.1c0.8-1.1,2.3-3.3,2.9-6.5c0.4-2.3,0.1-4.2-0.2-5.4"/>
	<path class="st34" d="M760,1095.2c0.3,1.1,0.8,3.2,0.4,5.8c-0.4,2.8-1.7,4.8-2.4,5.8"/>
	<path class="st34" d="M764.5,1105.5c0.5-1.2,1.1-3.3,1.1-6c0-2.3-0.6-4.2-1.1-5.3"/>
	<path class="st34" d="M768.8,1102c0.8-2,1-3.5,1-4.5c0-0.2,0-0.4,0-0.5c-0.1-1.8-0.6-3.2-1-4.1"/>
	<path class="st34" d="M774.5,1099.7c0.3-0.9,0.7-2.1,0.8-3.7c0.1-2.2-0.4-4-0.8-5"/>
	<path class="st34" d="M778.8,1097.4c0.3-0.8,0.6-1.8,0.8-3.1c0.3-2.5-0.3-4.5-0.8-5.5"/>
	<path class="st34" d="M783.5,1095.8c0.3-0.9,0.7-2.3,0.6-4.1c-0.1-1.3-0.4-2.3-0.6-3"/>
</g>
<g>
	<path class="st35" d="M751.7,1117.6c0.5-0.8,1.3-2.2,1.7-4.1c0.3-1.4,0.3-2.6,0.2-3.5c0-0.1,0-0.3,0-0.4"/>
	<path class="st35" d="M759.2,1106.6c0.2,1.4,0.3,3.1-0.1,5.1c-0.4,2.3-1.2,4.1-1.8,5.3"/>
	<path class="st35" d="M764.6,1113.8c0.4-0.9,0.9-2.4,0.9-4.3c0-2.1-0.5-3.8-0.9-4.7"/>
	<path class="st35" d="M770.4,1111.8c0.5-1.3,1-3.3,0.9-5.9c-0.1-1.9-0.5-3.4-0.9-4.5"/>
	<path class="st35" d="M774.9,1109.2c0.4-0.8,1.1-2.5,1.1-4.8s-0.7-4-1.1-4.9"/>
	<path class="st35" d="M779.2,1106.1c0.4-1,0.9-2.7,0.8-4.8c-0.1-1.7-0.4-3-0.8-3.9"/>
	<path class="st35" d="M783.7,1101.5c0.3-0.5,1.4-2.6,0.6-4.7c-0.1-0.3-0.3-0.6-0.6-0.9"/>
	<path class="st35" d="M789.5,1098.7c0.3-0.5,1.4-2.6,0.6-4.7c-0.1-0.3-0.3-0.6-0.6-0.9"/>
</g>
<path class="st34" d="M788.8,1092.9c0.3-0.7,0.6-1.8,0.7-3.3c0.1-1.7-0.4-3.1-0.7-3.9"/>
<path class="st34" d="M793.6,1090.7c0.1-0.6,0.2-1.3,0.2-2.2c0-1.1-0.1-2-0.2-2.6"/>
<path class="st34" d="M797.8,1087.7c0.1-0.2,0.3-0.5,0.4-0.9c0.3-1.3-0.2-2.4-0.4-2.7"/>
<path class="st34" d="M744.6,1113.4c3.9-1.6,49.4-21.8,61.1-30.9"/>
<path class="st32" d="M665,1212.7c-4.6-1.2-13.6-4.4-22.1-12.4c-7.9-7.4-11.7-15.6-13.3-19.9"/>
<path class="st33" d="M589.7,1134.5c-4-4.8,34.7,27,41.7,35.4s9.3,18,5.3,21.3c-4.1,3.4-13-0.7-20-9.1
	C609.7,1173.6,593,1138.5,589.7,1134.5z"/>
<path class="st33" d="M590.2,1134.7c-4-4.8,39.8,20.7,46.8,29.2s4.2,24.2,0.2,27.6c-4.1,3.4-17.1,4.1-24.1-4.3
	C606.1,1178.7,593.6,1138.8,590.2,1134.7z"/>
<path class="st34" d="M612.1,1163.3"/>
<g>
	<path class="st34" d="M631.4,1185.9c-0.3-1.3-0.8-4,0.1-7.1c0.6-2.3,1.6-3.9,2.4-4.9"/>
	<path class="st34" d="M630.9,1169.3c-0.8,0.9-2,2.6-2.7,5.2c-0.8,2.7-0.5,5-0.2,6.2"/>
	<path class="st34" d="M622.5,1176.8c0.1-1.3,0.3-3.5,1.5-5.9c1-2.1,2.3-3.5,3.2-4.4"/>
	<path class="st34" d="M620,1171.9c0-2.1,0.5-3.6,1-4.5c0.1-0.2,0.2-0.4,0.2-0.4c0.8-1.6,1.8-2.6,2.6-3.3"/>
	<path class="st34" d="M615.8,1167.4c0-0.9,0.2-2.2,0.8-3.7c0.8-2.1,2-3.5,2.8-4.2"/>
	<path class="st34" d="M612.8,1163.6c0-0.8,0.2-1.9,0.6-3.1c0.8-2.4,2.1-3.9,3-4.7"/>
	<path class="st34" d="M609.1,1160.2c0.1-0.9,0.3-2.4,1.1-4c0.6-1.1,1.3-1.9,1.8-2.5"/>
</g>
<g>
	<path class="st35" d="M629.2,1193.1c-0.2-1-0.3-2.6,0.1-4.5c0.3-1.4,0.9-2.5,1.3-3.3c0.1-0.1,0.1-0.2,0.2-0.3"/>
	<path class="st35" d="M626.9,1180c-0.7,1.2-1.5,2.7-2,4.6c-0.6,2.3-0.6,4.3-0.5,5.6"/>
	<path class="st35" d="M619,1184.3c0-1,0.2-2.6,0.9-4.3c0.8-2,2.1-3.2,2.8-3.9"/>
	<path class="st35" d="M614.6,1180.2c0.1-1.3,0.4-3.4,1.6-5.7c0.9-1.7,1.9-2.9,2.7-3.8"/>
	<path class="st35" d="M611.5,1176c0-0.9,0-2.8,0.9-4.8c0.9-2.1,2.3-3.4,3-4"/>
	<path class="st35" d="M608.9,1171.3c0.1-1.1,0.3-2.8,1.2-4.7c0.7-1.5,1.6-2.5,2.3-3.2"/>
	<path class="st35" d="M606.6,1165.3c-0.1-0.6-0.2-3,1.4-4.5c0.2-0.2,0.5-0.4,0.9-0.6"/>
	<path class="st35" d="M602.5,1160.3c-0.1-0.6-0.2-3,1.4-4.5c0.2-0.2,0.5-0.4,0.9-0.6"/>
</g>
<path class="st34" d="M605.5,1155.4c0-0.8,0.2-1.9,0.7-3.2c0.7-1.6,1.6-2.7,2.2-3.2"/>
<path class="st34" d="M602,1151.3c0.1-0.6,0.4-1.3,0.7-2.1c0.4-1,0.9-1.8,1.3-2.3"/>
<path class="st34" d="M599.5,1147c0-0.3,0-0.6,0-1c0.2-1.3,1.2-2.1,1.5-2.3"/>
<path class="st34" d="M637.4,1192.3c-2.9-3.1-36-40.2-43-53.3"/>
<path class="st32" d="M680.2,1187.8"/>
<path class="st6" d="M1285.4,1144.9"/>
<radialGradient id="SVGID_13_" cx="583.0316" cy="-425.2981" r="27.2163" gradientTransform="matrix(1 0 0 1 0 598)" gradientUnits="userSpaceOnUse">
	<stop  offset="0" style="stop-color:#E398F4"/>
	<stop  offset="0.9958" style="stop-color:#040505"/>
</radialGradient>
<path class="st36" d="M547.7,160.7l30.9,23.1c0,0,18-24.4,39.9-11.5"/>
<radialGradient id="SVGID_14_" cx="544.3287" cy="-393.2683" r="13.566" gradientTransform="matrix(1 0 0 1 0 598)" gradientUnits="userSpaceOnUse">
	<stop  offset="0" style="stop-color:#E398F4"/>
	<stop  offset="0.9958" style="stop-color:#040505"/>
</radialGradient>
<path class="st37" d="M527.4,198.7l14.8,11.1c0,0,8.6-11.7,19.2-5.5"/>
<radialGradient id="SVGID_15_" cx="686.1826" cy="-413.5219" r="17.753" gradientTransform="matrix(1 0 0 1 0 598)" gradientUnits="userSpaceOnUse">
	<stop  offset="0" style="stop-color:#E398F4"/>
	<stop  offset="0.9958" style="stop-color:#040505"/>
</radialGradient>
<path class="st38" d="M663.7,176.7l19.7,14.7c0,0,11.5-15.6,25.4-7.4"/>
<radialGradient id="SVGID_16_" cx="1425.0162" cy="-482.5856" r="240.1947" gradientTransform="matrix(1 0 0 1 0 598)" gradientUnits="userSpaceOnUse">
	<stop  offset="0" style="stop-color:#CCE0F4"/>
	<stop  offset="0.1808" style="stop-color:#D2BDF6"/>
	<stop  offset="0.224" style="stop-color:#CED7F5"/>
	<stop  offset="0.3248" style="stop-color:#D994F9"/>
	<stop  offset="0.4926" style="stop-color:#E35BFD"/>
	<stop  offset="0.5674" style="stop-color:#E83FFF"/>
	<stop  offset="0.8652" style="stop-color:#0075BE"/>
</radialGradient>
<circle class="st39" cx="1463.4" cy="108.9" r="45.9"/>
<linearGradient id="SVGID_17_" gradientUnits="userSpaceOnUse" x1="1571.6196" y1="92.8929" x2="1728.5" y2="92.8929">
	<stop  offset="0" style="stop-color:#FFFFFF"/>
	<stop  offset="1" style="stop-color:#000000"/>
</linearGradient>
<ellipse class="st40" cx="1650.1" cy="92.9" rx="77.9" ry="47.3"/>
<linearGradient id="SVGID_18_" gradientUnits="userSpaceOnUse" x1="1618.9034" y1="120.4839" x2="1775.7838" y2="120.4839">
	<stop  offset="0" style="stop-color:#FFFFFF"/>
	<stop  offset="0.1031" style="stop-color:#FAFAFA"/>
	<stop  offset="0.2268" style="stop-color:#EBEBEB"/>
	<stop  offset="0.361" style="stop-color:#D3D3D3"/>
	<stop  offset="0.5028" style="stop-color:#B1B1B1"/>
	<stop  offset="0.6504" style="stop-color:#868686"/>
	<stop  offset="0.8031" style="stop-color:#505050"/>
	<stop  offset="0.957" style="stop-color:#131313"/>
	<stop  offset="1" style="stop-color:#000000"/>
</linearGradient>
<ellipse class="st41" cx="1697.3" cy="120.5" rx="77.9" ry="34.3"/>
<linearGradient id="SVGID_19_" gradientUnits="userSpaceOnUse" x1="1683.1428" y1="154.825" x2="1709.2142" y2="154.825">
	<stop  offset="0" style="stop-color:#FFFFFF"/>
	<stop  offset="1" style="stop-color:#000000"/>
</linearGradient>
<ellipse class="st42" cx="1696.2" cy="154.8" rx="12.5" ry="0"/>
<linearGradient id="SVGID_20_" gradientUnits="userSpaceOnUse" x1="1539.7142" y1="116.0056" x2="1728.5" y2="116.0056">
	<stop  offset="0" style="stop-color:#FFFFFF"/>
	<stop  offset="0.1031" style="stop-color:#FAFAFA"/>
	<stop  offset="0.2268" style="stop-color:#EBEBEB"/>
	<stop  offset="0.361" style="stop-color:#D3D3D3"/>
	<stop  offset="0.5028" style="stop-color:#B1B1B1"/>
	<stop  offset="0.6504" style="stop-color:#868686"/>
	<stop  offset="0.8031" style="stop-color:#505050"/>
	<stop  offset="0.957" style="stop-color:#131313"/>
	<stop  offset="1" style="stop-color:#000000"/>
</linearGradient>
<path class="st43" d="M1634.1,116.6h93.9c0-12.9-42.4-23.5-93.9-23.5c-51.5,0-93.9,10.6-93.9,23.5c0,10.1,25.9,19.1,64.1,22.3
	L1634.1,116.6z"/>
</svg>
