<?xml version="1.0" encoding="utf-8"?><svg version="1.1" id="Layer_1" xmlns="http://www.w3.org/2000/svg" xmlns:xlink="http://www.w3.org/1999/xlink" x="0px" y="0px" viewBox="0 0 841.9 595.3" style="enable-background:new 0 0 841.9 595.3;" xml:space="preserve"><style type="text/css">.st0{fill:#9F684D}.st1{fill:#565B45}.st2{fill:#13171E}.st3{fill:#0C0D17}.st4{fill:#121028}.st5{fill:#8B8E82}.st6{fill:#FFF}.st7{fill:#0F0A0F}.st8{fill:#FFF;stroke:#000;stroke-miterlimit:10}.st9{fill:#D0D88B;stroke:#000;stroke-miterlimit:10}.st10{fill:#D0D88B}.st11{fill:#F4EFF0}.st12{fill:#172239;stroke:#000;stroke-miterlimit:10}.st13{fill:#AC704D}.st14{fill:#030403}.st15{fill:#E0E0E0}.st16{fill:#1F2313}.st17{fill:#171716}.st18{fill:none;stroke:#030403;stroke-width:0.25;stroke-miterlimit:10}.st19{fill:#050606}.st20{fill:#B0ADAD}.st21{fill:#DDDBDB}.st22{fill:#282626}.st23{opacity:0.42;fill:none;stroke:#130E0E;stroke-width:0.25;stroke-miterlimit:10}.st24{opacity:0.5;fill:#1A1616}</style><path class="st0" d="M695.6,279.3c0.3-0.6,0.7-1.2,1-1.8c0.1-0.2,0.2-0.5,0.3-0.7l2.2-15.3c0.2-1.3,1.7-2.2,3.2-1.8l6.5,1.6 c1.4,0.4,2.4,1.7,2,2.9l-2.7,10.6c-0.1,0.3-0.1,0.5,0,0.8l2.3,13.7c0.2,1.4-0.3,2.7-1.4,3.5c-2.6,2-7.6,5.1-11.1,3.2l-5.4-1.2 c0,0-3.8-4.2,0.8-3.3l2.6,0.5c1.2,0.2,2.4-0.3,2.8-1.2c1.2-2.6,3.1-7.5-0.1-8.9l-0.3,1.1"/> <path class="st1" d="M693.2,154c0,0-0.5-12.5,8.3-27.6c0,0,25.9,44.8,26.8,75.2c0,0-7.1,34.3-16.5,63.3h-15c0,0,2.8-32.8,8.3-58.6 C705.3,206.3,692.8,167.4,693.2,154z"/> <path class="st0" d="M610.1,82.6c0,0,8.8,9.1,0,25c0,0-10.2,21.2-17.1,22.8l68.8-0.1c0,0-11.9-17.9-16.8-23.7c0,0-5.4-7.9-1.5-24 H610.1z"/> <path class="st2" d="M713.4,499.1l-12.5,10.2l13.5,19c-1.4,7,0.1,10-1.7,12.9c-5.4,8.7-13,13-11.1,20.9c0.3,1.3,1.5,1.8,1.9,2.4 c9.1-7.6,21.4-17.8,30.5-25.4c0.5-0.4,1.7,2.1,2.2,1.7c2.3-1.9,6-5,6.1-5.5c0.1-0.3,0-0.5,0-0.5c0,0,0-0.2-0.1-0.5 c-0.2-0.4-3.6-4.4-8.4-9.9L713.4,499.1z"/> <path class="st2" d="M621,541.3v3.2c0,0.9-0.3,1.8-0.8,2.6c-1.4,2.2-4.2,7.2-4.1,12.6c0,0.3,0,0.6,0.1,0.9c0.3,1.3,1,2.6,1.4,4.2 c1,4.1,17.1,2.8,20.3,1.9c1.2-0.3,2.1-2.3,2.5-4.2c0,0,1.6-6-3.9-15.1c-0.5-0.8-0.8-1.7-0.8-2.6v-3.7c0-3-2.8-5.4-6.3-5.4h-2.1 C623.8,535.9,621,538.3,621,541.3z"/> <path class="st1" d="M574,167.2c0,0,14.6-37.2-8-43.7c0,0-44.2,23.1-78.1,48c0,0-19.8,7.3-50.7,21.5c-31.7,14.5-32.1,12.4-32.1,12.4 l3.5,19c0,0,59.6-14.3,87.9-26.8C496.5,197.6,565.7,168.4,574,167.2z"/> <path class="st3" d="M653.1,257.5c-13-9.9-48.9-29.2-83.6,7c0,0,0,0.1,0,0.3c-2.2,27.7,7.1,41.9,15.6,68 c7.7,23.9,19.3,52.7,33.7,74.6c7.1,10.8,22.7,31.4,29.9,42.1c19.5,28.6,36,51.2,57.4,82.2l23.8-19.9l-64.5-119.9 c0,0-21-50.7-8.4-122.5l0,0C659.2,268,655.2,259.1,653.1,257.5z"/> <path class="st4" d="M671,334.9l-25.7,209.6l-31.6-1.3c2.2-108.7,7.3-198.9,5.6-229.4c-0.7-12.5,1.7-9.8,3-17.1 c1.7-9.6,2.6-9.4,3-13.1c2.1-18,4.4-22.6,2.1-36.5c-0.2-1.4-0.9-3.5,0.2-5.6c3-5.9,16.8-5.8,39-5.9c10.6,0,18.9,9.1,18,19.7 c-1.3,15.3-3.3,35.3-5.9,43.3C675,310.4,672.6,322.6,671,334.9z"/> <path class="st5" d="M565.1,124.1c0,0,19.3-8.1,29.1-10.7c0,0,10.6-6,14.8-4.4c0,0,25.9,11.3,40.3,0c0,0,11.6-0.1,16.2,2 c0,0,9,2,16.1,4.9c1.9,0.8,6.6,1.3,8,2.7c2.4,2.4,7.3,6.7,11.9,7.7c0,0-11.6,26.8-5.6,42.6c0,0-11.8,70.6-9.1,98.7 c0.4,4.4-3,8.2-7.4,8.2l-17.8,0c-2,0.1-16.3,0.6-27.1-11c-11-11.8-8.9-17.7-7.8-23.6c0.3,2.6,0.1,10-8.6,21.2 c-9.4,12.1-23,13.6-25.3,13.8c-6.5-0.1-13-0.3-19.5-0.4c-3.7,0-6.6-3.2-6.2-6.8c2-20.5,9.7-87.2,5.9-103.8 C573.3,165.2,575.2,150.9,565.1,124.1z"/> <path class="st6" d="M603.1,118.2c-2.5,5.5-3.9,17.3-2.3,33.9c1.5,16.1,4.8,28.2,8.3,33.2c6.6,10.6,13.1,21.3,19.7,31.9l23.7-31 c3-6.8,5.7-20.7,4.5-38.8c-1.1-17.6-5.3-30.4-9-36.8c-4.5,2-14,5.5-26.1,4.1c-7.2-0.8-11.6-2.5-15.4-4.4 C605.8,113.2,603.8,115.4,603.1,118.2z"/> <path class="st7" d="M635.6,162.4l-4.3-30c0.4,0.3,0.6,0.5,0.6,0.5l3.1-11.5c-5.2,3.8-15.6,0-15.6,0l6.2,11.5 c0.2-0.2,0.4-0.3,0.6-0.5l-2.1,30.6L635.6,162.4z"/> <path class="st8" d="M118.1,295.6c-5.4,0-9.7,4.3-9.7,9.7l0,0v223.1c0,12.2,9.9,22.1,22.1,22.1h306.3c13.7,0,24.8-11.1,24.8-24.8 V305.3c0-5.4-4.3-9.7-9.7-9.7H118.1z"/> <path class="st9" d="M450.2,227.6H119.8c-3.9,0-7,3.2-7,7v269c0,3.9,3.2,7,7,7h330.5c3.9,0,7-3.2,7-7v-269 C457.3,230.8,454.1,227.6,450.2,227.6z"/> <g> <line class="st10" x1="238.8" y1="266.6" x2="339.9" y2="266.6"/> <g> <path class="st11" d="M238.8,269.1c29.5,0,59,0,88.6,0c4.2,0,8.4,0,12.6,0c3.2,0,3.2-5,0-5c-29.5,0-59,0-88.6,0 c-4.2,0-8.4,0-12.6,0C235.6,264.1,235.6,269.1,238.8,269.1L238.8,269.1z"/> </g> </g> <g> <line class="st10" x1="153.6" y1="292.8" x2="416.4" y2="292.8"/> <g> <path class="st11" d="M153.6,295.3c29.6,0,59.1,0,88.7,0c47.1,0,94.3,0,141.4,0c10.9,0,21.7,0,32.6,0c3.2,0,3.2-5,0-5 c-29.6,0-59.1,0-88.7,0c-47.1,0-94.3,0-141.4,0c-10.9,0-21.7,0-32.6,0C150.4,290.3,150.4,295.3,153.6,295.3L153.6,295.3z"/> </g> </g> <g> <line class="st10" x1="153.6" y1="323.1" x2="416.4" y2="323.1"/> <g> <path class="st11" d="M153.6,325.6c29.6,0,59.1,0,88.7,0c47.1,0,94.3,0,141.4,0c10.9,0,21.7,0,32.6,0c3.2,0,3.2-5,0-5 c-29.6,0-59.1,0-88.7,0c-47.1,0-94.3,0-141.4,0c-10.9,0-21.7,0-32.6,0C150.4,320.6,150.4,325.6,153.6,325.6L153.6,325.6z"/> </g> </g> <g> <line class="st10" x1="153.6" y1="352.1" x2="416.4" y2="352.1"/> <g> <path class="st11" d="M153.6,354.6c29.6,0,59.1,0,88.7,0c47.1,0,94.3,0,141.4,0c10.9,0,21.7,0,32.6,0c3.2,0,3.2-5,0-5 c-29.6,0-59.1,0-88.7,0c-47.1,0-94.3,0-141.4,0c-10.9,0-21.7,0-32.6,0C150.4,349.6,150.4,354.6,153.6,354.6L153.6,354.6z"/> </g> </g> <g> <line class="st10" x1="153.6" y1="376.1" x2="416.4" y2="376.1"/> <g> <path class="st11" d="M153.6,378.6c29.6,0,59.1,0,88.7,0c47.1,0,94.3,0,141.4,0c10.9,0,21.7,0,32.6,0c3.2,0,3.2-5,0-5 c-29.6,0-59.1,0-88.7,0c-47.1,0-94.3,0-141.4,0c-10.9,0-21.7,0-32.6,0C150.4,373.6,150.4,378.6,153.6,378.6L153.6,378.6z"/> </g> </g> <g> <line class="st10" x1="153.6" y1="401.3" x2="416.4" y2="401.3"/> <g> <path class="st11" d="M153.6,403.8c29.6,0,59.1,0,88.7,0c47.1,0,94.3,0,141.4,0c10.9,0,21.7,0,32.6,0c3.2,0,3.2-5,0-5 c-29.6,0-59.1,0-88.7,0c-47.1,0-94.3,0-141.4,0c-10.9,0-21.7,0-32.6,0C150.4,398.8,150.4,403.8,153.6,403.8L153.6,403.8z"/> </g> </g> <g> <line class="st10" x1="153.6" y1="450.5" x2="416.4" y2="450.5"/> <g> <path class="st11" d="M153.6,453c29.6,0,59.1,0,88.7,0c47.1,0,94.3,0,141.4,0c10.9,0,21.7,0,32.6,0c3.2,0,3.2-5,0-5 c-29.6,0-59.1,0-88.7,0c-47.1,0-94.3,0-141.4,0c-10.9,0-21.7,0-32.6,0C150.4,448,150.4,453,153.6,453L153.6,453z"/> </g> </g> <polygon class="st8" points="108.4,310.8 108.4,532.4 233,429.9 "/> <polygon class="st8" points="461.6,308.1 461.6,532.4 334.2,429.9 "/> <path class="st8" d="M108.4,535c0-1.6,0.6-3.2,1.6-4.4l118.9-138c0,0,49.8-52.6,99.7,0l131.3,138.1c1.1,1.2,1.8,2.7,1.8,4.3l0,0 c0,8.5-6.9,15.5-15.5,15.5H119.3c-6.1,0-11-4.9-11-11V535z"/> <circle class="st12" cx="416.4" cy="246.7" r="64.1"/> <path class="st8" d="M439.2,222.8c0-12.6-10.2-22.8-22.8-22.8c-12.6,0-22.8,10.2-22.8,22.8c0,9.1,5.3,16.9,12.9,20.6 c0.2,0.1,0.5,0.2,0.8,0.3v40.5c0,5.1,4.1,9.2,9.2,9.2c5.1,0,9.2-4.1,9.2-9.2v-40.5C433.6,240.2,439.2,232.2,439.2,222.8z"/> <path class="st0" d="M648.2,62.7c0,0,0.6-2.1,1.8-2.1c1.1-0.1,1.9,1,2,1.8c0,0.2,0,0.4-0.1,0.5c-0.2,0.2-0.5,0.5-0.7,0.8 c-1.1,1.7-0.7,3.7-0.5,4.3c-0.1,0.5-0.1,1.1-0.1,1.7c0.1,1.4,0.4,2.6,0.8,3.4c-0.1,0.6-0.6,1-1.1,1c-0.6,0.1-1.3-0.4-1.5-1.1 l-1.3-2.1l-1.9-1l-0.2-4.9L648.2,62.7z"/> <path class="st13" d="M611,42.1c6.5-4.4,20.8-11.3,34.1,2.2c1.8,1.8,2.8,4.2,3.1,6.7c0.8,7.4,2,24.3-2.2,34.7 c-0.4,0.9-0.9,1.7-1.5,2.5c-2.1,2.7-7.4,8.8-14,10.9c-2.1,0.7-4.4,0.6-6.5-0.1c-4.2-1.3-12-4.5-15-10.9c0,0-7.5-17.9-2.7-39.1 C607,46.1,608.7,43.7,611,42.1z"/> <path class="st14" d="M602.6,53.8c0,0,1.2-9.9,6.3-18.8c0,0,14.7-16.8,34.2,0c0,0,8.9,5.1,5.5,12c0,0,5,8.9,1.3,12.7 c0,0-1.6-9.6-13.2-15.4c0,0,0.5,9.6-15.6,12.7c0,0-12.6,5.8-15.7,13.3L602.6,53.8z"/> <path class="st15" d="M649.7,109c-2.1,1.5-5.7,3.6-10.6,4.7c-4.1,0.9-7.6,0.8-10,0.5l2.7,10.1c0,0,16.2-1.3,18.2-9 c0.3-1,0.3-2.4-0.2-4.2"/> <path class="st15" d="M605.5,109c1.9-1.2,5,2.2,11,4.1c3.6,1.2,6.9,1.3,9.2,1.3l-2.5,10c-1-0.1-16.6-1.9-18.6-9.9 C604.2,112.7,604.1,109.9,605.5,109z"/> <circle class="st7" cx="627.5" cy="116.3" r="2.4"/> <path class="st16" d="M649.7,109.6c0,0,5.1,73.1-20,107.8c0,0,39.7-31.1,35.1-88.1l-7.9,5.8C656.9,135.2,662.5,123,649.7,109.6z"/> <path class="st16" d="M649.7,148.5"/> <path class="st16" d="M609.5,150.8"/> <circle class="st17" cx="629.1" cy="171.8" r="1.5"/> <circle class="st17" cx="629.7" cy="187.1" r="1.5"/> <circle class="st17" cx="630.6" cy="203.5" r="1.5"/> <circle class="st17" cx="630.6" cy="231.7" r="2.1"/> <path class="st18" d="M629.1,215.3l2.1,2c0,0-4.3,8.8-5.9,32.4"/> <rect x="665.1" y="160.3" class="st16" width="16.1" height="2.7"/> <polygon class="st5" points="697.1,264.8 712,264.8 711.6,266.5 696.9,266.7 "/> <path class="st19" d="M700.8,282.4c-4.5-2.7-10-1-12.2,3.8c-1.9,4.1-0.7,9.2,2.6,12.2l-9.9,21.3c0,0,0.8,4.9,5.2,3.1l1.7-3.7 l4.8,2.8l1.9-4l-5.1-2.7l6.6-14.3c3.5,0.4,7-1.4,8.7-5C707.3,291.1,705.4,285,700.8,282.4z M698.2,294.3c-1.9,0.6-4-0.5-4.8-2.7 c-0.7-2.1,0.3-4.3,2.2-5c1.9-0.6,4,0.5,4.8,2.7C701.1,291.4,700.1,293.7,698.2,294.3z"/> <path class="st4" d="M618,262.7l-2.3,30.3c0,0,4.8,12.6,12.7,10.6l2.1-42.8l-5.2-10.9L618,262.7z"/> <path class="st16" d="M604.4,109.4c0,0,3.6,77.9,26.7,108.8c0,0-43.5-30.9-39.7-87.7l8.1,5.4C599.6,136,592.2,123.4,604.4,109.4z"/> <path class="st20" d="M622.8,84.6c0,0,6.5,1.9,11.7,0C634.5,84.6,628.3,95.3,622.8,84.6z"/> <ellipse class="st21" cx="618.3" cy="67.8" rx="2.9" ry="1.5"/> <ellipse class="st21" cx="637.4" cy="67.7" rx="2.9" ry="1.5"/> <circle class="st22" cx="637.4" cy="67.7" r="0.5"/> <circle class="st22" cx="618.2" cy="67.9" r="0.5"/> <path class="st23" d="M629.3,74.2c-0.4,0.7-0.6,1.5-0.4,2.3c0.3,0.8,0.9,1.2,1,1.3c0.6,0.2,0.9,0.6,0.9,0.9c0,0.1-0.2,0.5-0.5,0.7 c0,0-0.9,0.5-1.7-0.1c-0.1-0.1-0.1-0.1-0.2-0.2c-0.5-0.2-0.9,0.1-1,0.2c-0.1,0.1-0.3,0.3-0.7,0.3c-0.5,0.1-0.8-0.2-0.9-0.3 c0,0-0.1-0.3-0.1-0.6c0.1-0.2,0.3-0.4,0.5-0.4"/> <path class="st24" d="M613,65c0,0,5.4-3.2,7.9-1.5v1C620.8,64.5,618.3,63.7,613,65z"/> <path class="st24" d="M642.7,65c0,0-5.4-3.2-7.9-1.5v1C634.9,64.5,637.5,63.7,642.7,65z"/> <circle class="st17" cx="629.9" cy="216.1" r="2.1"/> <path class="st0" d="M700.1,279.6l-4.2,10c0,0-1.3,3.6-4.1-0.5c0,0,0.3-3.3,3.9-10.2"/> </svg>