<svg id="hero-1920" xmlns="http://www.w3.org/2000/svg" xmlns:xlink="http://www.w3.org/1999/xlink" viewBox="0 0 4090 1064.9"><defs><style>.cls-1{fill:none;}.cls-2{opacity:0.5;isolation:isolate;fill:url(#radial-gradient);}.cls-3{fill:#f8f8f8;}.cls-4{fill:#eee;}.cls-5{clip-path:url(#clip-path);}.cls-6{fill:url(#linear-gradient);}.cls-7{fill:url(#linear-gradient-2);}.cls-8{fill:url(#linear-gradient-3);}.cls-9{fill:url(#linear-gradient-4);}.cls-10{fill:url(#linear-gradient-5);}.cls-11{fill:url(#linear-gradient-6);}.cls-12{fill:url(#linear-gradient-7);}.cls-13{fill:url(#linear-gradient-8);}.cls-14{fill:url(#linear-gradient-9);}.cls-15{fill:url(#linear-gradient-10);}.cls-16{fill:url(#linear-gradient-11);}.cls-17{fill:url(#linear-gradient-12);}.cls-18{fill:url(#linear-gradient-13);}.cls-19{fill:url(#linear-gradient-14);}.cls-20{fill:url(#linear-gradient-15);}.cls-21{fill:url(#linear-gradient-16);}.cls-22{fill:url(#linear-gradient-17);}.cls-23{fill:url(#linear-gradient-18);}.cls-24{fill:url(#linear-gradient-19);}.cls-25{fill:url(#linear-gradient-20);}.cls-26{fill:url(#linear-gradient-21);}.cls-27{fill:url(#linear-gradient-22);}.cls-28{fill:url(#linear-gradient-23);}.cls-29{fill:url(#linear-gradient-24);}.cls-30{fill:url(#linear-gradient-25);}.cls-31{fill:url(#linear-gradient-26);}.cls-32{fill:url(#linear-gradient-27);}.cls-33{fill:url(#linear-gradient-28);}.cls-34{fill:url(#linear-gradient-29);}.cls-35{fill:url(#linear-gradient-30);}.cls-36{fill:url(#linear-gradient-31);}.cls-37{fill:url(#linear-gradient-32);}.cls-38{fill:url(#linear-gradient-33);}.cls-39{fill:url(#linear-gradient-34);}.cls-40{fill:url(#linear-gradient-35);}.cls-41{fill:url(#linear-gradient-36);}.cls-42{fill:url(#linear-gradient-37);}.cls-43{fill:url(#linear-gradient-38);}.cls-44{fill:url(#linear-gradient-39);}.cls-45{fill:url(#linear-gradient-40);}.cls-46{fill:url(#linear-gradient-41);}.cls-47{fill:url(#linear-gradient-42);}.cls-48{fill:url(#linear-gradient-43);}.cls-49{fill:url(#linear-gradient-44);}.cls-50{fill:url(#linear-gradient-45);}.cls-51{fill:url(#linear-gradient-46);}.cls-52{fill:url(#linear-gradient-47);}.cls-53{fill:url(#linear-gradient-48);}.cls-54{fill:url(#linear-gradient-49);}.cls-55{fill:url(#linear-gradient-50);}.cls-56{fill:url(#linear-gradient-51);}.cls-57{fill:url(#linear-gradient-52);}.cls-58{fill:url(#linear-gradient-53);}.cls-59{fill:url(#linear-gradient-54);}.cls-60{fill:url(#linear-gradient-55);}.cls-61{fill:url(#linear-gradient-56);}.cls-62{fill:url(#linear-gradient-57);}.cls-63{fill:url(#linear-gradient-58);}.cls-64{fill:url(#linear-gradient-59);}.cls-65{fill:url(#linear-gradient-60);}.cls-66{fill:url(#linear-gradient-61);}.cls-67{fill:url(#linear-gradient-62);}.cls-68{fill:url(#linear-gradient-63);}.cls-69{fill:url(#linear-gradient-64);}.cls-70{fill:url(#linear-gradient-65);}.cls-71{fill:url(#linear-gradient-66);}.cls-72{fill:url(#linear-gradient-67);}.cls-73{fill:url(#linear-gradient-68);}.cls-74{fill:url(#linear-gradient-69);}.cls-75{fill:url(#linear-gradient-70);}.cls-76{fill:url(#linear-gradient-71);}.cls-77{fill:url(#linear-gradient-72);}.cls-78{fill:url(#linear-gradient-73);}.cls-79{fill:url(#linear-gradient-74);}.cls-80{fill:url(#linear-gradient-75);}.cls-81{fill:url(#linear-gradient-76);}.cls-82{fill:url(#linear-gradient-77);}.cls-83{fill:url(#linear-gradient-78);}.cls-84{fill:url(#linear-gradient-79);}.cls-85{fill:url(#linear-gradient-80);}.cls-86{fill:url(#linear-gradient-81);}.cls-87{fill:url(#linear-gradient-82);}.cls-88{fill:url(#linear-gradient-83);}.cls-89{fill:url(#linear-gradient-84);}.cls-90{fill:url(#linear-gradient-85);}.cls-91{fill:url(#linear-gradient-86);}.cls-92{fill:url(#linear-gradient-87);}.cls-93{fill:url(#linear-gradient-88);}.cls-94{fill:#fff;}.cls-95{fill:url(#linear-gradient-89);}.cls-96{fill:url(#linear-gradient-90);}.cls-97{fill:url(#linear-gradient-91);}.cls-98{fill:url(#linear-gradient-92);}.cls-99{fill:url(#linear-gradient-93);}.cls-100{fill:url(#linear-gradient-94);}.cls-101{fill:url(#linear-gradient-95);}.cls-102{fill:url(#linear-gradient-96);}.cls-103{fill:url(#linear-gradient-97);}.cls-104{fill:url(#linear-gradient-98);}.cls-105{fill:url(#linear-gradient-99);}.cls-106{fill:url(#linear-gradient-100);}.cls-107{fill:url(#linear-gradient-101);}.cls-108{fill:url(#linear-gradient-102);}.cls-109{fill:url(#linear-gradient-103);}.cls-110{fill:url(#linear-gradient-104);}.cls-111{fill:url(#linear-gradient-105);}.cls-112{fill:url(#linear-gradient-106);}.cls-113{fill:url(#linear-gradient-107);}.cls-114{fill:url(#linear-gradient-108);}.cls-115{fill:url(#linear-gradient-109);}.cls-116{fill:url(#linear-gradient-110);}.cls-117{fill:url(#linear-gradient-111);}.cls-118{fill:url(#linear-gradient-112);}.cls-119{fill:url(#linear-gradient-113);}.cls-120{fill:url(#linear-gradient-114);}.cls-121{fill:url(#linear-gradient-115);}.cls-122{fill:url(#linear-gradient-116);}.cls-123{fill:url(#linear-gradient-117);}.cls-124{fill:url(#linear-gradient-118);}.cls-125{fill:url(#linear-gradient-119);}.cls-126{fill:url(#linear-gradient-120);}.cls-127{fill:url(#linear-gradient-121);}.cls-128{fill:url(#linear-gradient-122);}.cls-129{fill:url(#linear-gradient-123);}.cls-130{fill:url(#linear-gradient-124);}.cls-131{fill:url(#linear-gradient-125);}.cls-132{fill:url(#linear-gradient-126);}.cls-133{fill:url(#linear-gradient-127);}.cls-134{fill:url(#linear-gradient-128);}.cls-135{fill:url(#linear-gradient-129);}.cls-136{fill:url(#linear-gradient-130);}.cls-137{fill:url(#linear-gradient-131);}.cls-138{fill:url(#linear-gradient-132);}.cls-139{fill:url(#linear-gradient-133);}.cls-140{fill:url(#linear-gradient-134);}.cls-141{fill:url(#linear-gradient-135);}.cls-142{fill:url(#linear-gradient-136);}.cls-143{fill:url(#linear-gradient-137);}.cls-144{fill:url(#linear-gradient-138);}.cls-145{fill:url(#linear-gradient-139);}.cls-146{fill:url(#linear-gradient-140);}.cls-147{fill:url(#linear-gradient-141);}.cls-148{fill:url(#linear-gradient-142);}.cls-149{fill:url(#linear-gradient-143);}.cls-150{fill:url(#linear-gradient-144);}.cls-151{fill:url(#linear-gradient-145);}.cls-152{fill:url(#linear-gradient-146);}.cls-153{fill:url(#linear-gradient-147);}.cls-154{fill:url(#linear-gradient-148);}.cls-155{fill:url(#linear-gradient-149);}.cls-156{fill:url(#linear-gradient-150);}.cls-157{fill:url(#linear-gradient-151);}.cls-158{fill:url(#linear-gradient-152);}.cls-159{fill:url(#linear-gradient-153);}.cls-160{fill:url(#linear-gradient-154);}.cls-161{fill:url(#linear-gradient-155);}.cls-162{fill:url(#linear-gradient-156);}.cls-163{fill:url(#linear-gradient-157);}.cls-164{fill:url(#linear-gradient-158);}.cls-165{fill:url(#linear-gradient-159);}.cls-166{fill:url(#linear-gradient-160);}.cls-167{fill:url(#linear-gradient-161);}.cls-168{fill:url(#linear-gradient-162);}.cls-169{fill:url(#linear-gradient-163);}.cls-170{fill:url(#linear-gradient-164);}.cls-171{fill:url(#linear-gradient-165);}.cls-172{fill:url(#linear-gradient-166);}.cls-173{fill:url(#linear-gradient-167);}.cls-174{fill:url(#linear-gradient-168);}.cls-175{fill:url(#linear-gradient-169);}.cls-176{fill:url(#linear-gradient-170);}.cls-177{fill:url(#linear-gradient-171);}.cls-178{fill:url(#linear-gradient-172);}.cls-179{fill:url(#linear-gradient-173);}.cls-180{fill:url(#linear-gradient-174);}.cls-181{fill:url(#linear-gradient-175);}</style><radialGradient id="radial-gradient" cx="2451.2" cy="533.38" r="539.2" gradientTransform="matrix(1, 0, 0, -0.85, 0, 914.89)" gradientUnits="userSpaceOnUse"><stop offset="0" stop-color="#20c6eb"/><stop offset="1" stop-color="#2084eb" stop-opacity="0"/></radialGradient><clipPath id="clip-path" transform="translate(0 -6.7)"><path class="cls-1" d="M0,60H4090V605.4c-630.7,0-871.5-289.3-1089.5-74.4-96,94.6-137.2,253.8-445.4,270.3s-351.8-86.8-502.5-54.9S1754.7,977,1466.4,977.5c-444.6.9-414.6-240.8-890.2-130.9C380.7,891.6,293.3,1014.7,0,1019.1Z"/></clipPath><linearGradient id="linear-gradient" x1="2450.45" y1="-163.44" x2="2970.82" y2="434.98" gradientTransform="translate(0 484.72)" gradientUnits="userSpaceOnUse"><stop offset="0" stop-color="#0071eb" stop-opacity="0.6"/><stop offset="1" stop-color="#2032eb"/></linearGradient><linearGradient id="linear-gradient-2" x1="2615.53" y1="3451.29" x2="2263.92" y2="3768.01" gradientTransform="matrix(1, 0, 0, -1, 0, 4255.64)" gradientUnits="userSpaceOnUse"><stop offset="0" stop-color="#fff"/><stop offset="1" stop-color="#65c8f8"/></linearGradient><linearGradient id="linear-gradient-3" x1="2744.93" y1="3594.94" x2="2393.32" y2="3911.66" xlink:href="#linear-gradient-2"/><linearGradient id="linear-gradient-4" x1="2704.64" y1="3550.21" x2="2353.03" y2="3866.93" xlink:href="#linear-gradient-2"/><linearGradient id="linear-gradient-5" x1="2489.55" y1="3637.61" x2="2206.82" y2="3892.3" xlink:href="#linear-gradient-2"/><linearGradient id="linear-gradient-6" x1="2809.33" y1="3666.42" x2="2457.72" y2="3983.15" xlink:href="#linear-gradient-2"/><linearGradient id="linear-gradient-7" x1="2814.05" y1="3671.66" x2="2462.44" y2="3988.39" xlink:href="#linear-gradient-2"/><linearGradient id="linear-gradient-8" x1="2735.81" y1="3584.81" x2="2384.21" y2="3901.54" xlink:href="#linear-gradient-2"/><linearGradient id="linear-gradient-9" x1="2721.97" y1="3569.45" x2="2370.36" y2="3886.17" xlink:href="#linear-gradient-2"/><linearGradient id="linear-gradient-10" x1="2839.65" y1="3700.08" x2="2488.04" y2="4016.81" xlink:href="#linear-gradient-2"/><linearGradient id="linear-gradient-11" x1="2582.64" y1="3414.77" x2="2231.03" y2="3731.5" xlink:href="#linear-gradient-2"/><linearGradient id="linear-gradient-12" x1="2740.48" y1="3590" x2="2388.88" y2="3906.73" xlink:href="#linear-gradient-2"/><linearGradient id="linear-gradient-13" x1="2742.86" y1="3592.64" x2="2391.25" y2="3909.36" xlink:href="#linear-gradient-2"/><linearGradient id="linear-gradient-14" x1="2741.03" y1="3590.61" x2="2389.43" y2="3907.34" xlink:href="#linear-gradient-2"/><linearGradient id="linear-gradient-15" x1="2758.9" y1="3610.44" x2="2407.29" y2="3927.17" xlink:href="#linear-gradient-2"/><linearGradient id="linear-gradient-16" x1="2744.76" y1="3594.75" x2="2393.16" y2="3911.48" xlink:href="#linear-gradient-2"/><linearGradient id="linear-gradient-17" x1="2724.34" y1="3572.07" x2="2372.73" y2="3888.8" xlink:href="#linear-gradient-2"/><linearGradient id="linear-gradient-18" x1="2790.44" y1="3645.46" x2="2438.83" y2="3962.18" xlink:href="#linear-gradient-2"/><linearGradient id="linear-gradient-19" x1="2847.03" y1="3708.28" x2="2495.42" y2="4025.01" xlink:href="#linear-gradient-2"/><linearGradient id="linear-gradient-20" x1="2839.09" y1="3699.47" x2="2487.48" y2="4016.19" xlink:href="#linear-gradient-2"/><linearGradient id="linear-gradient-21" x1="2823.99" y1="3682.7" x2="2472.38" y2="3999.43" xlink:href="#linear-gradient-2"/><linearGradient id="linear-gradient-22" x1="2830.93" y1="3690.41" x2="2479.33" y2="4007.14" xlink:href="#linear-gradient-2"/><linearGradient id="linear-gradient-23" x1="2832.07" y1="3691.67" x2="2480.46" y2="4008.39" xlink:href="#linear-gradient-2"/><linearGradient id="linear-gradient-24" x1="2813.81" y1="3671.41" x2="2462.21" y2="3988.13" xlink:href="#linear-gradient-2"/><linearGradient id="linear-gradient-25" x1="2792.12" y1="3647.32" x2="2440.51" y2="3964.05" xlink:href="#linear-gradient-2"/><linearGradient id="linear-gradient-26" x1="2770.34" y1="3623.15" x2="2418.74" y2="3939.87" xlink:href="#linear-gradient-2"/><linearGradient id="linear-gradient-27" x1="2725.03" y1="3572.84" x2="2373.42" y2="3889.57" xlink:href="#linear-gradient-2"/><linearGradient id="linear-gradient-28" x1="2708.99" y1="3555.03" x2="2357.38" y2="3871.76" xlink:href="#linear-gradient-2"/><linearGradient id="linear-gradient-29" x1="2628.78" y1="3465.99" x2="2277.17" y2="3782.72" xlink:href="#linear-gradient-2"/><linearGradient id="linear-gradient-30" x1="2622.35" y1="3458.86" x2="2270.74" y2="3775.58" xlink:href="#linear-gradient-2"/><linearGradient id="linear-gradient-31" x1="2623.73" y1="3460.39" x2="2272.13" y2="3777.12" xlink:href="#linear-gradient-2"/><linearGradient id="linear-gradient-32" x1="2593.61" y1="3426.95" x2="2242.01" y2="3743.68" xlink:href="#linear-gradient-2"/><linearGradient id="linear-gradient-33" x1="2673.3" y1="3515.42" x2="2321.69" y2="3832.14" xlink:href="#linear-gradient-2"/><linearGradient id="linear-gradient-34" x1="2543.3" y1="3545.42" x2="2191.69" y2="3862.14" xlink:href="#linear-gradient-2"/><linearGradient id="linear-gradient-35" x1="2575.3" y1="3563.42" x2="2223.69" y2="3880.14" xlink:href="#linear-gradient-2"/><linearGradient id="linear-gradient-36" x1="2734.67" y1="3583.55" x2="2383.06" y2="3900.27" xlink:href="#linear-gradient-2"/><linearGradient id="linear-gradient-37" x1="2856.45" y1="3718.73" x2="2504.84" y2="4035.46" xlink:href="#linear-gradient-2"/><linearGradient id="linear-gradient-38" x1="2910.23" y1="3778.44" x2="2558.62" y2="4095.17" xlink:href="#linear-gradient-2"/><linearGradient id="linear-gradient-39" x1="2916.66" y1="3785.57" x2="2565.05" y2="4102.3" xlink:href="#linear-gradient-2"/><linearGradient id="linear-gradient-40" x1="2886.44" y1="3752.03" x2="2534.83" y2="4068.76" xlink:href="#linear-gradient-2"/><linearGradient id="linear-gradient-41" x1="2894.95" y1="3761.48" x2="2543.34" y2="4078.21" xlink:href="#linear-gradient-2"/><linearGradient id="linear-gradient-42" x1="2906.34" y1="3763.39" x2="2554.73" y2="4080.11" xlink:href="#linear-gradient-2"/><linearGradient id="linear-gradient-43" x1="3027.74" y1="3818.39" x2="2676.13" y2="4135.12" xlink:href="#linear-gradient-2"/><linearGradient id="linear-gradient-44" x1="3236.45" y1="3856.38" x2="2884.84" y2="4173.11" xlink:href="#linear-gradient-2"/><linearGradient id="linear-gradient-45" x1="3226.95" y1="3844.98" x2="2875.34" y2="4161.71" xlink:href="#linear-gradient-2"/><linearGradient id="linear-gradient-46" x1="3300.94" y1="3784.29" x2="2949.33" y2="4101.02" xlink:href="#linear-gradient-2"/><linearGradient id="linear-gradient-47" x1="2691.99" y1="3917.04" x2="2340.39" y2="4233.77" xlink:href="#linear-gradient-2"/><linearGradient id="linear-gradient-48" x1="2597.17" y1="3917.06" x2="2245.56" y2="4233.79" xlink:href="#linear-gradient-2"/><linearGradient id="linear-gradient-49" x1="2602.86" y1="3909.47" x2="2251.25" y2="4226.2" xlink:href="#linear-gradient-2"/><linearGradient id="linear-gradient-50" x1="2606.65" y1="3848.78" x2="2255.05" y2="4165.5" xlink:href="#linear-gradient-2"/><linearGradient id="linear-gradient-51" x1="2568.67" y1="3829.76" x2="2217.06" y2="4146.49" xlink:href="#linear-gradient-2"/><linearGradient id="linear-gradient-52" x1="2587.66" y1="3841.17" x2="2236.06" y2="4157.89" xlink:href="#linear-gradient-2"/><linearGradient id="linear-gradient-53" x1="2644.55" y1="3879.08" x2="2292.94" y2="4195.81" xlink:href="#linear-gradient-2"/><linearGradient id="linear-gradient-54" x1="2568.69" y1="3784.25" x2="2217.08" y2="4100.97" xlink:href="#linear-gradient-2"/><linearGradient id="linear-gradient-55" x1="2549.74" y1="3772.89" x2="2198.13" y2="4089.62" xlink:href="#linear-gradient-2"/><linearGradient id="linear-gradient-56" x1="2549.72" y1="3750.11" x2="2198.11" y2="4066.83" xlink:href="#linear-gradient-2"/><linearGradient id="linear-gradient-57" x1="2932.94" y1="3721.69" x2="2581.33" y2="4038.42" xlink:href="#linear-gradient-2"/><linearGradient id="linear-gradient-58" x1="2989.84" y1="3664.79" x2="2638.24" y2="3981.51" xlink:href="#linear-gradient-2"/><linearGradient id="linear-gradient-59" x1="2999.29" y1="3670.44" x2="2647.69" y2="3987.17" xlink:href="#linear-gradient-2"/><linearGradient id="linear-gradient-60" x1="3056.23" y1="3649.6" x2="2704.62" y2="3966.33" xlink:href="#linear-gradient-2"/><linearGradient id="linear-gradient-61" x1="2961.38" y1="3611.66" x2="2609.77" y2="3928.38" xlink:href="#linear-gradient-2"/><linearGradient id="linear-gradient-62" x1="2923.41" y1="3554.72" x2="2571.8" y2="3871.44" xlink:href="#linear-gradient-2"/><linearGradient id="linear-gradient-63" x1="2942.35" y1="3554.68" x2="2590.74" y2="3871.41" xlink:href="#linear-gradient-2"/><linearGradient id="linear-gradient-64" x1="2980.36" y1="3611.67" x2="2628.75" y2="3928.4" xlink:href="#linear-gradient-2"/><linearGradient id="linear-gradient-65" x1="3094.13" y1="3744.4" x2="2742.52" y2="4061.13" xlink:href="#linear-gradient-2"/><linearGradient id="linear-gradient-66" x1="2999.29" y1="3662.85" x2="2647.68" y2="3979.57" xlink:href="#linear-gradient-2"/><linearGradient id="linear-gradient-67" x1="2999.27" y1="3643.86" x2="2647.67" y2="3960.59" xlink:href="#linear-gradient-2"/><linearGradient id="linear-gradient-68" x1="2885.21" y1="3750.67" x2="2533.61" y2="4067.4" xlink:href="#linear-gradient-2"/><linearGradient id="linear-gradient-69" x1="2850.09" y1="3711.68" x2="2498.48" y2="4028.4" xlink:href="#linear-gradient-2"/><linearGradient id="linear-gradient-70" x1="2807.99" y1="3664.94" x2="2456.38" y2="3981.66" xlink:href="#linear-gradient-2"/><linearGradient id="linear-gradient-71" x1="2754.2" y1="3605.23" x2="2402.6" y2="3921.96" xlink:href="#linear-gradient-2"/><linearGradient id="linear-gradient-72" x1="2800.46" y1="3656.58" x2="2448.85" y2="3973.31" xlink:href="#linear-gradient-2"/><linearGradient id="linear-gradient-73" x1="2808.93" y1="3665.98" x2="2457.32" y2="3982.7" xlink:href="#linear-gradient-2"/><linearGradient id="linear-gradient-74" x1="2584.29" y1="3416.6" x2="2232.68" y2="3733.33" xlink:href="#linear-gradient-2"/><linearGradient id="linear-gradient-75" x1="2798.41" y1="3654.31" x2="2446.8" y2="3971.03" xlink:href="#linear-gradient-2"/><linearGradient id="linear-gradient-76" x1="2766.26" y1="3618.61" x2="2414.65" y2="3935.34" xlink:href="#linear-gradient-2"/><linearGradient id="linear-gradient-77" x1="2856.85" y1="3719.18" x2="2505.24" y2="4035.91" xlink:href="#linear-gradient-2"/><linearGradient id="linear-gradient-78" x1="2854.02" y1="3716.04" x2="2502.41" y2="4032.76" xlink:href="#linear-gradient-2"/><linearGradient id="linear-gradient-79" x1="2585.51" y1="3417.96" x2="2233.91" y2="3734.69" xlink:href="#linear-gradient-2"/><linearGradient id="linear-gradient-80" x1="2550.04" y1="3378.58" x2="2198.43" y2="3695.31" xlink:href="#linear-gradient-2"/><linearGradient id="linear-gradient-81" x1="2592.47" y1="3425.69" x2="2240.86" y2="3742.41" xlink:href="#linear-gradient-2"/><linearGradient id="linear-gradient-82" x1="2706.69" y1="3552.49" x2="2355.09" y2="3869.22" xlink:href="#linear-gradient-2"/><linearGradient id="linear-gradient-83" x1="2700.89" y1="3546.04" x2="2349.28" y2="3862.77" xlink:href="#linear-gradient-2"/><linearGradient id="linear-gradient-84" x1="2681.88" y1="3508.06" x2="2330.27" y2="3824.78" xlink:href="#linear-gradient-2"/><linearGradient id="linear-gradient-85" x1="2591.26" y1="3424.34" x2="2239.65" y2="3741.06" xlink:href="#linear-gradient-2"/><linearGradient id="linear-gradient-86" x1="2621.67" y1="3458.1" x2="2270.06" y2="3774.83" xlink:href="#linear-gradient-2"/><linearGradient id="linear-gradient-87" x1="2607.89" y1="3442.81" x2="2256.28" y2="3759.53" xlink:href="#linear-gradient-2"/><linearGradient id="linear-gradient-88" x1="2636.01" y1="3474.02" x2="2284.4" y2="3790.74" xlink:href="#linear-gradient-2"/><linearGradient id="linear-gradient-89" x1="945.53" y1="3451.29" x2="593.92" y2="3768.01" xlink:href="#linear-gradient-2"/><linearGradient id="linear-gradient-90" x1="1074.93" y1="3594.94" x2="723.32" y2="3911.66" xlink:href="#linear-gradient-2"/><linearGradient id="linear-gradient-91" x1="1034.64" y1="3550.21" x2="683.03" y2="3866.93" xlink:href="#linear-gradient-2"/><linearGradient id="linear-gradient-92" x1="819.55" y1="3637.61" x2="536.82" y2="3892.3" xlink:href="#linear-gradient-2"/><linearGradient id="linear-gradient-93" x1="1139.33" y1="3666.42" x2="787.72" y2="3983.15" xlink:href="#linear-gradient-2"/><linearGradient id="linear-gradient-94" x1="1144.05" y1="3671.66" x2="792.44" y2="3988.39" xlink:href="#linear-gradient-2"/><linearGradient id="linear-gradient-95" x1="1065.81" y1="3584.81" x2="714.21" y2="3901.54" xlink:href="#linear-gradient-2"/><linearGradient id="linear-gradient-96" x1="1051.97" y1="3569.45" x2="700.36" y2="3886.17" xlink:href="#linear-gradient-2"/><linearGradient id="linear-gradient-97" x1="1169.65" y1="3700.08" x2="818.04" y2="4016.81" xlink:href="#linear-gradient-2"/><linearGradient id="linear-gradient-98" x1="912.64" y1="3414.77" x2="561.03" y2="3731.5" xlink:href="#linear-gradient-2"/><linearGradient id="linear-gradient-99" x1="1070.48" y1="3590" x2="718.88" y2="3906.73" xlink:href="#linear-gradient-2"/><linearGradient id="linear-gradient-100" x1="1072.86" y1="3592.64" x2="721.25" y2="3909.36" xlink:href="#linear-gradient-2"/><linearGradient id="linear-gradient-101" x1="1071.03" y1="3590.61" x2="719.43" y2="3907.34" xlink:href="#linear-gradient-2"/><linearGradient id="linear-gradient-102" x1="1088.9" y1="3610.44" x2="737.29" y2="3927.17" xlink:href="#linear-gradient-2"/><linearGradient id="linear-gradient-103" x1="1074.76" y1="3594.75" x2="723.16" y2="3911.48" xlink:href="#linear-gradient-2"/><linearGradient id="linear-gradient-104" x1="1054.34" y1="3572.07" x2="702.73" y2="3888.8" xlink:href="#linear-gradient-2"/><linearGradient id="linear-gradient-105" x1="1120.44" y1="3645.46" x2="768.83" y2="3962.18" xlink:href="#linear-gradient-2"/><linearGradient id="linear-gradient-106" x1="1177.03" y1="3708.28" x2="825.42" y2="4025.01" xlink:href="#linear-gradient-2"/><linearGradient id="linear-gradient-107" x1="1169.09" y1="3699.47" x2="817.48" y2="4016.19" xlink:href="#linear-gradient-2"/><linearGradient id="linear-gradient-108" x1="1153.99" y1="3682.7" x2="802.38" y2="3999.43" xlink:href="#linear-gradient-2"/><linearGradient id="linear-gradient-109" x1="1160.93" y1="3690.41" x2="809.33" y2="4007.14" xlink:href="#linear-gradient-2"/><linearGradient id="linear-gradient-110" x1="1162.07" y1="3691.67" x2="810.46" y2="4008.4" xlink:href="#linear-gradient-2"/><linearGradient id="linear-gradient-111" x1="1143.81" y1="3671.41" x2="792.21" y2="3988.13" xlink:href="#linear-gradient-2"/><linearGradient id="linear-gradient-112" x1="1122.12" y1="3647.32" x2="770.51" y2="3964.05" xlink:href="#linear-gradient-2"/><linearGradient id="linear-gradient-113" x1="1100.34" y1="3623.15" x2="748.74" y2="3939.87" xlink:href="#linear-gradient-2"/><linearGradient id="linear-gradient-114" x1="1055.03" y1="3572.84" x2="703.42" y2="3889.57" xlink:href="#linear-gradient-2"/><linearGradient id="linear-gradient-115" x1="1038.99" y1="3555.03" x2="687.38" y2="3871.76" xlink:href="#linear-gradient-2"/><linearGradient id="linear-gradient-116" x1="958.78" y1="3465.99" x2="607.17" y2="3782.72" xlink:href="#linear-gradient-2"/><linearGradient id="linear-gradient-117" x1="952.35" y1="3458.86" x2="600.74" y2="3775.58" xlink:href="#linear-gradient-2"/><linearGradient id="linear-gradient-118" x1="953.73" y1="3460.39" x2="602.13" y2="3777.12" xlink:href="#linear-gradient-2"/><linearGradient id="linear-gradient-119" x1="923.61" y1="3426.95" x2="572.01" y2="3743.68" xlink:href="#linear-gradient-2"/><linearGradient id="linear-gradient-120" x1="1003.3" y1="3515.42" x2="651.69" y2="3832.14" xlink:href="#linear-gradient-2"/><linearGradient id="linear-gradient-121" x1="873.3" y1="3545.42" x2="521.69" y2="3862.14" xlink:href="#linear-gradient-2"/><linearGradient id="linear-gradient-122" x1="905.3" y1="3563.42" x2="553.69" y2="3880.14" xlink:href="#linear-gradient-2"/><linearGradient id="linear-gradient-123" x1="1064.67" y1="3583.55" x2="713.06" y2="3900.27" xlink:href="#linear-gradient-2"/><linearGradient id="linear-gradient-124" x1="1186.45" y1="3718.73" x2="834.84" y2="4035.46" xlink:href="#linear-gradient-2"/><linearGradient id="linear-gradient-125" x1="1240.23" y1="3778.44" x2="888.62" y2="4095.17" xlink:href="#linear-gradient-2"/><linearGradient id="linear-gradient-126" x1="1246.66" y1="3785.57" x2="895.05" y2="4102.3" xlink:href="#linear-gradient-2"/><linearGradient id="linear-gradient-127" x1="1216.44" y1="3752.03" x2="864.83" y2="4068.76" xlink:href="#linear-gradient-2"/><linearGradient id="linear-gradient-128" x1="1224.95" y1="3761.48" x2="873.34" y2="4078.21" xlink:href="#linear-gradient-2"/><linearGradient id="linear-gradient-129" x1="1236.34" y1="3763.39" x2="884.73" y2="4080.11" xlink:href="#linear-gradient-2"/><linearGradient id="linear-gradient-130" x1="1357.74" y1="3818.39" x2="1006.13" y2="4135.12" xlink:href="#linear-gradient-2"/><linearGradient id="linear-gradient-131" x1="1566.45" y1="3856.38" x2="1214.84" y2="4173.11" xlink:href="#linear-gradient-2"/><linearGradient id="linear-gradient-132" x1="1556.95" y1="3844.98" x2="1205.34" y2="4161.71" xlink:href="#linear-gradient-2"/><linearGradient id="linear-gradient-133" x1="1630.94" y1="3784.29" x2="1279.33" y2="4101.02" xlink:href="#linear-gradient-2"/><linearGradient id="linear-gradient-134" x1="1021.99" y1="3917.04" x2="670.39" y2="4233.77" xlink:href="#linear-gradient-2"/><linearGradient id="linear-gradient-135" x1="927.17" y1="3917.06" x2="575.56" y2="4233.79" xlink:href="#linear-gradient-2"/><linearGradient id="linear-gradient-136" x1="932.86" y1="3909.47" x2="581.25" y2="4226.2" xlink:href="#linear-gradient-2"/><linearGradient id="linear-gradient-137" x1="936.65" y1="3848.78" x2="585.05" y2="4165.5" xlink:href="#linear-gradient-2"/><linearGradient id="linear-gradient-138" x1="898.67" y1="3829.76" x2="547.06" y2="4146.49" xlink:href="#linear-gradient-2"/><linearGradient id="linear-gradient-139" x1="917.66" y1="3841.17" x2="566.06" y2="4157.89" xlink:href="#linear-gradient-2"/><linearGradient id="linear-gradient-140" x1="974.55" y1="3879.08" x2="622.94" y2="4195.81" xlink:href="#linear-gradient-2"/><linearGradient id="linear-gradient-141" x1="898.69" y1="3784.25" x2="547.08" y2="4100.97" xlink:href="#linear-gradient-2"/><linearGradient id="linear-gradient-142" x1="879.74" y1="3772.89" x2="528.13" y2="4089.62" xlink:href="#linear-gradient-2"/><linearGradient id="linear-gradient-143" x1="879.72" y1="3750.11" x2="528.11" y2="4066.83" xlink:href="#linear-gradient-2"/><linearGradient id="linear-gradient-144" x1="1262.94" y1="3721.69" x2="911.33" y2="4038.42" xlink:href="#linear-gradient-2"/><linearGradient id="linear-gradient-145" x1="1319.84" y1="3664.79" x2="968.24" y2="3981.51" xlink:href="#linear-gradient-2"/><linearGradient id="linear-gradient-146" x1="1329.29" y1="3670.44" x2="977.69" y2="3987.17" xlink:href="#linear-gradient-2"/><linearGradient id="linear-gradient-147" x1="1386.23" y1="3649.6" x2="1034.62" y2="3966.33" xlink:href="#linear-gradient-2"/><linearGradient id="linear-gradient-148" x1="1291.38" y1="3611.66" x2="939.77" y2="3928.38" xlink:href="#linear-gradient-2"/><linearGradient id="linear-gradient-149" x1="1253.41" y1="3554.72" x2="901.8" y2="3871.44" xlink:href="#linear-gradient-2"/><linearGradient id="linear-gradient-150" x1="1272.35" y1="3554.68" x2="920.74" y2="3871.41" xlink:href="#linear-gradient-2"/><linearGradient id="linear-gradient-151" x1="1310.36" y1="3611.67" x2="958.75" y2="3928.4" xlink:href="#linear-gradient-2"/><linearGradient id="linear-gradient-152" x1="1424.13" y1="3744.4" x2="1072.52" y2="4061.13" xlink:href="#linear-gradient-2"/><linearGradient id="linear-gradient-153" x1="1329.29" y1="3662.85" x2="977.68" y2="3979.57" xlink:href="#linear-gradient-2"/><linearGradient id="linear-gradient-154" x1="1329.27" y1="3643.86" x2="977.67" y2="3960.59" xlink:href="#linear-gradient-2"/><linearGradient id="linear-gradient-155" x1="1215.21" y1="3750.67" x2="863.61" y2="4067.4" xlink:href="#linear-gradient-2"/><linearGradient id="linear-gradient-156" x1="1180.09" y1="3711.68" x2="828.48" y2="4028.4" xlink:href="#linear-gradient-2"/><linearGradient id="linear-gradient-157" x1="1137.99" y1="3664.94" x2="786.38" y2="3981.66" xlink:href="#linear-gradient-2"/><linearGradient id="linear-gradient-158" x1="1084.2" y1="3605.23" x2="732.6" y2="3921.96" xlink:href="#linear-gradient-2"/><linearGradient id="linear-gradient-159" x1="1130.46" y1="3656.58" x2="778.85" y2="3973.31" xlink:href="#linear-gradient-2"/><linearGradient id="linear-gradient-160" x1="1138.93" y1="3665.98" x2="787.32" y2="3982.7" xlink:href="#linear-gradient-2"/><linearGradient id="linear-gradient-161" x1="914.29" y1="3416.6" x2="562.68" y2="3733.33" xlink:href="#linear-gradient-2"/><linearGradient id="linear-gradient-162" x1="1128.41" y1="3654.31" x2="776.8" y2="3971.03" xlink:href="#linear-gradient-2"/><linearGradient id="linear-gradient-163" x1="1096.26" y1="3618.61" x2="744.65" y2="3935.34" xlink:href="#linear-gradient-2"/><linearGradient id="linear-gradient-164" x1="1186.85" y1="3719.18" x2="835.24" y2="4035.91" xlink:href="#linear-gradient-2"/><linearGradient id="linear-gradient-165" x1="1184.02" y1="3716.04" x2="832.41" y2="4032.76" xlink:href="#linear-gradient-2"/><linearGradient id="linear-gradient-166" x1="915.51" y1="3417.96" x2="563.91" y2="3734.69" xlink:href="#linear-gradient-2"/><linearGradient id="linear-gradient-167" x1="880.04" y1="3378.58" x2="528.43" y2="3695.31" xlink:href="#linear-gradient-2"/><linearGradient id="linear-gradient-168" x1="922.47" y1="3425.69" x2="570.86" y2="3742.41" xlink:href="#linear-gradient-2"/><linearGradient id="linear-gradient-169" x1="1036.69" y1="3552.49" x2="685.09" y2="3869.22" xlink:href="#linear-gradient-2"/><linearGradient id="linear-gradient-170" x1="1030.89" y1="3546.04" x2="679.28" y2="3862.77" xlink:href="#linear-gradient-2"/><linearGradient id="linear-gradient-171" x1="1011.88" y1="3508.06" x2="660.27" y2="3824.78" xlink:href="#linear-gradient-2"/><linearGradient id="linear-gradient-172" x1="921.26" y1="3424.34" x2="569.65" y2="3741.06" xlink:href="#linear-gradient-2"/><linearGradient id="linear-gradient-173" x1="951.67" y1="3458.1" x2="600.06" y2="3774.83" xlink:href="#linear-gradient-2"/><linearGradient id="linear-gradient-174" x1="937.89" y1="3442.81" x2="586.28" y2="3759.53" xlink:href="#linear-gradient-2"/><linearGradient id="linear-gradient-175" x1="966.01" y1="3474.02" x2="614.4" y2="3790.74" xlink:href="#linear-gradient-2"/></defs><title>wave-bottom</title><ellipse class="cls-2" cx="2451.2" cy="459.93" rx="539.2" ry="459.93"/><path class="cls-3" d="M0,1071.6c487.7,0,631.5-387.5,1055.4-142.8,88.6,51.2,109.8,93.2,396,103.2s446.1-209.1,595.9-241.3,190.8,107.8,495.7,74.9c389-42,417-293.1,537.2-356.1C3299.3,394.6,3624.4,653.4,4090,653.4v-42c-629.3-.6-871.7-289.1-1089.5-74.4-96,94.6-137.2,253.8-445.4,270.3s-351.8-86.8-502.5-54.9S1754.7,983,1466.4,983.5c-444.6.9-414.6-240.8-890.2-130.9C380.7,897.6,293.3,1020.7,0,1025.1" transform="translate(0 -6.7)"/><path class="cls-4" d="M0,1051.9c381,0,681.8-378.3,1035.3-158.1,86.9,54.1,130.3,97.2,416.5,107.2S1898,791.9,2047.7,759.7s189.5,91.5,495.7,74.9S2918.9,627.4,3019,535.8c221.4-202.5,531.6,94.8,1071,94.8V605.4c-629.3-.6-871.7-289.1-1089.5-74.4-96,94.6-137.2,253.8-445.4,270.3s-351.8-86.8-502.5-54.9S1754.7,977,1466.4,977.5c-444.6.9-414.6-240.8-890.2-130.9C380.7,891.6,293.3,1014.7,0,1019.1" transform="translate(0 -6.7)"/><g class="cls-5"><path class="cls-6" d="M2103.4,563.9c248.9-159.1,512.1,151.3,708.3,18.8,137.9-93.1,90-321.4,241.7-319.5,375.2,4.7-34.6,692.3-708.1,596.5C2035.3,815.5,1997,631.9,2103.4,563.9Z" transform="translate(0 -6.7)"/></g><g id="stars-collection"><g id="stars"><path class="cls-7" d="M2272.6,503.5l4.1,2,.1.1,2,4.1a1.46,1.46,0,0,0,2.6,0l2-4.1.1-.1,4.1-2a1.44,1.44,0,0,0,0-2.6l-4.1-2-.1-.1-2-4.1a1.46,1.46,0,0,0-2.6,0l-2,4.1-.1.1-4.1,2A1.44,1.44,0,0,0,2272.6,503.5Z" transform="translate(0 -6.7)"/><path class="cls-8" d="M2440.8,394.8l4.1,2,.1.1,2,4.1a1.46,1.46,0,0,0,2.6,0l2-4.1.1-.1,4.1-2a1.44,1.44,0,0,0,0-2.6l-4.1-2-.1-.1-2-4.1a1.46,1.46,0,0,0-2.6,0l-2,4.1-.1.1-4.1,2A1.44,1.44,0,0,0,2440.8,394.8Z" transform="translate(0 -6.7)"/><path class="cls-9" d="M2385.4,422.4l2.3,1.1.1.1,1.1,2.3c.2.3.4.5.7.5a.75.75,0,0,0,.7-.5l1.1-2.3.1-.1,2.3-1.1a.85.85,0,0,0,0-1.5l-2.3-1.1-.1-.1-1.1-2.3c-.2-.3-.4-.5-.7-.5a.75.75,0,0,0-.7.5l-1.1,2.3-.1.1-2.3,1.1A.85.85,0,0,0,2385.4,422.4Z" transform="translate(0 -6.7)"/><path class="cls-10" d="M2232.9,390.5l1.8.9.1.1.9,1.8c.2.2.3.4.6.4a.68.68,0,0,0,.6-.4l.9-1.8.1-.1,1.8-.9a.67.67,0,0,0,0-1.2l-1.8-.9-.1-.1-.9-1.8c-.2-.2-.3-.4-.6-.4a.68.68,0,0,0-.6.4l-.9,1.8-.1.1-1.8.9A.67.67,0,0,0,2232.9,390.5Z" transform="translate(0 -6.7)"/><path class="cls-11" d="M2487.6,301.1l.9.4h0l.4.9c.1.1.2.2.3.2s.2-.1.3-.2l.4-.9h0l.9-.4a.28.28,0,0,0,0-.5l-.9-.4h0l-.4-.9c-.1-.1-.2-.2-.3-.2s-.2.1-.3.2l-.4.9h0l-.9.4A.28.28,0,0,0,2487.6,301.1Z" transform="translate(0 -6.7)"/><path class="cls-12" d="M2582.4,377l.9.4h0l.4.9c.1.1.2.2.3.2s.2-.1.3-.2l.4-.9h0l.9-.4a.28.28,0,0,0,0-.5l-.9-.4h0l-.4-.9c-.1-.1-.2-.2-.3-.2s-.2.1-.3.2l-.4.9h0l-.9.4A.28.28,0,0,0,2582.4,377Z" transform="translate(0 -6.7)"/><path class="cls-13" d="M2466.7,430.1l.9.4h0l.4.9c.1.1.2.2.3.2s.2-.1.3-.2l.4-.9h0l.9-.4a.28.28,0,0,0,0-.5l-.9-.4h0l-.4-.9c-.1-.1-.2-.2-.3-.2s-.2.1-.3.2l-.4.9h0l-.9.4A.28.28,0,0,0,2466.7,430.1Z" transform="translate(0 -6.7)"/><path class="cls-14" d="M2369.1,370.8l1.3.6h0l.6,1.3c.1.2.2.3.4.3s.3-.1.4-.3l.6-1.3h0l1.3-.6c.3-.2.3-.7,0-.8l-1.3-.6h0l-.6-1.3c-.1-.2-.2-.3-.4-.3s-.3.1-.4.3l-.6,1.3h0l-1.3.6C2368.7,370.1,2368.7,370.6,2369.1,370.8Z" transform="translate(0 -6.7)"/><path class="cls-15" d="M2631.8,370.8l1.3.6h0l.6,1.3c.1.2.2.3.4.3s.3-.1.4-.3l.6-1.3h0l1.3-.6c.3-.2.3-.7,0-.8l-1.3-.6h0l-.6-1.3c-.1-.2-.2-.3-.4-.3s-.3.1-.4.3l-.6,1.3h0l-1.3.6C2631.4,370.1,2631.4,370.6,2631.8,370.8Z" transform="translate(0 -6.7)"/><path class="cls-16" d="M2432.4,708l1.3.6h0l.6,1.3c.1.2.2.3.4.3s.3-.1.4-.3l.6-1.3h0l1.3-.6a.47.47,0,0,0,0-.8l-1.3-.6h0l-.6-1.3c-.1-.2-.2-.3-.4-.3s-.3.1-.4.3l-.6,1.3h0l-1.3.6C2432.1,707.3,2432.1,707.8,2432.4,708Z" transform="translate(0 -6.7)"/><path class="cls-17" d="M2695.8,626.9l.8.4h0l.4.8c.1.1.1.2.2.2a.22.22,0,0,0,.2-.2l.4-.8h0l.8-.4a.28.28,0,0,0,0-.5l-.8-.4h0l-.4-.8c-.1-.1-.1-.2-.2-.2a.22.22,0,0,0-.2.2l-.4.8h0l-.8.4A.28.28,0,0,0,2695.8,626.9Z" transform="translate(0 -6.7)"/><path class="cls-18" d="M2691.5,617.7l.5.2h0l.2.5c0,.1.1.1.2.1s.1,0,.2-.1l.2-.5h0l.5-.2c.1-.1.1-.3,0-.3l-.5-.2h0l-.2-.5c0-.1-.1-.1-.2-.1s-.1,0-.2.1l-.2.5h0l-.5.2C2691.4,617.4,2691.4,617.6,2691.5,617.7Z" transform="translate(0 -6.7)"/><path class="cls-19" d="M2729.5,655.6l.5.2h0l.2.5c0,.1.1.1.2.1s.1,0,.2-.1l.2-.5h0l.5-.2c.1-.1.1-.3,0-.3l-.5-.2h0l-.2-.5c0-.1-.1-.1-.2-.1s-.1,0-.2.1l-.2.5h0l-.5.2C2729.3,655.4,2729.3,655.6,2729.5,655.6Z" transform="translate(0 -6.7)"/><path class="cls-20" d="M2748.4,636.7l.5.2h0l.2.5c0,.1.1.1.2.1s.1,0,.2-.1l.2-.5h0l.5-.2c.1-.1.1-.3,0-.3l-.5-.2h0l-.2-.5c0-.1-.1-.1-.2-.1s-.1,0-.2.1l-.2.5h0l-.5.2C2748.3,636.4,2748.3,636.6,2748.4,636.7Z" transform="translate(0 -6.7)"/><path class="cls-21" d="M2729.5,648.1l.5.2h0l.2.5c0,.1.1.1.2.1s.1,0,.2-.1l.2-.5h0l.5-.2c.1-.1.1-.3,0-.3l-.5-.2h0l-.2-.5c0-.1-.1-.1-.2-.1s-.1,0-.2.1l-.2.5h0l-.5.2C2729.3,647.8,2729.3,648,2729.5,648.1Z" transform="translate(0 -6.7)"/><path class="cls-22" d="M2683.9,648.1l.5.2h0l.2.5c0,.1.1.1.2.1s.1,0,.2-.1l.2-.5h0l.5-.2c.1-.1.1-.3,0-.3l-.5-.2h0l-.2-.5c0-.1-.1-.1-.2-.1s-.1,0-.2.1l-.2.5h0l-.5.2C2683.8,647.8,2683.8,648,2683.9,648.1Z" transform="translate(0 -6.7)"/><path class="cls-23" d="M2721.9,549.4l.5.2h0l.2.5c0,.1.1.1.2.1s.1,0,.2-.1l.2-.5h0l.5-.2c.1-.1.1-.3,0-.3l-.5-.2h0l-.2-.5c0-.1-.1-.1-.2-.1s-.1,0-.2.1l-.2.5h0l-.5.2Q2721.6,549.25,2721.9,549.4Z" transform="translate(0 -6.7)"/><path class="cls-24" d="M2721.9,435.6l.5.2h0l.2.5c0,.1.1.1.2.1s.1,0,.2-.1l.2-.5h0l.5-.2c.1-.1.1-.3,0-.3l-.5-.2h0l-.2-.5c0-.1-.1-.1-.2-.1s-.1,0-.2.1l-.2.5h0l-.5.2C2721.7,435.3,2721.7,435.5,2721.9,435.6Z" transform="translate(0 -6.7)"/><path class="cls-25" d="M2710.5,441.3l.5.2h0l.2.5c0,.1.1.1.2.1s.1,0,.2-.1l.2-.5h0l.5-.2c.1-.1.1-.3,0-.3l-.5-.2h0l-.2-.5c0-.1-.1-.1-.2-.1s-.1,0-.2.1l-.2.5h0l-.5.2C2710.4,441,2710.4,441.2,2710.5,441.3Z" transform="translate(0 -6.7)"/><path class="cls-26" d="M2634.6,403.3l.5.2h0l.2.5c0,.1.1.1.2.1s.1,0,.2-.1l.2-.5h0l.5-.2c.1-.1.1-.3,0-.3l-.5-.2h0l-.2-.5c0-.1-.1-.1-.2-.1s-.1,0-.2.1l-.2.5h0l-.5.2C2634.5,403.1,2634.5,403.3,2634.6,403.3Z" transform="translate(0 -6.7)"/><path class="cls-27" d="M2646,399.6l.5.2h0l.2.5c0,.1.1.1.2.1s.1,0,.2-.1l.2-.5h0l.5-.2c.1-.1.1-.3,0-.3l-.5-.2h0l-.2-.5c0-.1-.1-.1-.2-.1s-.1,0-.2.1l-.2.5h0l-.5.2C2645.9,399.3,2645.9,399.5,2646,399.6Z" transform="translate(0 -6.7)"/><path class="cls-28" d="M2642.2,393.9l.5.2h0l.2.5c0,.1.1.1.2.1s.1,0,.2-.1l.2-.5h0l.5-.2c.1-.1.1-.3,0-.3l-.5-.2h0l-.2-.5c0-.1-.1-.1-.2-.1s-.1,0-.2.1l-.2.5h0l-.5.2C2642.1,393.6,2642.1,393.8,2642.2,393.9Z" transform="translate(0 -6.7)"/><path class="cls-29" d="M2496.1,299l.5.2h0l.2.5c0,.1.1.1.2.1s.1,0,.2-.1l.2-.5h0l.5-.2c.1-.1.1-.3,0-.3l-.5-.2h0l-.2-.5c0-.1-.1-.1-.2-.1s-.1,0-.2.1l-.2.5h0l-.5.2C2496,298.8,2496,299,2496.1,299Z" transform="translate(0 -6.7)"/><path class="cls-30" d="M2477.2,325.6l.5.2h0l.2.5c0,.1.1.1.2.1s.1,0,.2-.1l.2-.5h0l.5-.2c.1-.1.1-.3,0-.3l-.5-.2h0l-.2-.5c0-.1-.1-.1-.2-.1s-.1,0-.2.1l-.2.5h0l-.5.2C2477,325.3,2477,325.5,2477.2,325.6Z" transform="translate(0 -6.7)"/><path class="cls-31" d="M2479.1,371.1l.5.2h0l.2.5c0,.1.1.1.2.1s.1,0,.2-.1l.2-.5h0l.5-.2c.1-.1.1-.3,0-.3l-.5-.2h0l-.2-.5c0-.1-.1-.1-.2-.1s-.1,0-.2.1l-.2.5h0l-.5.2C2478.9,370.8,2478.9,371,2479.1,371.1Z" transform="translate(0 -6.7)"/><path class="cls-32" d="M2441.1,428l.5.2h0l.2.5c0,.1.1.1.2.1s.1,0,.2-.1l.2-.5h0l.5-.2c.1-.1.1-.3,0-.3l-.5-.2h0l-.2-.5c0-.1-.1-.1-.2-.1s-.1,0-.2.1l-.2.5h0l-.5.2A.19.19,0,0,0,2441.1,428Z" transform="translate(0 -6.7)"/><path class="cls-33" d="M2384.2,409l.5.2h0l.2.5c0,.1.1.1.2.1s.1,0,.2-.1l.2-.5h0l.5-.2c.1-.1.1-.3,0-.3l-.5-.2h0l-.2-.5c0-.1-.1-.1-.2-.1s-.1,0-.2.1l-.2.5h0l-.5.2C2384.1,408.8,2384.1,409,2384.2,409Z" transform="translate(0 -6.7)"/><path class="cls-34" d="M2289.4,484.9l.5.2h0l.2.5c0,.1.1.1.2.1s.1,0,.2-.1l.2-.5h0l.5-.2c.1-.1.1-.3,0-.3l-.5-.2h0l-.2-.5c0-.1-.1-.1-.2-.1s-.1,0-.2.1l-.2.5h0l-.5.2C2289.2,484.7,2289.2,484.9,2289.4,484.9Z" transform="translate(0 -6.7)"/><path class="cls-35" d="M2285.6,494.4l.5.2h0l.2.5c0,.1.1.1.2.1s.1,0,.2-.1l.2-.5h0l.5-.2c.1-.1.1-.3,0-.3l-.5-.2h0l-.2-.5c0-.1-.1-.1-.2-.1s-.1,0-.2.1l-.2.5h0l-.5.2C2285.5,494.1,2285.5,494.3,2285.6,494.4Z" transform="translate(0 -6.7)"/><path class="cls-36" d="M2314,517.2l.5.2h0l.2.5c0,.1.1.1.2.1s.1,0,.2-.1l.2-.5h0l.5-.2c.1-.1.1-.3,0-.3l-.5-.2h0l-.2-.5c0-.1-.1-.1-.2-.1s-.1,0-.2.1l-.2.5h0l-.5.2C2313.9,516.9,2313.9,517.1,2314,517.2Z" transform="translate(0 -6.7)"/><path class="cls-37" d="M2352,612l.5.2h0l.2.5c0,.1.1.1.2.1s.1,0,.2-.1l.2-.5h0l.5-.2c.1-.1.1-.3,0-.3l-.5-.2h0l-.2-.5c0-.1-.1-.1-.2-.1s-.1,0-.2.1l-.2.5h0l-.5.2Q2351.7,611.85,2352,612Z" transform="translate(0 -6.7)"/><path class="cls-38" d="M2342.5,443.2l.5.2h0l.2.5c0,.1.1.1.2.1s.1,0,.2-.1l.2-.5h0l.5-.2c.1-.1.1-.3,0-.3l-.5-.2h0l-.2-.5c0-.1-.1-.1-.2-.1s-.1,0-.2.1l-.2.5h0l-.5.2C2342.4,442.9,2342.4,443.1,2342.5,443.2Z" transform="translate(0 -6.7)"/><path class="cls-39" d="M2212.5,413.2l.5.2h0l.2.5c0,.1.1.1.2.1s.1,0,.2-.1l.2-.5h0l.5-.2c.1-.1.1-.3,0-.3l-.5-.2h0l-.2-.5c0-.1-.1-.1-.2-.1s-.1,0-.2.1l-.2.5h0l-.5.2C2212.4,412.9,2212.4,413.1,2212.5,413.2Z" transform="translate(0 -6.7)"/><path class="cls-40" d="M2244.5,395.2l.5.2h0l.2.5c0,.1.1.1.2.1s.1,0,.2-.1l.2-.5h0l.5-.2c.1-.1.1-.3,0-.3l-.5-.2h0l-.2-.5c0-.1-.1-.1-.2-.1s-.1,0-.2.1l-.2.5h0l-.5.2C2244.4,394.9,2244.4,395.1,2244.5,395.2Z" transform="translate(0 -6.7)"/><path class="cls-41" d="M2456.3,422.3l.5.2h0l.2.5c0,.1.1.1.2.1s.1,0,.2-.1l.2-.5h0l.5-.2c.1-.1.1-.3,0-.3l-.5-.2h0l-.2-.5c0-.1-.1-.1-.2-.1s-.1,0-.2.1l-.2.5h0l-.5.2C2456.2,422.1,2456.2,422.3,2456.3,422.3Z" transform="translate(0 -6.7)"/><path class="cls-42" d="M2646,348.3l.5.2h0l.2.5c0,.1.1.1.2.1s.1,0,.2-.1l.2-.5h0l.5-.2c.1-.1.1-.3,0-.3l-.5-.2h0l-.2-.5c0-.1-.1-.1-.2-.1s-.1,0-.2.1l-.2.5h0l-.5.2C2645.9,348.1,2645.9,348.3,2646,348.3Z" transform="translate(0 -6.7)"/><path class="cls-43" d="M2702.9,291.4l.5.2h0l.2.5c0,.1.1.1.2.1s.1,0,.2-.1l.2-.5h0l.5-.2c.1-.1.1-.3,0-.3l-.5-.2h0l-.2-.5c0-.1-.1-.1-.2-.1s-.1,0-.2.1l-.2.5h0l-.5.2C2702.8,291.2,2702.8,291.4,2702.9,291.4Z" transform="translate(0 -6.7)"/><path class="cls-44" d="M2706.7,281.9l.5.2h0l.2.5c0,.1.1.1.2.1s.1,0,.2-.1l.2-.5h0l.5-.2c.1-.1.1-.3,0-.3l-.5-.2h0l-.2-.5c0-.1-.1-.1-.2-.1s-.1,0-.2.1l-.2.5h0l-.5.2C2706.6,281.7,2706.6,281.9,2706.7,281.9Z" transform="translate(0 -6.7)"/><path class="cls-45" d="M2744.6,376.8l.5.2h0l.2.5c0,.1.1.1.2.1s.1,0,.2-.1l.2-.5h0l.5-.2c.1-.1.1-.3,0-.3l-.5-.2h0l-.2-.5c0-.1-.1-.1-.2-.1s-.1,0-.2.1l-.2.5h0l-.5.2C2744.5,376.5,2744.5,376.7,2744.6,376.8Z" transform="translate(0 -6.7)"/><path class="cls-46" d="M2763.6,376.8l.5.2h0l.2.5c0,.1.1.1.2.1s.1,0,.2-.1l.2-.5h0l.5-.2c.1-.1.1-.3,0-.3l-.5-.2h0l-.2-.5c0-.1-.1-.1-.2-.1s-.1,0-.2.1l-.2.5h0l-.5.2C2763.5,376.5,2763.5,376.7,2763.6,376.8Z" transform="translate(0 -6.7)"/><path class="cls-47" d="M2775,374.9l.5.2h0l.2.5c0,.1.1.1.2.1s.1,0,.2-.1l.2-.5h0l.5-.2c.1-.1.1-.3,0-.3l-.5-.2h0l-.2-.5c0-.1-.1-.1-.2-.1s-.1,0-.2.1l-.2.5h0l-.5.2C2774.9,374.6,2774.9,374.8,2775,374.9Z" transform="translate(0 -6.7)"/><path class="cls-48" d="M2896.4,319.9l.5.2h0l.2.5c0,.1.1.1.2.1s.1,0,.2-.1l.2-.5h0l.5-.2c.1-.1.1-.3,0-.3l-.5-.2h0l-.2-.5c0-.1-.1-.1-.2-.1s-.1,0-.2.1l-.2.5h0l-.5.2C2896.3,319.6,2896.3,319.8,2896.4,319.9Z" transform="translate(0 -6.7)"/><path class="cls-49" d="M3105.1,281.9l.5.2h0l.2.5c0,.1.1.1.2.1s.1,0,.2-.1l.2-.5h0l.5-.2c.1-.1.1-.3,0-.3l-.5-.2h0l-.2-.5c0-.1-.1-.1-.2-.1s-.1,0-.2.1l-.2.5h0l-.5.2C3104.9,281.7,3104.9,281.9,3105.1,281.9Z" transform="translate(0 -6.7)"/><path class="cls-50" d="M3095.6,293.3l.5.2h0l.2.5c0,.1.1.1.2.1s.1,0,.2-.1l.2-.5h0l.5-.2c.1-.1.1-.3,0-.3l-.5-.2h0l-.2-.5c0-.1-.1-.1-.2-.1s-.1,0-.2.1l-.2.5h0l-.5.2C3095.4,293.1,3095.4,293.3,3095.6,293.3Z" transform="translate(0 -6.7)"/><path class="cls-51" d="M3169.6,354l.5.2h0l.2.5c0,.1.1.1.2.1s.1,0,.2-.1l.2-.5h0l.5-.2c.1-.1.1-.3,0-.3l-.5-.2h0l-.2-.5c0-.1-.1-.1-.2-.1s-.1,0-.2.1l-.2.5h0l-.5.2C3169.4,353.8,3169.4,354,3169.6,354Z" transform="translate(0 -6.7)"/><path class="cls-52" d="M2560.6,221.2l.5.2h0l.2.5c0,.1.1.1.2.1s.1,0,.2-.1l.2-.5h0l.5-.2c.1-.1.1-.3,0-.3l-.5-.2h0l-.2-.5c0-.1-.1-.1-.2-.1s-.1,0-.2.1l-.2.5h0l-.5.2C2560.5,221,2560.5,221.2,2560.6,221.2Z" transform="translate(0 -6.7)"/><path class="cls-53" d="M2465.8,221.2l.5.2h0l.2.5c0,.1.1.1.2.1s.1,0,.2-.1l.2-.5h0l.5-.2c.1-.1.1-.3,0-.3l-.5-.2h0l-.2-.5c0-.1-.1-.1-.2-.1s-.1,0-.2.1l-.2.5h0l-.5.2C2465.7,221,2465.7,221.2,2465.8,221.2Z" transform="translate(0 -6.7)"/><path class="cls-54" d="M2471.5,228.8l.5.2h0l.2.5c0,.1.1.1.2.1s.1,0,.2-.1l.2-.5h0l.5-.2c.1-.1.1-.3,0-.3l-.5-.2h0l-.2-.5c0-.1-.1-.1-.2-.1s-.1,0-.2.1l-.2.5h0l-.5.2C2471.4,228.6,2471.4,228.8,2471.5,228.8Z" transform="translate(0 -6.7)"/><path class="cls-55" d="M2475.3,289.5l.5.2h0l.2.5c0,.1.1.1.2.1s.1,0,.2-.1l.2-.5h0l.5-.2c.1-.1.1-.3,0-.3l-.5-.2h0l-.2-.5c0-.1-.1-.1-.2-.1s-.1,0-.2.1l-.2.5h0l-.5.2C2475.1,289.3,2475.1,289.5,2475.3,289.5Z" transform="translate(0 -6.7)"/><path class="cls-56" d="M2437.3,308.5l.5.2h0l.2.5c0,.1.1.1.2.1s.1,0,.2-.1l.2-.5h0l.5-.2c.1-.1.1-.3,0-.3l-.5-.2h0l-.2-.5c0-.1-.1-.1-.2-.1s-.1,0-.2.1l-.2.5h0l-.5.2C2437.2,308.2,2437.2,308.4,2437.3,308.5Z" transform="translate(0 -6.7)"/><path class="cls-57" d="M2456.3,297.1l.5.2h0l.2.5c0,.1.1.1.2.1s.1,0,.2-.1l.2-.5h0l.5-.2c.1-.1.1-.3,0-.3l-.5-.2h0l-.2-.5c0-.1-.1-.1-.2-.1h-.1l-.2.5h0l-.5.2C2456.2,296.9,2456.2,297.1,2456.3,297.1Z" transform="translate(0 -6.7)"/><path class="cls-58" d="M2513.2,259.2l.5.2h0l.2.5c0,.1.1.1.2.1s.1,0,.2-.1l.2-.5h0l.5-.2c.1-.1.1-.3,0-.3l-.5-.2h0l-.2-.5c0-.1-.1-.1-.2-.1s-.1,0-.2.1l-.2.5h0l-.5.2C2513.1,258.9,2513.1,259.1,2513.2,259.2Z" transform="translate(0 -6.7)"/><path class="cls-59" d="M2437.3,354l.5.2h0l.2.5c0,.1.1.1.2.1s.1,0,.2-.1l.2-.5h0l.5-.2c.1-.1.1-.3,0-.3l-.5-.2h0l-.2-.5c0-.1-.1-.1-.2-.1s-.1,0-.2.1l-.2.5h0l-.5.2C2437.2,353.8,2437.2,354,2437.3,354Z" transform="translate(0 -6.7)"/><path class="cls-60" d="M2418.4,365.4l.5.2h0l.2.5c0,.1.1.1.2.1s.1,0,.2-.1l.2-.5h0l.5-.2c.1-.1.1-.3,0-.3l-.5-.2h0l-.2-.5c0-.1-.1-.1-.2-.1s-.1,0-.2.1l-.2.5h0l-.5.2Q2418.1,365.25,2418.4,365.4Z" transform="translate(0 -6.7)"/><path class="cls-61" d="M2418.4,388.2l.5.2h0l.2.5c0,.1.1.1.2.1s.1,0,.2-.1l.2-.5h0l.5-.2c.1-.1.1-.3,0-.3l-.5-.2h0l-.2-.5c0-.1-.1-.1-.2-.1s-.1,0-.2.1l-.2.5h0l-.5.2C2418.2,387.9,2418.2,388.1,2418.4,388.2Z" transform="translate(0 -6.7)"/><path class="cls-62" d="M2801.6,416.6l.5.2h0l.2.5c0,.1.1.1.2.1s.1,0,.2-.1l.2-.5h0l.5-.2c.1-.1.1-.3,0-.3l-.5-.2h0l-.2-.5c0-.1-.1-.1-.2-.1s-.1,0-.2.1l-.2.4h0l-.5.2C2801.4,416.4,2801.4,416.6,2801.6,416.6Z" transform="translate(0 -6.7)"/><path class="cls-63" d="M2858.5,473.5l.5.2h0l.2.5c0,.1.1.1.2.1s.1,0,.2-.1l.2-.5h0l.5-.2c.1-.1.1-.3,0-.3l-.5-.2h0l-.2-.5c0-.1-.1-.1-.2-.1s-.1,0-.2.1l-.2.5h0l-.5.2C2858.3,473.3,2858.3,473.5,2858.5,473.5Z" transform="translate(0 -6.7)"/><path class="cls-64" d="M2867.9,467.8l.5.2h0l.2.5c0,.1.1.1.2.1s.1,0,.2-.1l.2-.5h0l.5-.2c.1-.1.1-.3,0-.3l-.5-.2h0l-.2-.5c0-.1-.1-.1-.2-.1s-.1,0-.2.1l-.2.5h0l-.5.2C2867.8,467.6,2867.8,467.8,2867.9,467.8Z" transform="translate(0 -6.7)"/><path class="cls-65" d="M2924.9,488.7l.5.2h0l.2.5c0,.1.1.1.2.1s.1,0,.2-.1l.2-.5h0l.5-.2c.1-.1.1-.3,0-.3l-.5-.2h0l-.2-.5c0-.1-.1-.1-.2-.1s-.1,0-.2.1l-.2.5h0l-.5.2Q2924.6,488.55,2924.9,488.7Z" transform="translate(0 -6.7)"/><path class="cls-66" d="M2830,526.6l.5.2h0l.2.5c0,.1.1.1.2.1s.1,0,.2-.1l.2-.5h0l.5-.2c.1-.1.1-.3,0-.3l-.5-.2h0l-.2-.5c0-.1-.1-.1-.2-.1s-.1,0-.2.1l-.2.5h0l-.5.2C2829.9,526.4,2829.9,526.6,2830,526.6Z" transform="translate(0 -6.7)"/><path class="cls-67" d="M2792.1,583.6l.5.2h0l.2.5c0,.1.1.1.2.1s.1,0,.2-.1l.2-.5h0l.5-.2c.1-.1.1-.3,0-.3l-.5-.2h0l-.2-.5c0-.1-.1-.1-.2-.1s-.1,0-.2.1l-.2.5h0l-.5.2C2791.9,583.3,2791.9,583.5,2792.1,583.6Z" transform="translate(0 -6.7)"/><path class="cls-68" d="M2811,583.6l.5.2h0l.2.5c0,.1.1.1.2.1s.1,0,.2-.1l.2-.5h0l.5-.2c.1-.1.1-.3,0-.3l-.5-.2h0l-.2-.5c0-.1-.1-.1-.2-.1s-.1,0-.2.1l-.2.5h0l-.5.2C2810.9,583.3,2810.9,583.5,2811,583.6Z" transform="translate(0 -6.7)"/><path class="cls-69" d="M2849,526.6l.5.2h0l.2.5c0,.1.1.1.2.1s.1,0,.2-.1l.2-.5h0l.5-.2c.1-.1.1-.3,0-.3l-.5-.2h0l-.2-.5c0-.1-.1-.1-.2-.1s-.1,0-.2.1l-.2.5h0l-.5.2C2848.8,526.4,2848.8,526.6,2849,526.6Z" transform="translate(0 -6.7)"/><path class="cls-70" d="M2962.8,393.9l.5.2h0l.2.5c0,.1.1.1.2.1s.1,0,.2-.1l.2-.5h0l.5-.2c.1-.1.1-.3,0-.3l-.5-.2h0l-.2-.5c0-.1-.1-.1-.2-.1s-.1,0-.2.1l-.2.5h0l-.5.2C2962.7,393.6,2962.7,393.8,2962.8,393.9Z" transform="translate(0 -6.7)"/><path class="cls-71" d="M2867.9,475.4l.5.2h0l.2.5c0,.1.1.1.2.1s.1,0,.2-.1l.2-.5h0l.5-.2c.1-.1.1-.3,0-.3l-.5-.2h0l-.2-.5c0-.1-.1-.1-.2-.1s-.1,0-.2.1l-.2.5h0l-.5.2C2867.8,475.2,2867.8,475.4,2867.9,475.4Z" transform="translate(0 -6.7)"/><path class="cls-72" d="M2867.9,494.4l.5.2h0l.2.5c0,.1.1.1.2.1s.1,0,.2-.1l.2-.5h0l.5-.2c.1-.1.1-.3,0-.3l-.5-.2h0l-.2-.5c0-.1-.1-.1-.2-.1s-.1,0-.2.1l-.2.5h0l-.5.2C2867.8,494.1,2867.8,494.3,2867.9,494.4Z" transform="translate(0 -6.7)"/><path class="cls-73" d="M2750.3,384.4l.5.2h0l.2.5c0,.1.1.1.2.1s.1,0,.2-.1l.2-.5h0l.5-.2c.1-.1.1-.3,0-.3l-.5-.2h0l-.2-.5c0-.1-.1-.1-.2-.1s-.1,0-.2.1l-.2.5h0l-.5.2C2750.2,384.1,2750.2,384.3,2750.3,384.4Z" transform="translate(0 -6.7)"/><path class="cls-74" d="M2794,494.4l.5.2h0l.2.5c0,.1.1.1.2.1s.1,0,.2-.1l.2-.5h0l.5-.2c.1-.1.1-.3,0-.3l-.5-.2h0l-.2-.5c0-.1-.1-.1-.2-.1s-.1,0-.2.1l-.2.5h0l-.5.2C2793.8,494.1,2793.8,494.3,2794,494.4Z" transform="translate(0 -6.7)"/><path class="cls-75" d="M2767.4,555.1l.5.2h0l.2.5c0,.1.1.1.2.1s.1,0,.2-.1l.2-.5h0l.5-.2c.1-.1.1-.3,0-.3l-.5-.2h0l-.2-.5c0-.1-.1-.1-.2-.1s-.1,0-.2.1l-.2.5h0l-.5.2C2767.3,554.8,2767.3,555,2767.4,555.1Z" transform="translate(0 -6.7)"/><path class="cls-76" d="M2710.5,612l.5.2h0l.2.5c0,.1.1.1.2.1s.1,0,.2-.1l.2-.5h0l.5-.2c.1-.1.1-.3,0-.3l-.5-.2h0l-.2-.5c0-.1-.1-.1-.2-.1s-.1,0-.2.1l-.2.5h0l-.5.2A.19.19,0,0,0,2710.5,612Z" transform="translate(0 -6.7)"/><path class="cls-77" d="M2729.5,536.1l.5.2h0l.2.5c0,.1.1.1.2.1s.1,0,.2-.1l.2-.5h0l.5-.2c.1-.1.1-.3,0-.3l-.5-.2h0l-.2-.5c0-.1-.1-.1-.2-.1s-.1,0-.2.1l-.2.5h0l-.5.2C2729.3,535.9,2729.3,536.1,2729.5,536.1Z" transform="translate(0 -6.7)"/><path class="cls-78" d="M2748.4,536.1l.5.2h0l.2.5c0,.1.1.1.2.1s.1,0,.2-.1l.2-.5h0l.5-.2c.1-.1.1-.3,0-.3l-.5-.2h0l-.2-.5c0-.1-.1-.1-.2-.1s-.1,0-.2.1l-.2.5h0l-.5.2C2748.3,535.9,2748.3,536.1,2748.4,536.1Z" transform="translate(0 -6.7)"/><path class="cls-79" d="M2452.8,726.5l3,1.5a.1.1,0,0,1,.1.1l1.5,3a1.07,1.07,0,0,0,.9.6.87.87,0,0,0,.9-.6l1.5-3a.1.1,0,0,1,.1-.1l3-1.5a1.05,1.05,0,0,0,0-1.9l-3-1.5a.1.1,0,0,1-.1-.1l-1.5-3a1.07,1.07,0,0,0-.9-.6.87.87,0,0,0-.9.6l-1.5,3a.1.1,0,0,1-.1.1l-3,1.5A1.05,1.05,0,0,0,2452.8,726.5Z" transform="translate(0 -6.7)"/><path class="cls-80" d="M2751.3,564.8l3,1.5a.1.1,0,0,1,.1.1l1.5,3a1.07,1.07,0,0,0,.9.6.87.87,0,0,0,.9-.6l1.5-3a.1.1,0,0,1,.1-.1l3-1.5a1.05,1.05,0,0,0,0-1.9l-3-1.5a.1.1,0,0,1-.1-.1l-1.5-3a1.07,1.07,0,0,0-.9-.6.87.87,0,0,0-.9.6l-1.5,3a.1.1,0,0,1-.1.1l-3,1.5A1.05,1.05,0,0,0,2751.3,564.8Z" transform="translate(0 -6.7)"/><path class="cls-81" d="M2722.4,600.4l1.5.7h0l.7,1.5a.57.57,0,0,0,1,0l.7-1.5h0l1.5-.7c.4-.2.4-.8,0-.9l-1.5-.7h0l-.7-1.5a.57.57,0,0,0-1,0l-.7,1.5h0l-1.5.7A.49.49,0,0,0,2722.4,600.4Z" transform="translate(0 -6.7)"/><path class="cls-82" d="M2798.2,485.6l1,.5h0l.5,1c.1.1.2.2.3.2s.3-.1.3-.2l.5-1h0l1-.5c.3-.1.3-.5,0-.7l-1-.5h0l-.5-1c-.1-.1-.2-.2-.3-.2s-.3.1-.3.2l-.5,1h0l-1,.5C2797.9,485,2797.9,485.4,2798.2,485.6Z" transform="translate(0 -6.7)"/><path class="cls-83" d="M2805.7,497.5l.7.4h0l.4.7c0,.1.1.1.2.1s.2,0,.2-.1l.4-.7h0l.7-.4a.28.28,0,0,0,0-.5l-.7-.4h0l-.4-.7c0-.1-.1-.1-.2-.1s-.2,0-.2.1l-.4.7h0l-.7.4A.28.28,0,0,0,2805.7,497.5Z" transform="translate(0 -6.7)"/><path class="cls-84" d="M2489.8,753.2l.9.4h0l.4.9c.1.1.2.2.3.2s.2-.1.3-.2l.4-.9h0l.9-.4a.37.37,0,0,0,0-.6l-.9-.4h0l-.4-.9c-.1-.1-.2-.2-.3-.2s-.2.1-.3.2l-.4.9h0l-.9.4C2489.5,752.8,2489.5,753.1,2489.8,753.2Z" transform="translate(0 -6.7)"/><path class="cls-85" d="M2382.3,727.7l.9.4h0l.4.9c.1.1.2.2.3.2s.2-.1.3-.2l.4-.9h0l.9-.4a.37.37,0,0,0,0-.6l-.9-.4h0l-.4-.9c-.1-.1-.2-.2-.3-.2s-.2.1-.3.2l-.4.9h0l-.9.4C2382,727.3,2382,727.6,2382.3,727.7Z" transform="translate(0 -6.7)"/><path class="cls-86" d="M2343,607.7l1.3.6h0l.6,1.3c.1.2.2.3.4.3s.3-.1.4-.3l.6-1.3h0l1.3-.6a.47.47,0,0,0,0-.8l-1.3-.6h0l-.6-1.3c-.1-.2-.2-.3-.4-.3s-.3.1-.4.3l-.6,1.3h0l-1.3.6C2342.7,607,2342.7,607.5,2343,607.7Z" transform="translate(0 -6.7)"/><path class="cls-87" d="M2471.1,493.4l1.3.6h0l.6,1.3c.1.2.2.3.4.3s.3-.1.4-.3l.6-1.3h0l1.3-.6a.47.47,0,0,0,0-.8l-1.3-.6h0l-.6-1.3c-.1-.2-.2-.3-.4-.3s-.3.1-.4.3l-.6,1.3h0l-1.3.6C2470.8,492.8,2470.8,493.3,2471.1,493.4Z" transform="translate(0 -6.7)"/><path class="cls-88" d="M2455.2,489.7l.7.4h0l.4.7c0,.1.1.1.2.1s.2,0,.2-.1l.4-.7h0l.7-.4a.28.28,0,0,0,0-.5l-.7-.4h0l-.4-.7c0-.1-.1-.1-.2-.1s-.2,0-.2.1l-.4.7h0l-.7.4C2455,489.4,2455,489.6,2455.2,489.7Z" transform="translate(0 -6.7)"/><path class="cls-89" d="M2436.2,527.7l.7.4h0l.4.7c0,.1.1.1.2.1s.2,0,.2-.1l.4-.7h0l.7-.4a.28.28,0,0,0,0-.5l-.7-.4h0l-.4-.7c0-.1-.1-.1-.2-.1s-.2,0-.2.1l-.4.7h0l-.7.4A.28.28,0,0,0,2436.2,527.7Z" transform="translate(0 -6.7)"/><path class="cls-90" d="M2340.1,605.7l.3.2h0l.2.3.1.1a.1.1,0,0,0,.1-.1l.2-.3h0l.3-.2c.1,0,.1-.2,0-.2l-.3-.2h0l-.2-.3-.1-.1a.1.1,0,0,0-.1.1l-.2.3h0l-.3.2C2340,605.5,2340,605.6,2340.1,605.7Z" transform="translate(0 -6.7)"/><path class="cls-91" d="M2316.4,526.3l1.9.9.1.1.9,1.9a.82.82,0,0,0,.6.4.62.62,0,0,0,.6-.4l.9-1.9.1-.1,1.9-.9a.67.67,0,0,0,0-1.2l-1.9-.9-.1-.1-.9-1.9a.82.82,0,0,0-.6-.4.62.62,0,0,0-.6.4l-.9,1.9-.1.1-1.9.9A.67.67,0,0,0,2316.4,526.3Z" transform="translate(0 -6.7)"/><path class="cls-92" d="M2290,528.4l1,.5h0l.5,1c.1.1.2.2.3.2s.2-.1.3-.2l.5-1h0l1-.5a.31.31,0,0,0,0-.6l-1-.5h0l-.5-1c-.1-.1-.2-.2-.3-.2s-.2.1-.3.2l-.5,1h0l-1,.5A.31.31,0,0,0,2290,528.4Z" transform="translate(0 -6.7)"/><path class="cls-93" d="M2296.7,477.9l1,.5h0l.5,1c.1.1.2.2.3.2s.2-.1.3-.2l.5-1h0l1-.5a.31.31,0,0,0,0-.6l-1-.5h0l-.5-1c-.1-.1-.2-.2-.3-.2s-.2.1-.3.2l-.5,1h0l-1,.5A.31.31,0,0,0,2296.7,477.9Z" transform="translate(0 -6.7)"/><path class="cls-94" d="M2276.6,589.4l1.3.6h0l.6,1.3c.1.2.2.3.4.3s.3-.1.4-.3l.6-1.3h0l1.3-.6a.47.47,0,0,0,0-.8l-1.3-.6h0l-.6-1.3c-.1-.2-.2-.3-.4-.3s-.3.1-.4.3l-.6,1.3h0l-1.3.6C2276.2,588.7,2276.2,589.2,2276.6,589.4Z" transform="translate(0 -6.7)"/></g></g><g id="stars-collection-2" data-name="stars-collection"><g id="stars-2" data-name="stars"><path class="cls-95" d="M602.6,503.5l4.1,2,.1.1,2,4.1a1.46,1.46,0,0,0,2.6,0l2-4.1.1-.1,4.1-2a1.44,1.44,0,0,0,0-2.6l-4.1-2-.1-.1-2-4.1a1.46,1.46,0,0,0-2.6,0l-2,4.1-.1.1-4.1,2A1.44,1.44,0,0,0,602.6,503.5Z" transform="translate(0 -6.7)"/><path class="cls-96" d="M770.8,394.8l4.1,2,.1.1,2,4.1a1.46,1.46,0,0,0,2.6,0l2-4.1.1-.1,4.1-2a1.44,1.44,0,0,0,0-2.6l-4.1-2-.1-.1-2-4.1a1.46,1.46,0,0,0-2.6,0l-2,4.1-.1.1-4.1,2A1.44,1.44,0,0,0,770.8,394.8Z" transform="translate(0 -6.7)"/><path class="cls-97" d="M715.4,422.4l2.3,1.1.1.1,1.1,2.3c.2.3.4.5.7.5a.75.75,0,0,0,.7-.5l1.1-2.3.1-.1,2.3-1.1a.85.85,0,0,0,0-1.5l-2.3-1.1-.1-.1-1.1-2.3c-.2-.3-.4-.5-.7-.5a.75.75,0,0,0-.7.5l-1.1,2.3-.1.1-2.3,1.1A.85.85,0,0,0,715.4,422.4Z" transform="translate(0 -6.7)"/><path class="cls-98" d="M562.9,390.5l1.8.9.1.1.9,1.8c.2.2.3.4.6.4a.68.68,0,0,0,.6-.4l.9-1.8.1-.1,1.8-.9a.67.67,0,0,0,0-1.2l-1.8-.9-.1-.1-.9-1.8c-.2-.2-.3-.4-.6-.4a.68.68,0,0,0-.6.4l-.9,1.8-.1.1-1.8.9A.67.67,0,0,0,562.9,390.5Z" transform="translate(0 -6.7)"/><path class="cls-99" d="M817.6,301.1l.9.4h0l.4.9c.1.1.2.2.3.2s.2-.1.3-.2l.4-.9h0l.9-.4a.28.28,0,0,0,0-.5l-.9-.4h0l-.4-.9c-.1-.1-.2-.2-.3-.2s-.2.1-.3.2l-.4.9h0l-.9.4A.28.28,0,0,0,817.6,301.1Z" transform="translate(0 -6.7)"/><path class="cls-100" d="M912.4,377l.9.4h0l.4.9c.1.1.2.2.3.2s.2-.1.3-.2l.4-.9h0l.9-.4a.28.28,0,0,0,0-.5l-.9-.4h0l-.4-.9c-.1-.1-.2-.2-.3-.2s-.2.1-.3.2l-.4.9h0l-.9.4A.28.28,0,0,0,912.4,377Z" transform="translate(0 -6.7)"/><path class="cls-101" d="M796.7,430.1l.9.4h0l.4.9c.1.1.2.2.3.2s.2-.1.3-.2l.4-.9h0l.9-.4a.28.28,0,0,0,0-.5l-.9-.4h0l-.4-.9c-.1-.1-.2-.2-.3-.2s-.2.1-.3.2l-.4.9h0l-.9.4A.28.28,0,0,0,796.7,430.1Z" transform="translate(0 -6.7)"/><path class="cls-102" d="M699.1,370.8l1.3.6h0l.6,1.3c.1.2.2.3.4.3s.3-.1.4-.3l.6-1.3h0l1.3-.6c.3-.2.3-.7,0-.8l-1.3-.6h0l-.6-1.3c-.1-.2-.2-.3-.4-.3s-.3.1-.4.3l-.6,1.3h0l-1.3.6C698.7,370.1,698.7,370.6,699.1,370.8Z" transform="translate(0 -6.7)"/><path class="cls-103" d="M961.8,370.8l1.3.6h0l.6,1.3c.1.2.2.3.4.3s.3-.1.4-.3l.6-1.3h0l1.3-.6c.3-.2.3-.7,0-.8l-1.3-.6h0l-.6-1.3c-.1-.2-.2-.3-.4-.3s-.3.1-.4.3l-.6,1.3h0l-1.3.6C961.4,370.1,961.4,370.6,961.8,370.8Z" transform="translate(0 -6.7)"/><path class="cls-104" d="M762.4,708l1.3.6h0l.6,1.3c.1.2.2.3.4.3s.3-.1.4-.3l.6-1.3h0l1.3-.6a.47.47,0,0,0,0-.8l-1.3-.6h0l-.6-1.3c-.1-.2-.2-.3-.4-.3s-.3.1-.4.3l-.6,1.3h0l-1.3.6C762.1,707.3,762.1,707.8,762.4,708Z" transform="translate(0 -6.7)"/><path class="cls-105" d="M1025.8,626.9l.8.4h0l.4.8c.1.1.1.2.2.2a.22.22,0,0,0,.2-.2l.4-.8h0l.8-.4a.28.28,0,0,0,0-.5l-.8-.4h0l-.4-.8c-.1-.1-.1-.2-.2-.2a.22.22,0,0,0-.2.2l-.4.8h0l-.8.4A.28.28,0,0,0,1025.8,626.9Z" transform="translate(0 -6.7)"/><path class="cls-106" d="M1021.5,617.7l.5.2h0l.2.5c0,.1.1.1.2.1s.1,0,.2-.1l.2-.5h0l.5-.2c.1-.1.1-.3,0-.3l-.5-.2h0l-.2-.5c0-.1-.1-.1-.2-.1s-.1,0-.2.1l-.2.5h0l-.5.2C1021.4,617.4,1021.4,617.6,1021.5,617.7Z" transform="translate(0 -6.7)"/><path class="cls-107" d="M1059.5,655.6l.5.2h0l.2.5c0,.1.1.1.2.1s.1,0,.2-.1l.2-.5h0l.5-.2c.1-.1.1-.3,0-.3l-.5-.2h0l-.2-.5c0-.1-.1-.1-.2-.1s-.1,0-.2.1l-.2.5h0l-.5.2C1059.3,655.4,1059.3,655.6,1059.5,655.6Z" transform="translate(0 -6.7)"/><path class="cls-108" d="M1078.4,636.7l.5.2h0l.2.5c0,.1.1.1.2.1s.1,0,.2-.1l.2-.5h0l.5-.2c.1-.1.1-.3,0-.3l-.5-.2h0l-.2-.5c0-.1-.1-.1-.2-.1s-.1,0-.2.1l-.2.5h0l-.5.2C1078.3,636.4,1078.3,636.6,1078.4,636.7Z" transform="translate(0 -6.7)"/><path class="cls-109" d="M1059.5,648.1l.5.2h0l.2.5c0,.1.1.1.2.1s.1,0,.2-.1l.2-.5h0l.5-.2c.1-.1.1-.3,0-.3l-.5-.2h0l-.2-.5c0-.1-.1-.1-.2-.1s-.1,0-.2.1l-.2.5h0l-.5.2C1059.3,647.8,1059.3,648,1059.5,648.1Z" transform="translate(0 -6.7)"/><path class="cls-110" d="M1013.9,648.1l.5.2h0l.2.5c0,.1.1.1.2.1s.1,0,.2-.1l.2-.5h0l.5-.2c.1-.1.1-.3,0-.3l-.5-.2h0l-.2-.5c0-.1-.1-.1-.2-.1s-.1,0-.2.1l-.2.5h0l-.5.2C1013.8,647.8,1013.8,648,1013.9,648.1Z" transform="translate(0 -6.7)"/><path class="cls-111" d="M1051.9,549.4l.5.2h0l.2.5c0,.1.1.1.2.1s.1,0,.2-.1l.2-.5h0l.5-.2c.1-.1.1-.3,0-.3l-.5-.2h0l-.2-.5c0-.1-.1-.1-.2-.1s-.1,0-.2.1l-.2.5h0l-.5.2Q1051.6,549.25,1051.9,549.4Z" transform="translate(0 -6.7)"/><path class="cls-112" d="M1051.9,435.6l.5.2h0l.2.5c0,.1.1.1.2.1s.1,0,.2-.1l.2-.5h0l.5-.2c.1-.1.1-.3,0-.3l-.5-.2h0l-.2-.5c0-.1-.1-.1-.2-.1s-.1,0-.2.1l-.2.5h0l-.5.2C1051.7,435.3,1051.7,435.5,1051.9,435.6Z" transform="translate(0 -6.7)"/><path class="cls-113" d="M1040.5,441.3l.5.2h0l.2.5c0,.1.1.1.2.1s.1,0,.2-.1l.2-.5h0l.5-.2c.1-.1.1-.3,0-.3l-.5-.2h0l-.2-.5c0-.1-.1-.1-.2-.1s-.1,0-.2.1l-.2.5h0l-.5.2C1040.4,441,1040.4,441.2,1040.5,441.3Z" transform="translate(0 -6.7)"/><path class="cls-114" d="M964.6,403.3l.5.2h0l.2.5c0,.1.1.1.2.1s.1,0,.2-.1l.2-.5h0l.5-.2c.1-.1.1-.3,0-.3l-.5-.2h0l-.2-.5c0-.1-.1-.1-.2-.1s-.1,0-.2.1l-.2.5h0l-.5.2C964.5,403.1,964.5,403.3,964.6,403.3Z" transform="translate(0 -6.7)"/><path class="cls-115" d="M976,399.6l.5.2h0l.2.5c0,.1.1.1.2.1s.1,0,.2-.1l.2-.5h0l.5-.2c.1-.1.1-.3,0-.3l-.5-.2h0l-.2-.5c0-.1-.1-.1-.2-.1s-.1,0-.2.1l-.2.5h0l-.5.2C975.9,399.3,975.9,399.5,976,399.6Z" transform="translate(0 -6.7)"/><path class="cls-116" d="M972.2,393.9l.5.2h0l.2.5c0,.1.1.1.2.1s.1,0,.2-.1l.2-.5h0l.5-.2c.1-.1.1-.3,0-.3l-.5-.2h0l-.2-.5c0-.1-.1-.1-.2-.1s-.1,0-.2.1l-.2.5h0l-.5.2C972.1,393.6,972.1,393.8,972.2,393.9Z" transform="translate(0 -6.7)"/><path class="cls-117" d="M826.1,299l.5.2h0l.2.5c0,.1.1.1.2.1s.1,0,.2-.1l.2-.5h0l.5-.2c.1-.1.1-.3,0-.3l-.5-.2h0l-.2-.5c0-.1-.1-.1-.2-.1s-.1,0-.2.1l-.2.5h0l-.5.2C826,298.8,826,299,826.1,299Z" transform="translate(0 -6.7)"/><path class="cls-118" d="M807.2,325.6l.5.2h0l.2.5c0,.1.1.1.2.1s.1,0,.2-.1l.2-.5h0l.5-.2c.1-.1.1-.3,0-.3l-.5-.2h0l-.2-.5c0-.1-.1-.1-.2-.1s-.1,0-.2.1l-.2.5h0l-.5.2C807,325.3,807,325.5,807.2,325.6Z" transform="translate(0 -6.7)"/><path class="cls-119" d="M809.1,371.1l.5.2h0l.2.5c0,.1.1.1.2.1s.1,0,.2-.1l.2-.5h0l.5-.2c.1-.1.1-.3,0-.3l-.5-.2h0l-.2-.5c0-.1-.1-.1-.2-.1s-.1,0-.2.1l-.2.5h0l-.5.2C808.9,370.8,808.9,371,809.1,371.1Z" transform="translate(0 -6.7)"/><path class="cls-120" d="M771.1,428l.5.2h0l.2.5c0,.1.1.1.2.1s.1,0,.2-.1l.2-.5h0l.5-.2c.1-.1.1-.3,0-.3l-.5-.2h0l-.2-.5c0-.1-.1-.1-.2-.1s-.1,0-.2.1l-.2.5h0l-.5.2A.19.19,0,0,0,771.1,428Z" transform="translate(0 -6.7)"/><path class="cls-121" d="M714.2,409l.5.2h0l.2.5c0,.1.1.1.2.1s.1,0,.2-.1l.2-.5h0l.5-.2c.1-.1.1-.3,0-.3l-.5-.2h0l-.2-.5c0-.1-.1-.1-.2-.1s-.1,0-.2.1l-.2.5h0l-.5.2C714.1,408.8,714.1,409,714.2,409Z" transform="translate(0 -6.7)"/><path class="cls-122" d="M619.4,484.9l.5.2h0l.2.5c0,.1.1.1.2.1s.1,0,.2-.1l.2-.5h0l.5-.2c.1-.1.1-.3,0-.3l-.5-.2h0l-.2-.5c0-.1-.1-.1-.2-.1s-.1,0-.2.1l-.2.5h0l-.5.2C619.2,484.7,619.2,484.9,619.4,484.9Z" transform="translate(0 -6.7)"/><path class="cls-123" d="M615.6,494.4l.5.2h0l.2.5c0,.1.1.1.2.1s.1,0,.2-.1l.2-.5h0l.5-.2c.1-.1.1-.3,0-.3l-.5-.2h0l-.2-.5c0-.1-.1-.1-.2-.1s-.1,0-.2.1l-.2.5h0l-.5.2C615.5,494.1,615.5,494.3,615.6,494.4Z" transform="translate(0 -6.7)"/><path class="cls-124" d="M644,517.2l.5.2h0l.2.5c0,.1.1.1.2.1s.1,0,.2-.1l.2-.5h0l.5-.2c.1-.1.1-.3,0-.3l-.5-.2h0l-.2-.5c0-.1-.1-.1-.2-.1s-.1,0-.2.1l-.2.5h0l-.5.2C643.9,516.9,643.9,517.1,644,517.2Z" transform="translate(0 -6.7)"/><path class="cls-125" d="M682,612l.5.2h0l.2.5c0,.1.1.1.2.1s.1,0,.2-.1l.2-.5h0l.5-.2c.1-.1.1-.3,0-.3l-.5-.2h0l-.2-.5c0-.1-.1-.1-.2-.1s-.1,0-.2.1l-.2.5h0l-.5.2Q681.7,611.85,682,612Z" transform="translate(0 -6.7)"/><path class="cls-126" d="M672.5,443.2l.5.2h0l.2.5c0,.1.1.1.2.1s.1,0,.2-.1l.2-.5h0l.5-.2c.1-.1.1-.3,0-.3l-.5-.2h0l-.2-.5c0-.1-.1-.1-.2-.1s-.1,0-.2.1l-.2.5h0l-.5.2C672.4,442.9,672.4,443.1,672.5,443.2Z" transform="translate(0 -6.7)"/><path class="cls-127" d="M542.5,413.2l.5.2h0l.2.5c0,.1.1.1.2.1s.1,0,.2-.1l.2-.5h0l.5-.2c.1-.1.1-.3,0-.3l-.5-.2h0l-.2-.5c0-.1-.1-.1-.2-.1s-.1,0-.2.1l-.2.5h0l-.5.2C542.4,412.9,542.4,413.1,542.5,413.2Z" transform="translate(0 -6.7)"/><path class="cls-128" d="M574.5,395.2l.5.2h0l.2.5c0,.1.1.1.2.1s.1,0,.2-.1l.2-.5h0l.5-.2c.1-.1.1-.3,0-.3l-.5-.2h0l-.2-.5c0-.1-.1-.1-.2-.1s-.1,0-.2.1l-.2.5h0l-.5.2C574.4,394.9,574.4,395.1,574.5,395.2Z" transform="translate(0 -6.7)"/><path class="cls-129" d="M786.3,422.3l.5.2h0l.2.5c0,.1.1.1.2.1s.1,0,.2-.1l.2-.5h0l.5-.2c.1-.1.1-.3,0-.3l-.5-.2h0l-.2-.5c0-.1-.1-.1-.2-.1s-.1,0-.2.1l-.2.5h0l-.5.2C786.2,422.1,786.2,422.3,786.3,422.3Z" transform="translate(0 -6.7)"/><path class="cls-130" d="M976,348.3l.5.2h0l.2.5c0,.1.1.1.2.1s.1,0,.2-.1l.2-.5h0l.5-.2c.1-.1.1-.3,0-.3l-.5-.2h0l-.2-.5c0-.1-.1-.1-.2-.1s-.1,0-.2.1l-.2.5h0l-.5.2C975.9,348.1,975.9,348.3,976,348.3Z" transform="translate(0 -6.7)"/><path class="cls-131" d="M1032.9,291.4l.5.2h0l.2.5c0,.1.1.1.2.1s.1,0,.2-.1l.2-.5h0l.5-.2c.1-.1.1-.3,0-.3l-.5-.2h0l-.2-.5c0-.1-.1-.1-.2-.1s-.1,0-.2.1l-.2.5h0l-.5.2C1032.8,291.2,1032.8,291.4,1032.9,291.4Z" transform="translate(0 -6.7)"/><path class="cls-132" d="M1036.7,281.9l.5.2h0l.2.5c0,.1.1.1.2.1s.1,0,.2-.1l.2-.5h0l.5-.2c.1-.1.1-.3,0-.3l-.5-.2h0l-.2-.5c0-.1-.1-.1-.2-.1s-.1,0-.2.1l-.2.5h0l-.5.2C1036.6,281.7,1036.6,281.9,1036.7,281.9Z" transform="translate(0 -6.7)"/><path class="cls-133" d="M1074.6,376.8l.5.2h0l.2.5c0,.1.1.1.2.1s.1,0,.2-.1l.2-.5h0l.5-.2c.1-.1.1-.3,0-.3l-.5-.2h0l-.2-.5c0-.1-.1-.1-.2-.1s-.1,0-.2.1l-.2.5h0l-.5.2C1074.5,376.5,1074.5,376.7,1074.6,376.8Z" transform="translate(0 -6.7)"/><path class="cls-134" d="M1093.6,376.8l.5.2h0l.2.5c0,.1.1.1.2.1s.1,0,.2-.1l.2-.5h0l.5-.2c.1-.1.1-.3,0-.3l-.5-.2h0l-.2-.5c0-.1-.1-.1-.2-.1s-.1,0-.2.1l-.2.5h0l-.5.2C1093.5,376.5,1093.5,376.7,1093.6,376.8Z" transform="translate(0 -6.7)"/><path class="cls-135" d="M1105,374.9l.5.2h0l.2.5c0,.1.1.1.2.1s.1,0,.2-.1l.2-.5h0l.5-.2c.1-.1.1-.3,0-.3l-.5-.2h0l-.2-.5c0-.1-.1-.1-.2-.1s-.1,0-.2.1l-.2.5h0l-.5.2C1104.9,374.6,1104.9,374.8,1105,374.9Z" transform="translate(0 -6.7)"/><path class="cls-136" d="M1226.4,319.9l.5.2h0l.2.5c0,.1.1.1.2.1s.1,0,.2-.1l.2-.5h0l.5-.2c.1-.1.1-.3,0-.3l-.5-.2h0l-.2-.5c0-.1-.1-.1-.2-.1s-.1,0-.2.1l-.2.5h0l-.5.2C1226.3,319.6,1226.3,319.8,1226.4,319.9Z" transform="translate(0 -6.7)"/><path class="cls-137" d="M1435.1,281.9l.5.2h0l.2.5c0,.1.1.1.2.1s.1,0,.2-.1l.2-.5h0l.5-.2c.1-.1.1-.3,0-.3l-.5-.2h0l-.2-.5c0-.1-.1-.1-.2-.1s-.1,0-.2.1l-.2.5h0l-.5.2C1434.9,281.7,1434.9,281.9,1435.1,281.9Z" transform="translate(0 -6.7)"/><path class="cls-138" d="M1425.6,293.3l.5.2h0l.2.5c0,.1.1.1.2.1s.1,0,.2-.1l.2-.5h0l.5-.2c.1-.1.1-.3,0-.3l-.5-.2h0l-.2-.5c0-.1-.1-.1-.2-.1s-.1,0-.2.1l-.2.5h0l-.5.2C1425.4,293.1,1425.4,293.3,1425.6,293.3Z" transform="translate(0 -6.7)"/><path class="cls-139" d="M1499.6,354l.5.2h0l.2.5c0,.1.1.1.2.1s.1,0,.2-.1l.2-.5h0l.5-.2c.1-.1.1-.3,0-.3l-.5-.2h0l-.2-.5c0-.1-.1-.1-.2-.1s-.1,0-.2.1l-.2.5h0l-.5.2C1499.4,353.8,1499.4,354,1499.6,354Z" transform="translate(0 -6.7)"/><path class="cls-140" d="M890.6,221.2l.5.2h0l.2.5c0,.1.1.1.2.1s.1,0,.2-.1l.2-.5h0l.5-.2c.1-.1.1-.3,0-.3l-.5-.2h0l-.2-.5c0-.1-.1-.1-.2-.1s-.1,0-.2.1l-.2.5h0l-.5.2C890.5,221,890.5,221.2,890.6,221.2Z" transform="translate(0 -6.7)"/><path class="cls-141" d="M795.8,221.2l.5.2h0l.2.5c0,.1.1.1.2.1s.1,0,.2-.1l.2-.5h0l.5-.2c.1-.1.1-.3,0-.3l-.5-.2h0l-.2-.5c0-.1-.1-.1-.2-.1s-.1,0-.2.1l-.2.5h0l-.5.2C795.7,221,795.7,221.2,795.8,221.2Z" transform="translate(0 -6.7)"/><path class="cls-142" d="M801.5,228.8l.5.2h0l.2.5c0,.1.1.1.2.1s.1,0,.2-.1l.2-.5h0l.5-.2c.1-.1.1-.3,0-.3l-.5-.2h0l-.2-.5c0-.1-.1-.1-.2-.1s-.1,0-.2.1l-.2.5h0l-.5.2C801.4,228.6,801.4,228.8,801.5,228.8Z" transform="translate(0 -6.7)"/><path class="cls-143" d="M805.3,289.5l.5.2h0l.2.5c0,.1.1.1.2.1s.1,0,.2-.1l.2-.5h0l.5-.2c.1-.1.1-.3,0-.3l-.5-.2h0l-.2-.5c0-.1-.1-.1-.2-.1s-.1,0-.2.1l-.2.5h0l-.5.2C805.1,289.3,805.1,289.5,805.3,289.5Z" transform="translate(0 -6.7)"/><path class="cls-144" d="M767.3,308.5l.5.2h0l.2.5c0,.1.1.1.2.1s.1,0,.2-.1l.2-.5h0l.5-.2c.1-.1.1-.3,0-.3l-.5-.2h0l-.2-.5c0-.1-.1-.1-.2-.1s-.1,0-.2.1l-.2.5h0l-.5.2C767.2,308.2,767.2,308.4,767.3,308.5Z" transform="translate(0 -6.7)"/><path class="cls-145" d="M786.3,297.1l.5.2h0l.2.5c0,.1.1.1.2.1s.1,0,.2-.1l.2-.5h0l.5-.2c.1-.1.1-.3,0-.3l-.5-.2h0l-.2-.5c0-.1-.1-.1-.2-.1h-.1l-.2.5h0l-.5.2C786.2,296.9,786.2,297.1,786.3,297.1Z" transform="translate(0 -6.7)"/><path class="cls-146" d="M843.2,259.2l.5.2h0l.2.5c0,.1.1.1.2.1s.1,0,.2-.1l.2-.5h0l.5-.2c.1-.1.1-.3,0-.3l-.5-.2h0l-.2-.5c0-.1-.1-.1-.2-.1s-.1,0-.2.1l-.2.5h0l-.5.2C843.1,258.9,843.1,259.1,843.2,259.2Z" transform="translate(0 -6.7)"/><path class="cls-147" d="M767.3,354l.5.2h0l.2.5c0,.1.1.1.2.1s.1,0,.2-.1l.2-.5h0l.5-.2c.1-.1.1-.3,0-.3l-.5-.2h0l-.2-.5c0-.1-.1-.1-.2-.1s-.1,0-.2.1l-.2.5h0l-.5.2C767.2,353.8,767.2,354,767.3,354Z" transform="translate(0 -6.7)"/><path class="cls-148" d="M748.4,365.4l.5.2h0l.2.5c0,.1.1.1.2.1s.1,0,.2-.1l.2-.5h0l.5-.2c.1-.1.1-.3,0-.3l-.5-.2h0l-.2-.5c0-.1-.1-.1-.2-.1s-.1,0-.2.1l-.2.5h0l-.5.2Q748.1,365.25,748.4,365.4Z" transform="translate(0 -6.7)"/><path class="cls-149" d="M748.4,388.2l.5.2h0l.2.5c0,.1.1.1.2.1s.1,0,.2-.1l.2-.5h0l.5-.2c.1-.1.1-.3,0-.3l-.5-.2h0l-.2-.5c0-.1-.1-.1-.2-.1s-.1,0-.2.1l-.2.5h0l-.5.2C748.2,387.9,748.2,388.1,748.4,388.2Z" transform="translate(0 -6.7)"/><path class="cls-150" d="M1131.6,416.6l.5.2h0l.2.5c0,.1.1.1.2.1s.1,0,.2-.1l.2-.5h0l.5-.2c.1-.1.1-.3,0-.3l-.5-.2h0l-.2-.5c0-.1-.1-.1-.2-.1s-.1,0-.2.1l-.2.4h0l-.5.2C1131.4,416.4,1131.4,416.6,1131.6,416.6Z" transform="translate(0 -6.7)"/><path class="cls-151" d="M1188.5,473.5l.5.2h0l.2.5c0,.1.1.1.2.1s.1,0,.2-.1l.2-.5h0l.5-.2c.1-.1.1-.3,0-.3l-.5-.2h0l-.2-.5c0-.1-.1-.1-.2-.1s-.1,0-.2.1l-.2.5h0l-.5.2C1188.3,473.3,1188.3,473.5,1188.5,473.5Z" transform="translate(0 -6.7)"/><path class="cls-152" d="M1197.9,467.8l.5.2h0l.2.5c0,.1.1.1.2.1s.1,0,.2-.1l.2-.5h0l.5-.2c.1-.1.1-.3,0-.3l-.5-.2h0l-.2-.5c0-.1-.1-.1-.2-.1s-.1,0-.2.1l-.2.5h0l-.5.2C1197.8,467.6,1197.8,467.8,1197.9,467.8Z" transform="translate(0 -6.7)"/><path class="cls-153" d="M1254.9,488.7l.5.2h0l.2.5c0,.1.1.1.2.1s.1,0,.2-.1l.2-.5h0l.5-.2c.1-.1.1-.3,0-.3l-.5-.2h0l-.2-.5c0-.1-.1-.1-.2-.1s-.1,0-.2.1l-.2.5h0l-.5.2Q1254.6,488.55,1254.9,488.7Z" transform="translate(0 -6.7)"/><path class="cls-154" d="M1160,526.6l.5.2h0l.2.5c0,.1.1.1.2.1s.1,0,.2-.1l.2-.5h0l.5-.2c.1-.1.1-.3,0-.3l-.5-.2h0l-.2-.5c0-.1-.1-.1-.2-.1s-.1,0-.2.1l-.2.5h0l-.5.2C1159.9,526.4,1159.9,526.6,1160,526.6Z" transform="translate(0 -6.7)"/><path class="cls-155" d="M1122.1,583.6l.5.2h0l.2.5c0,.1.1.1.2.1s.1,0,.2-.1l.2-.5h0l.5-.2c.1-.1.1-.3,0-.3l-.5-.2h0l-.2-.5c0-.1-.1-.1-.2-.1s-.1,0-.2.1l-.2.5h0l-.5.2C1121.9,583.3,1121.9,583.5,1122.1,583.6Z" transform="translate(0 -6.7)"/><path class="cls-156" d="M1141,583.6l.5.2h0l.2.5c0,.1.1.1.2.1s.1,0,.2-.1l.2-.5h0l.5-.2c.1-.1.1-.3,0-.3l-.5-.2h0l-.2-.5c0-.1-.1-.1-.2-.1s-.1,0-.2.1l-.2.5h0l-.5.2C1140.9,583.3,1140.9,583.5,1141,583.6Z" transform="translate(0 -6.7)"/><path class="cls-157" d="M1179,526.6l.5.2h0l.2.5c0,.1.1.1.2.1s.1,0,.2-.1l.2-.5h0l.5-.2c.1-.1.1-.3,0-.3l-.5-.2h0l-.2-.5c0-.1-.1-.1-.2-.1s-.1,0-.2.1l-.2.5h0l-.5.2C1178.8,526.4,1178.8,526.6,1179,526.6Z" transform="translate(0 -6.7)"/><path class="cls-158" d="M1292.8,393.9l.5.2h0l.2.5c0,.1.1.1.2.1s.1,0,.2-.1l.2-.5h0l.5-.2c.1-.1.1-.3,0-.3l-.5-.2h0l-.2-.5c0-.1-.1-.1-.2-.1s-.1,0-.2.1l-.2.5h0l-.5.2C1292.7,393.6,1292.7,393.8,1292.8,393.9Z" transform="translate(0 -6.7)"/><path class="cls-159" d="M1197.9,475.4l.5.2h0l.2.5c0,.1.1.1.2.1s.1,0,.2-.1l.2-.5h0l.5-.2c.1-.1.1-.3,0-.3l-.5-.2h0l-.2-.5c0-.1-.1-.1-.2-.1s-.1,0-.2.1l-.2.5h0l-.5.2C1197.8,475.2,1197.8,475.4,1197.9,475.4Z" transform="translate(0 -6.7)"/><path class="cls-160" d="M1197.9,494.4l.5.2h0l.2.5c0,.1.1.1.2.1s.1,0,.2-.1l.2-.5h0l.5-.2c.1-.1.1-.3,0-.3l-.5-.2h0l-.2-.5c0-.1-.1-.1-.2-.1s-.1,0-.2.1l-.2.5h0l-.5.2C1197.8,494.1,1197.8,494.3,1197.9,494.4Z" transform="translate(0 -6.7)"/><path class="cls-161" d="M1080.3,384.4l.5.2h0l.2.5c0,.1.1.1.2.1s.1,0,.2-.1l.2-.5h0l.5-.2c.1-.1.1-.3,0-.3l-.5-.2h0l-.2-.5c0-.1-.1-.1-.2-.1s-.1,0-.2.1l-.2.5h0l-.5.2C1080.2,384.1,1080.2,384.3,1080.3,384.4Z" transform="translate(0 -6.7)"/><path class="cls-162" d="M1124,494.4l.5.2h0l.2.5c0,.1.1.1.2.1s.1,0,.2-.1l.2-.5h0l.5-.2c.1-.1.1-.3,0-.3l-.5-.2h0l-.2-.5c0-.1-.1-.1-.2-.1s-.1,0-.2.1l-.2.5h0l-.5.2C1123.8,494.1,1123.8,494.3,1124,494.4Z" transform="translate(0 -6.7)"/><path class="cls-163" d="M1097.4,555.1l.5.2h0l.2.5c0,.1.1.1.2.1s.1,0,.2-.1l.2-.5h0l.5-.2c.1-.1.1-.3,0-.3l-.5-.2h0l-.2-.5c0-.1-.1-.1-.2-.1s-.1,0-.2.1l-.2.5h0l-.5.2C1097.3,554.8,1097.3,555,1097.4,555.1Z" transform="translate(0 -6.7)"/><path class="cls-164" d="M1040.5,612l.5.2h0l.2.5c0,.1.1.1.2.1s.1,0,.2-.1l.2-.5h0l.5-.2c.1-.1.1-.3,0-.3l-.5-.2h0l-.2-.5c0-.1-.1-.1-.2-.1s-.1,0-.2.1l-.2.5h0l-.5.2A.19.19,0,0,0,1040.5,612Z" transform="translate(0 -6.7)"/><path class="cls-165" d="M1059.5,536.1l.5.2h0l.2.5c0,.1.1.1.2.1s.1,0,.2-.1l.2-.5h0l.5-.2c.1-.1.1-.3,0-.3l-.5-.2h0l-.2-.5c0-.1-.1-.1-.2-.1s-.1,0-.2.1l-.2.5h0l-.5.2C1059.3,535.9,1059.3,536.1,1059.5,536.1Z" transform="translate(0 -6.7)"/><path class="cls-166" d="M1078.4,536.1l.5.2h0l.2.5c0,.1.1.1.2.1s.1,0,.2-.1l.2-.5h0l.5-.2c.1-.1.1-.3,0-.3l-.5-.2h0l-.2-.5c0-.1-.1-.1-.2-.1s-.1,0-.2.1l-.2.5h0l-.5.2C1078.3,535.9,1078.3,536.1,1078.4,536.1Z" transform="translate(0 -6.7)"/><path class="cls-167" d="M782.8,726.5l3,1.5a.1.1,0,0,1,.1.1l1.5,3a1.07,1.07,0,0,0,.9.6.87.87,0,0,0,.9-.6l1.5-3a.1.1,0,0,1,.1-.1l3-1.5a1.05,1.05,0,0,0,0-1.9l-3-1.5a.1.1,0,0,1-.1-.1l-1.5-3a1.07,1.07,0,0,0-.9-.6.87.87,0,0,0-.9.6l-1.5,3a.1.1,0,0,1-.1.1l-3,1.5A1.05,1.05,0,0,0,782.8,726.5Z" transform="translate(0 -6.7)"/><path class="cls-168" d="M1081.3,564.8l3,1.5a.1.1,0,0,1,.1.1l1.5,3a1.07,1.07,0,0,0,.9.6.87.87,0,0,0,.9-.6l1.5-3a.1.1,0,0,1,.1-.1l3-1.5a1.05,1.05,0,0,0,0-1.9l-3-1.5a.1.1,0,0,1-.1-.1l-1.5-3a1.07,1.07,0,0,0-.9-.6.87.87,0,0,0-.9.6l-1.5,3a.1.1,0,0,1-.1.1l-3,1.5A1.05,1.05,0,0,0,1081.3,564.8Z" transform="translate(0 -6.7)"/><path class="cls-169" d="M1052.4,600.4l1.5.7h0l.7,1.5a.57.57,0,0,0,1,0l.7-1.5h0l1.5-.7c.4-.2.4-.8,0-.9l-1.5-.7h0l-.7-1.5a.57.57,0,0,0-1,0l-.7,1.5h0l-1.5.7A.49.49,0,0,0,1052.4,600.4Z" transform="translate(0 -6.7)"/><path class="cls-170" d="M1128.2,485.6l1,.5h0l.5,1c.1.1.2.2.3.2s.3-.1.3-.2l.5-1h0l1-.5c.3-.1.3-.5,0-.7l-1-.5h0l-.5-1c-.1-.1-.2-.2-.3-.2s-.3.1-.3.2l-.5,1h0l-1,.5C1127.9,485,1127.9,485.4,1128.2,485.6Z" transform="translate(0 -6.7)"/><path class="cls-171" d="M1135.7,497.5l.7.4h0l.4.7c0,.1.1.1.2.1s.2,0,.2-.1l.4-.7h0l.7-.4a.28.28,0,0,0,0-.5l-.7-.4h0l-.4-.7c0-.1-.1-.1-.2-.1s-.2,0-.2.1l-.4.7h0l-.7.4A.28.28,0,0,0,1135.7,497.5Z" transform="translate(0 -6.7)"/><path class="cls-172" d="M819.8,753.2l.9.4h0l.4.9c.1.1.2.2.3.2s.2-.1.3-.2l.4-.9h0l.9-.4a.38.38,0,0,0,0-.6l-.9-.4h0l-.4-.9c-.1-.1-.2-.2-.3-.2s-.2.1-.3.2l-.4.9h0l-.9.4C819.5,752.8,819.5,753.1,819.8,753.2Z" transform="translate(0 -6.7)"/><path class="cls-173" d="M712.3,727.7l.9.4h0l.4.9c.1.1.2.2.3.2s.2-.1.3-.2l.4-.9h0l.9-.4a.38.38,0,0,0,0-.6l-.9-.4h0l-.4-.9c-.1-.1-.2-.2-.3-.2s-.2.1-.3.2l-.4.9h0l-.9.4C712,727.3,712,727.6,712.3,727.7Z" transform="translate(0 -6.7)"/><path class="cls-174" d="M673,607.7l1.3.6h0l.6,1.3c.1.2.2.3.4.3s.3-.1.4-.3l.6-1.3h0l1.3-.6a.47.47,0,0,0,0-.8l-1.3-.6h0l-.6-1.3c-.1-.2-.2-.3-.4-.3s-.3.1-.4.3l-.6,1.3h0l-1.3.6C672.7,607,672.7,607.5,673,607.7Z" transform="translate(0 -6.7)"/><path class="cls-175" d="M801.1,493.4l1.3.6h0l.6,1.3c.1.2.2.3.4.3s.3-.1.4-.3l.6-1.3h0l1.3-.6a.47.47,0,0,0,0-.8l-1.3-.6h0l-.6-1.3c-.1-.2-.2-.3-.4-.3s-.3.1-.4.3l-.6,1.3h0l-1.3.6C800.8,492.8,800.8,493.3,801.1,493.4Z" transform="translate(0 -6.7)"/><path class="cls-176" d="M785.2,489.7l.7.4h0l.4.7c0,.1.1.1.2.1s.2,0,.2-.1l.4-.7h0l.7-.4a.28.28,0,0,0,0-.5l-.7-.4h0l-.4-.7c0-.1-.1-.1-.2-.1s-.2,0-.2.1l-.4.7h0l-.7.4C785,489.4,785,489.6,785.2,489.7Z" transform="translate(0 -6.7)"/><path class="cls-177" d="M766.2,527.7l.7.4h0l.4.7c0,.1.1.1.2.1s.2,0,.2-.1l.4-.7h0l.7-.4a.28.28,0,0,0,0-.5l-.7-.4h0l-.4-.7c0-.1-.1-.1-.2-.1s-.2,0-.2.1l-.4.7h0l-.7.4A.28.28,0,0,0,766.2,527.7Z" transform="translate(0 -6.7)"/><path class="cls-178" d="M670.1,605.7l.3.2h0l.2.3.1.1a.1.1,0,0,0,.1-.1l.2-.3h0l.3-.2c.1,0,.1-.2,0-.2l-.3-.2h0l-.2-.3-.1-.1a.1.1,0,0,0-.1.1l-.2.3h0l-.3.2C670,605.5,670,605.6,670.1,605.7Z" transform="translate(0 -6.7)"/><path class="cls-179" d="M646.4,526.3l1.9.9.1.1.9,1.9a.82.82,0,0,0,.6.4.62.62,0,0,0,.6-.4l.9-1.9.1-.1,1.9-.9a.67.67,0,0,0,0-1.2l-1.9-.9-.1-.1-.9-1.9a.82.82,0,0,0-.6-.4.62.62,0,0,0-.6.4l-.9,1.9-.1.1-1.9.9A.67.67,0,0,0,646.4,526.3Z" transform="translate(0 -6.7)"/><path class="cls-180" d="M620,528.4l1,.5h0l.5,1c.1.1.2.2.3.2s.2-.1.3-.2l.5-1h0l1-.5a.31.31,0,0,0,0-.6l-1-.5h0l-.5-1c-.1-.1-.2-.2-.3-.2s-.2.1-.3.2l-.5,1h0l-1,.5A.31.31,0,0,0,620,528.4Z" transform="translate(0 -6.7)"/><path class="cls-181" d="M626.7,477.9l1,.5h0l.5,1c.1.1.2.2.3.2s.2-.1.3-.2l.5-1h0l1-.5a.31.31,0,0,0,0-.6l-1-.5h0l-.5-1c-.1-.1-.2-.2-.3-.2s-.2.1-.3.2l-.5,1h0l-1,.5A.31.31,0,0,0,626.7,477.9Z" transform="translate(0 -6.7)"/><path class="cls-94" d="M606.6,589.4l1.3.6h0l.6,1.3c.1.2.2.3.4.3s.3-.1.4-.3l.6-1.3h0l1.3-.6a.47.47,0,0,0,0-.8l-1.3-.6h0l-.6-1.3c-.1-.2-.2-.3-.4-.3s-.3.1-.4.3l-.6,1.3h0l-1.3.6C606.2,588.7,606.2,589.2,606.6,589.4Z" transform="translate(0 -6.7)"/></g></g></svg>